G04*
G04 #@! TF.GenerationSoftware,Altium Limited,Altium Designer,19.0.11 (319)*
G04*
G04 Layer_Physical_Order=1*
G04 Layer_Color=255*
%FSLAX25Y25*%
%MOIN*%
G70*
G01*
G75*
%ADD11C,0.00394*%
%ADD12C,0.00787*%
%ADD16R,0.03543X0.03937*%
%ADD17R,0.03937X0.03543*%
%ADD18R,0.03347X0.03740*%
%ADD19R,0.03740X0.03347*%
%ADD20R,0.02165X0.05158*%
%ADD21R,0.02756X0.01181*%
%ADD22R,0.03937X0.04724*%
%ADD23R,0.03150X0.03543*%
%ADD24R,0.01181X0.05512*%
%ADD25R,0.10433X0.09055*%
%ADD38C,0.03937*%
%ADD39C,0.01968*%
%ADD40C,0.01181*%
%ADD41C,0.15748*%
%ADD42C,0.01772*%
%ADD43C,0.01181*%
%ADD44C,0.01968*%
%ADD45C,0.02362*%
D11*
X8858Y-41142D02*
Y-35925D01*
X98Y-10827D02*
X4252Y-6673D01*
X6890Y-41142D02*
Y-27854D01*
X7087Y-27657D01*
X4921Y-41142D02*
Y-31496D01*
X1280Y-27854D02*
X4921Y-31496D01*
X1280Y-27854D02*
Y-27657D01*
X6102Y-23622D02*
Y-20965D01*
X19094Y-22933D02*
X22638D01*
X-84055Y4528D02*
Y4724D01*
Y4528D02*
X-82776Y3248D01*
X-81102D01*
X-23623Y-9154D02*
X-20965D01*
X-98Y-21063D02*
X98D01*
X21949Y-8956D02*
X24608D01*
X21949Y3445D02*
X24608D01*
X21851Y9745D02*
X24509D01*
X21850Y9744D02*
X21851Y9745D01*
X6890Y21752D02*
Y25295D01*
X-24311Y27362D02*
X-20768D01*
X4921Y-44685D02*
Y-41142D01*
X6890Y-44685D02*
Y-41142D01*
X-14863Y-41043D02*
Y-35927D01*
X34646Y12106D02*
Y15650D01*
X-35728Y12205D02*
Y15748D01*
X18701Y-41142D02*
Y-37598D01*
X10827Y-44685D02*
Y-41142D01*
X-2953Y-44685D02*
Y-41142D01*
X29331Y-16240D02*
X29429Y-16339D01*
X-984Y-41142D02*
Y-35928D01*
X-4921Y-41142D02*
Y-37598D01*
X2953Y-41142D02*
Y-35928D01*
X-11024Y-40945D02*
Y-35827D01*
X-7955Y-494D02*
X-7949Y-488D01*
X-13026Y-494D02*
X-7955D01*
X-13032Y-500D02*
X-13026Y-494D01*
X-15650Y-9154D02*
X-12894D01*
Y-7524D01*
X-7838Y-2468D01*
X-8858Y-37598D02*
X-8661Y-37402D01*
X-16732Y-41142D02*
Y-37402D01*
X-18701Y-41142D02*
Y-35925D01*
X-12795Y-41142D02*
Y-37402D01*
X984Y-41142D02*
Y-37598D01*
X-8858Y-41142D02*
Y-37598D01*
X-14863Y-41043D02*
X-14764Y-41142D01*
X-11024Y-40945D02*
X-10827Y-41142D01*
X-6890D02*
Y-35928D01*
X-3854Y-13500D02*
Y-6630D01*
X-6102Y-15748D02*
X-3854Y-13500D01*
X-8858Y-41142D02*
X-8858Y-41142D01*
X-12795Y-41142D02*
X-12795Y-41142D01*
X8366Y-2756D02*
X10610D01*
X98Y-15551D02*
Y-10827D01*
X-22047Y-12992D02*
X-13091D01*
X-10630Y-10531D01*
Y-6791D01*
X-7677Y-3839D01*
X-5500D01*
X-4197Y-2535D01*
X-1807D01*
X-15650Y-9154D02*
Y-2953D01*
X-18701Y-41142D02*
X-18701Y-41142D01*
X-24902Y-15846D02*
X-22047Y-12992D01*
X5217Y-11811D02*
X16634D01*
X1476Y-15551D02*
X5217Y-11811D01*
X98Y-15551D02*
X1476D01*
X-98Y-15748D02*
X98Y-15551D01*
X10610Y-2756D02*
X13126Y-241D01*
X26717D01*
X29331Y-16240D02*
Y-2854D01*
X26717Y-241D02*
X29331Y-2854D01*
X-6299Y-15748D02*
X-6102D01*
X10630Y0D02*
Y6398D01*
X13780Y9547D01*
X18012Y-24016D02*
X19094Y-22933D01*
X16535Y9547D02*
X16732Y9744D01*
X13780Y9547D02*
X16535D01*
X6102Y-20965D02*
X6299D01*
X16634Y-11811D02*
Y-8957D01*
Y-2756D01*
D12*
X12303Y-21524D02*
X18307Y-27528D01*
X12303Y-21524D02*
Y-21063D01*
X18307Y-27800D02*
Y-27528D01*
X-34547Y-46063D02*
X-27657D01*
X27657D02*
X34547D01*
X27657Y-52953D02*
Y-46063D01*
X20768D02*
X27657D01*
X44882Y13681D02*
Y17913D01*
X47539Y20571D01*
Y20768D01*
X38287Y28051D02*
X42126D01*
X-24311Y32677D02*
X-20472D01*
X-34350Y28051D02*
X-30512D01*
X-46949Y22539D02*
X-44980Y24508D01*
X-46949Y20866D02*
Y22539D01*
X-87008Y10630D02*
X-86319Y11319D01*
X-87008Y6890D02*
Y10630D01*
X-86319Y11319D02*
X-84941Y9941D01*
X-80709D01*
X-77953Y-787D02*
X-75394Y-3347D01*
X-77953Y-787D02*
Y1280D01*
X-83465D02*
X-81102D01*
X-63583Y-2264D02*
X-60925Y394D01*
X-59842D01*
X-63583Y-2461D02*
Y-2264D01*
X-64173Y3740D02*
X-60335D01*
X-73130Y-8760D02*
X-69291D01*
X-70669Y-20965D02*
X-68898D01*
X-72638Y-18996D02*
X-70669Y-20965D01*
X-68898Y-21161D02*
Y-20965D01*
X-72736Y-14961D02*
X-68898D01*
X-72736Y-27362D02*
X-68898D01*
X-27657Y-52461D02*
Y-46063D01*
X27657Y-39173D02*
X27657Y-39173D01*
Y-46063D02*
Y-39173D01*
X20669Y-41142D02*
Y-37303D01*
X29331Y-27953D02*
Y-22933D01*
X56102Y6102D02*
X59350Y9350D01*
X63583D01*
X60138Y-4921D02*
Y-4921D01*
X62008Y-3051D01*
X64173D01*
X64075Y-11614D02*
Y-9252D01*
Y-11614D02*
X65256Y-12795D01*
X85335Y-27559D02*
X89173D01*
X85335Y-21358D02*
X89173D01*
X85335Y-15157D02*
X89173D01*
X85335Y-2461D02*
X89173D01*
X84547Y4134D02*
X87008D01*
X83366Y2953D02*
X84547Y4134D01*
X-76279Y-16634D02*
X-75492Y-17421D01*
X-79823Y-16634D02*
X-76279D01*
X-79823Y-22835D02*
X-76782D01*
X-76349Y-23268D01*
X-76083D01*
X-25297Y-23722D02*
Y-21360D01*
X-24902Y-20965D01*
X-3837Y-27659D02*
X-1673D01*
X-3839Y-27657D02*
X-3837Y-27659D01*
X12205Y-15846D02*
X14665Y-18307D01*
X12205Y-15846D02*
X12303Y-15748D01*
X12205Y-15846D02*
X12205Y-15846D01*
X16634Y3445D02*
Y6397D01*
X15551Y3445D02*
X16634D01*
X12697Y6299D02*
X15551Y3445D01*
X689Y10728D02*
Y16437D01*
X12205Y-30217D02*
Y-27657D01*
X-18701Y-24213D02*
Y-21063D01*
X18602Y-15748D02*
X19094Y-16240D01*
X12303Y-15748D02*
X18602D01*
X6102Y-15846D02*
X12205D01*
X13189Y21752D02*
Y31890D01*
X689Y21752D02*
Y31890D01*
X-24705Y-2953D02*
X-20965D01*
X21949Y-2756D02*
X25492D01*
X60532Y3150D02*
X64173D01*
Y4626D02*
X67520Y7972D01*
X64173Y3150D02*
Y4626D01*
X67520Y7972D02*
Y7972D01*
X68898Y9350D01*
X60335Y-27756D02*
X63976D01*
Y-21654D01*
X77362Y-21358D02*
X80020D01*
X76378Y-20374D02*
X77362Y-21358D01*
X88524Y-8957D02*
X89882Y-7598D01*
X85335Y-8957D02*
X88524D01*
X69291Y-3051D02*
Y3150D01*
X73524Y9547D02*
X74902D01*
X71752Y7776D02*
X73524Y9547D01*
X71752Y5807D02*
Y7776D01*
X69291Y3347D02*
X71752Y5807D01*
X69291Y3150D02*
Y3347D01*
X70473Y10925D02*
X71063Y11516D01*
X70276Y10925D02*
X70473D01*
X68898Y9547D02*
X70276Y10925D01*
X68898Y9350D02*
Y9547D01*
X71063Y11516D02*
X74902D01*
X78051Y5906D02*
Y9547D01*
X84153Y6004D02*
Y7874D01*
X82480Y9547D02*
X84153Y7874D01*
X81201Y9547D02*
X82480D01*
X81201Y5709D02*
Y7579D01*
X84941Y11516D02*
X87008Y9449D01*
X81201Y11516D02*
X84941D01*
X87712Y10153D02*
Y10842D01*
X87008Y9449D02*
X87712Y10153D01*
Y10842D02*
X89173Y12303D01*
X74902Y2854D02*
X80020Y-2264D01*
Y-2461D02*
Y-2264D01*
X74902Y2854D02*
Y7579D01*
X-88976Y-22835D02*
X-84941D01*
X-88976Y-10433D02*
X-84941D01*
X-88976Y-16634D02*
X-84941D01*
X-79823Y-10433D02*
X-79626Y-10236D01*
X-76673D01*
X-61910Y10138D02*
X-60236Y11811D01*
X-64173Y10138D02*
X-61910D01*
X-64173Y9941D02*
Y10138D01*
X-71752Y-2461D02*
X-68898D01*
X-70473Y-689D02*
X-68898Y-2264D01*
X-74803Y-689D02*
X-70473D01*
X-68898Y-2461D02*
Y-2264D01*
X-69291Y3740D02*
Y9941D01*
Y3543D02*
Y3740D01*
X-71555Y1280D02*
X-69291Y3543D01*
X-74803Y1280D02*
X-71555D01*
X-75394Y9941D02*
X-74803Y9350D01*
Y3248D02*
Y9350D01*
X-86811Y1575D02*
X-84547Y-689D01*
X-87008Y1575D02*
X-86811D01*
X-84547Y-689D02*
X-81102D01*
X-52756Y-8760D02*
X-49311D01*
X-64173D02*
X-58071D01*
X-57874Y-14961D02*
X-56890Y-15945D01*
X-63583Y-14961D02*
X-57874D01*
X-63484Y-21260D02*
X-60374D01*
X-63583Y-21161D02*
X-63484Y-21260D01*
X-63583Y-27362D02*
Y-21161D01*
Y-27362D02*
X-60039D01*
X72736Y-23917D02*
Y-22598D01*
X69095Y-27559D02*
X72736Y-23917D01*
X69095Y-27756D02*
Y-27559D01*
Y-21654D02*
Y-17598D01*
X79724Y-9252D02*
X80020Y-8957D01*
X69193Y-9252D02*
X79724D01*
X76575Y-15157D02*
X76575Y-15157D01*
X80020D01*
X76772Y-27559D02*
X76772Y-27559D01*
X80020D01*
Y-21358D01*
D16*
X-15650Y-2953D02*
D03*
X-20965D02*
D03*
Y-9154D02*
D03*
X-15650D02*
D03*
X21949Y-8957D02*
D03*
X16634D02*
D03*
Y-2756D02*
D03*
X21949D02*
D03*
Y3445D02*
D03*
X16634D02*
D03*
X63583Y9350D02*
D03*
X68898D02*
D03*
X85335Y-2461D02*
D03*
X80020D02*
D03*
Y-27559D02*
D03*
X85335D02*
D03*
Y-21358D02*
D03*
X80020D02*
D03*
Y-15157D02*
D03*
X85335D02*
D03*
X80020Y-8957D02*
D03*
X85335D02*
D03*
X-58071Y-8760D02*
D03*
X-52756D02*
D03*
X-68898Y-27362D02*
D03*
X-63583D02*
D03*
Y-21161D02*
D03*
X-68898D02*
D03*
X-63583Y-14961D02*
D03*
X-68898D02*
D03*
X-63583Y-2461D02*
D03*
X-68898D02*
D03*
X-80709Y9941D02*
D03*
X-75394D02*
D03*
D17*
X-12500Y-21063D02*
D03*
Y-15748D02*
D03*
X-18701D02*
D03*
Y-21063D02*
D03*
X689Y16437D02*
D03*
Y21752D02*
D03*
X6890D02*
D03*
Y16437D02*
D03*
X13189D02*
D03*
Y21752D02*
D03*
X87008Y4134D02*
D03*
Y9449D02*
D03*
X-98Y-15748D02*
D03*
Y-21063D02*
D03*
X-6299Y-15748D02*
D03*
Y-21063D02*
D03*
X-24311Y27362D02*
D03*
Y32677D02*
D03*
X12303Y-15748D02*
D03*
Y-21063D02*
D03*
X-87008Y6890D02*
D03*
Y1575D02*
D03*
D18*
X16732Y9744D02*
D03*
X21850D02*
D03*
X47539Y20768D02*
D03*
X42421D02*
D03*
X12205Y-27657D02*
D03*
X7087D02*
D03*
X-3839D02*
D03*
X1280D02*
D03*
X64173Y3150D02*
D03*
X69291D02*
D03*
X64173Y-3051D02*
D03*
X69291D02*
D03*
X69193Y-9252D02*
D03*
X64075D02*
D03*
X63976Y-21654D02*
D03*
X69095D02*
D03*
X63976Y-27756D02*
D03*
X69095D02*
D03*
X-64173Y-8760D02*
D03*
X-69291D02*
D03*
X-84941Y-10433D02*
D03*
X-79823D02*
D03*
X-84941Y-16634D02*
D03*
X-79823D02*
D03*
X-84941Y-22835D02*
D03*
X-79823D02*
D03*
X-46949Y20866D02*
D03*
X-41831D02*
D03*
X-64173Y3740D02*
D03*
X-69291D02*
D03*
X-64173Y9941D02*
D03*
X-69291D02*
D03*
D19*
X34646Y20768D02*
D03*
Y15650D02*
D03*
X6102Y-20965D02*
D03*
Y-15846D02*
D03*
X-24902Y-15846D02*
D03*
Y-20965D02*
D03*
X48327Y35925D02*
D03*
Y30807D02*
D03*
X-35728Y20866D02*
D03*
Y15748D02*
D03*
X-47933Y35925D02*
D03*
Y30807D02*
D03*
D20*
X78051Y9547D02*
D03*
X-77953Y1280D02*
D03*
D21*
X74902Y7579D02*
D03*
Y9547D02*
D03*
Y11516D02*
D03*
X81201D02*
D03*
Y9547D02*
D03*
Y7579D02*
D03*
X-81102Y3248D02*
D03*
Y1280D02*
D03*
Y-689D02*
D03*
X-74803D02*
D03*
Y1280D02*
D03*
Y3248D02*
D03*
D22*
X29331Y-16240D02*
D03*
Y-22933D02*
D03*
X19094Y-16240D02*
D03*
Y-22933D02*
D03*
D23*
X38386Y35925D02*
D03*
X42126Y28051D02*
D03*
X34646D02*
D03*
X-38091Y35925D02*
D03*
X-34350Y28051D02*
D03*
X-41831D02*
D03*
D24*
X20669Y-41142D02*
D03*
X18701D02*
D03*
X-20669D02*
D03*
X-18701D02*
D03*
X-16732D02*
D03*
X-14764D02*
D03*
X-12795D02*
D03*
X-10827D02*
D03*
X-8858D02*
D03*
X-6890D02*
D03*
X-4921D02*
D03*
X-2953D02*
D03*
X-984D02*
D03*
X984D02*
D03*
X2953D02*
D03*
X4921D02*
D03*
X6890D02*
D03*
X8858D02*
D03*
X10827D02*
D03*
X12795D02*
D03*
X14764D02*
D03*
X16732D02*
D03*
D25*
X-27657Y-46063D02*
D03*
X27657D02*
D03*
D38*
X-51476Y7579D02*
G03*
X-51476Y7579I-0J0D01*
G01*
X50985Y-32874D02*
G03*
X50985Y-32874I-0J0D01*
G01*
D39*
X-6299Y-21063D02*
X-98D01*
X-12500D02*
X-6299D01*
X98D02*
X3051Y-24016D01*
D40*
X-24803Y-34547D02*
X-20669Y-38681D01*
Y-41142D02*
Y-38681D01*
X-87008Y-3543D02*
Y1575D01*
X-89075Y-5610D02*
X-87008Y-3543D01*
X-12500Y-15748D02*
X-6299D01*
X-18701D02*
X-12500D01*
X7087Y16437D02*
X13189D01*
X9814Y18673D02*
X10040Y18899D01*
X9322Y18673D02*
X9814D01*
X7087Y16437D02*
X9322Y18673D01*
X6890Y16437D02*
X7087D01*
X-40748Y35925D02*
X-38091D01*
X-45866Y30807D02*
X-40748Y35925D01*
X-47933Y30807D02*
X-45866D01*
X-47835Y35827D02*
X-44587D01*
X-47933Y35925D02*
X-47835Y35827D01*
X-41831Y28051D02*
X-41831Y28051D01*
Y20866D02*
Y28051D01*
Y20866D02*
X-35728D01*
X45374Y30807D02*
X48327D01*
X40256Y35925D02*
X45374Y30807D01*
X38386Y35925D02*
X40256D01*
X44783D02*
X48327D01*
X48327Y35925D01*
X34646Y20768D02*
X42421D01*
X34646D02*
Y28051D01*
D41*
X39664Y2362D02*
D03*
X-39076D02*
D03*
X-99016Y-12106D02*
D03*
X99016Y-13484D02*
D03*
D42*
X8858Y-35925D02*
D03*
X18307Y-27800D02*
D03*
X6102Y-23622D02*
D03*
X22638Y-22933D02*
D03*
X-34547Y-46063D02*
D03*
X34547Y-46063D02*
D03*
X27657Y-52953D02*
D03*
X20768Y-46063D02*
D03*
X44882Y13681D02*
D03*
X38287Y28051D02*
D03*
X-20472Y32677D02*
D03*
X-30512Y28051D02*
D03*
X-44980Y24508D02*
D03*
X-75886Y-6004D02*
D03*
X-86319Y11319D02*
D03*
X-75394Y-3347D02*
D03*
X-83465Y1280D02*
D03*
X-59842Y394D02*
D03*
X-60335Y3740D02*
D03*
X-73130Y-8760D02*
D03*
X-72638Y-18996D02*
D03*
X-72736Y-14961D02*
D03*
Y-27362D02*
D03*
X-27657Y-52461D02*
D03*
X27657Y-39173D02*
D03*
X20669Y-37303D02*
D03*
X29331Y-27953D02*
D03*
X56102Y6102D02*
D03*
X60138Y-4921D02*
D03*
X65256Y-12795D02*
D03*
X89173Y-27559D02*
D03*
Y-21358D02*
D03*
Y-15157D02*
D03*
Y-2461D02*
D03*
X83366Y2953D02*
D03*
X-75492Y-17421D02*
D03*
X-76083Y-23268D02*
D03*
X-25297Y-23722D02*
D03*
X-1673Y-27659D02*
D03*
X-24803Y-34547D02*
D03*
X-89075Y-5610D02*
D03*
X12697Y6299D02*
D03*
X689Y10728D02*
D03*
X12205Y-30217D02*
D03*
X-18701Y-24213D02*
D03*
X13780Y9547D02*
D03*
X16634Y-11811D02*
D03*
X13189Y31890D02*
D03*
X689D02*
D03*
X-24705Y-2953D02*
D03*
X25492Y-2756D02*
D03*
X60532Y3150D02*
D03*
X60335Y-27756D02*
D03*
X78051Y5906D02*
D03*
X84153Y6004D02*
D03*
X81201Y5709D02*
D03*
X89173Y12303D02*
D03*
X-88976Y-22835D02*
D03*
X-88976Y-10433D02*
D03*
X-88976Y-16634D02*
D03*
X-76673Y-10236D02*
D03*
X-60236Y11811D02*
D03*
X-71752Y-2461D02*
D03*
X-47933Y13878D02*
D03*
X-44587Y35827D02*
D03*
X48327Y13780D02*
D03*
X44783Y35925D02*
D03*
X-51575Y-3268D02*
D03*
X-49311Y-8760D02*
D03*
X-56890Y-15945D02*
D03*
X-60374Y-21260D02*
D03*
X-60039Y-27362D02*
D03*
X72736Y-22598D02*
D03*
X69095Y-17598D02*
D03*
X89882Y-7598D02*
D03*
X76575Y-15157D02*
D03*
X76772Y-27559D02*
D03*
X76378Y-20374D02*
D03*
D43*
X4252Y-6673D02*
D03*
X2205Y-4626D02*
D03*
X-84055Y4724D02*
D03*
X-23917Y-6201D02*
D03*
X-23819Y197D02*
D03*
X-24114Y3347D02*
D03*
Y9547D02*
D03*
X-11712Y24902D02*
D03*
X-5512Y24803D02*
D03*
X-2067Y24508D02*
D03*
X4528Y24114D02*
D03*
X16831Y19685D02*
D03*
X-23623Y-9154D02*
D03*
X25000Y-6004D02*
D03*
X24608Y-8956D02*
D03*
Y3445D02*
D03*
X24509Y9745D02*
D03*
X6890Y25295D02*
D03*
X-20768Y27362D02*
D03*
X-14863Y-35927D02*
D03*
X4921Y-44685D02*
D03*
X6890D02*
D03*
X34646Y12106D02*
D03*
X-35728Y12205D02*
D03*
X18701Y-37598D02*
D03*
X10827Y-44685D02*
D03*
X-2953D02*
D03*
X-984Y-35928D02*
D03*
X-4921Y-37598D02*
D03*
X-11024Y-35827D02*
D03*
X-7949Y-6630D02*
D03*
X-13032Y-500D02*
D03*
X-12894Y-9154D02*
D03*
X-8661Y-37402D02*
D03*
X-16732D02*
D03*
X-18701Y-35925D02*
D03*
X-12795Y-37402D02*
D03*
X2953Y-35928D02*
D03*
X984Y-37598D02*
D03*
X-6890Y-35928D02*
D03*
X-5610Y-6595D02*
D03*
X-3854Y-6630D02*
D03*
X-5902Y-488D02*
D03*
X2205Y3559D02*
D03*
X-3754Y3751D02*
D03*
X6342Y3480D02*
D03*
X8390Y5528D02*
D03*
X4252Y1516D02*
D03*
X2205D02*
D03*
Y-2579D02*
D03*
X4252Y-4626D02*
D03*
X2205Y-6673D02*
D03*
X-1807Y-6630D02*
D03*
X-5902Y-2535D02*
D03*
X-5801Y3751D02*
D03*
X-3839Y1476D02*
D03*
X-5906D02*
D03*
X-1807Y3606D02*
D03*
X-7949Y-488D02*
D03*
X-7838Y-2468D02*
D03*
X-3937Y5610D02*
D03*
X-11122Y4134D02*
D03*
X8366Y-2756D02*
D03*
X2287Y5654D02*
D03*
X240D02*
D03*
X2213Y-532D02*
D03*
X-1807Y-2535D02*
D03*
X-1732Y1559D02*
D03*
X-1807Y5654D02*
D03*
X6330Y-2598D02*
D03*
X-18701Y197D02*
D03*
X-19094Y13091D02*
D03*
X-2461Y19193D02*
D03*
X19291Y6791D02*
D03*
X-1673Y14272D02*
D03*
X14666Y-5709D02*
D03*
X14665Y-18307D02*
D03*
X-12992Y6299D02*
D03*
X-16043Y16339D02*
D03*
X18406Y13189D02*
D03*
X16634Y6397D02*
D03*
X10630Y0D02*
D03*
D44*
X3051Y-24016D02*
D03*
D45*
X10040Y18899D02*
D03*
M02*
