G04*
G04 #@! TF.GenerationSoftware,Altium Limited,Altium Designer,19.0.11 (319)*
G04*
G04 Layer_Physical_Order=3*
G04 Layer_Color=6736896*
%FSLAX25Y25*%
%MOIN*%
G70*
G01*
G75*
%ADD11C,0.00394*%
%ADD42C,0.01772*%
%ADD43C,0.01181*%
D11*
X492Y-21459D02*
G03*
X1083Y-22050I591J0D01*
G01*
X2027Y-22640D02*
G03*
X1436Y-22050I-591J0D01*
G01*
Y-23231D02*
G03*
X2027Y-22640I0J591D01*
G01*
X-197Y-23231D02*
G03*
X-787Y-23821I0J-591D01*
G01*
D02*
G03*
X-197Y-24412I591J0D01*
G01*
X1764Y-25002D02*
G03*
X1173Y-24412I-591J0D01*
G01*
Y-25593D02*
G03*
X1764Y-25002I0J591D01*
G01*
X-197Y-25593D02*
G03*
X-787Y-26183I0J-591D01*
G01*
D02*
G03*
X-197Y-26774I591J0D01*
G01*
X3346Y-27365D02*
G03*
X2756Y-26774I-591J0D01*
G01*
Y-27955D02*
G03*
X3346Y-27365I0J591D01*
G01*
X145Y-27955D02*
G03*
X-446Y-28546I0J-591D01*
G01*
D02*
G03*
X145Y-29136I591J0D01*
G01*
X3346Y-29727D02*
G03*
X2756Y-29136I-591J0D01*
G01*
Y-30317D02*
G03*
X3346Y-29727I0J591D01*
G01*
X-197Y-30317D02*
G03*
X-787Y-30908I0J-591D01*
G01*
D02*
G03*
X-197Y-31498I591J0D01*
G01*
X3346Y-32089D02*
G03*
X2756Y-31498I-591J0D01*
G01*
Y-32680D02*
G03*
X3346Y-32089I0J591D01*
G01*
X1083Y-32680D02*
G03*
X492Y-33270I0J-591D01*
G01*
X-17028Y-17400D02*
G03*
X-16437Y-16810I0J591D01*
G01*
X-17717Y-17400D02*
G03*
X-18307Y-17991I0J-591D01*
G01*
D02*
G03*
X-17717Y-18581I591J0D01*
G01*
X-16437Y-19172D02*
G03*
X-17028Y-18581I-591J0D01*
G01*
Y-19762D02*
G03*
X-16437Y-19172I0J591D01*
G01*
X-17717Y-19762D02*
G03*
X-18307Y-20353I0J-591D01*
G01*
D02*
G03*
X-17717Y-20944I591J0D01*
G01*
X-16437Y-21534D02*
G03*
X-17028Y-20944I-591J0D01*
G01*
Y-22125D02*
G03*
X-16437Y-21534I0J591D01*
G01*
X-17340Y-22125D02*
G03*
X-17931Y-22715I0J-591D01*
G01*
D02*
G03*
X-17340Y-23306I591J0D01*
G01*
X-16437Y-23896D02*
G03*
X-17028Y-23306I-591J0D01*
G01*
X-16872Y-24487D02*
G03*
X-16437Y-24052I0J435D01*
G01*
X-16872Y-24487D02*
G03*
X-17462Y-25078I0J-591D01*
G01*
D02*
G03*
X-16872Y-25668I591J0D01*
G01*
X-16437Y-26103D02*
G03*
X-16872Y-25668I-435J0D01*
G01*
X-17028Y-26849D02*
G03*
X-16437Y-26259I0J591D01*
G01*
X-17717Y-26849D02*
G03*
X-18307Y-27440I0J-591D01*
G01*
D02*
G03*
X-17717Y-28030I591J0D01*
G01*
X-16437Y-28621D02*
G03*
X-17028Y-28030I-591J0D01*
G01*
X-14665Y-17815D02*
G03*
X-14173Y-17323I0J492D01*
G01*
X-15103Y-17815D02*
G03*
X-15694Y-18406I0J-591D01*
G01*
D02*
G03*
X-15103Y-18996I591J0D01*
G01*
X-13345Y-19587D02*
G03*
X-13935Y-18996I-591J0D01*
G01*
Y-20177D02*
G03*
X-13345Y-19587I0J591D01*
G01*
X-15103Y-20177D02*
G03*
X-15694Y-20768I0J-591D01*
G01*
D02*
G03*
X-15103Y-21358I591J0D01*
G01*
X-13345Y-21949D02*
G03*
X-13935Y-21358I-591J0D01*
G01*
Y-22539D02*
G03*
X-13345Y-21949I0J591D01*
G01*
X-15103Y-22539D02*
G03*
X-15694Y-23130I0J-591D01*
G01*
D02*
G03*
X-15103Y-23720I591J0D01*
G01*
X-13345Y-24311D02*
G03*
X-13935Y-23720I-591J0D01*
G01*
Y-24902D02*
G03*
X-13345Y-24311I0J591D01*
G01*
X-15103Y-24902D02*
G03*
X-15694Y-25492I0J-591D01*
G01*
D02*
G03*
X-15103Y-26083I591J0D01*
G01*
X-13345Y-26673D02*
G03*
X-13935Y-26083I-591J0D01*
G01*
Y-27264D02*
G03*
X-13345Y-26673I0J591D01*
G01*
X-15103Y-27264D02*
G03*
X-15694Y-27854I0J-591D01*
G01*
D02*
G03*
X-15103Y-28445I591J0D01*
G01*
X-13345Y-29035D02*
G03*
X-13935Y-28445I-591J0D01*
G01*
Y-29626D02*
G03*
X-13345Y-29035I0J591D01*
G01*
X-13935Y-29626D02*
G03*
X-14173Y-29864I0J-238D01*
G01*
X-11756Y-14290D02*
G03*
X-11435Y-14611I321J0D01*
G01*
X-10845Y-15201D02*
G03*
X-11435Y-14611I-591J0D01*
G01*
Y-15792D02*
G03*
X-10845Y-15201I0J591D01*
G01*
X-12205Y-15792D02*
G03*
X-12795Y-16382I0J-591D01*
G01*
D02*
G03*
X-12205Y-16973I591J0D01*
G01*
X-10845Y-17563D02*
G03*
X-11435Y-16973I-591J0D01*
G01*
Y-18154D02*
G03*
X-10845Y-17563I0J591D01*
G01*
X-12205Y-18154D02*
G03*
X-12795Y-18744I0J-591D01*
G01*
D02*
G03*
X-12205Y-19335I591J0D01*
G01*
X-10845Y-19926D02*
G03*
X-11435Y-19335I-591J0D01*
G01*
Y-20516D02*
G03*
X-10845Y-19926I0J591D01*
G01*
X-12205Y-20516D02*
G03*
X-12795Y-21107I0J-591D01*
G01*
D02*
G03*
X-12205Y-21697I591J0D01*
G01*
X-10845Y-22288D02*
G03*
X-11435Y-21697I-591J0D01*
G01*
Y-22878D02*
G03*
X-10845Y-22288I0J591D01*
G01*
X-12205Y-22878D02*
G03*
X-12795Y-23469I0J-591D01*
G01*
D02*
G03*
X-12205Y-24059I591J0D01*
G01*
X-10848Y-24650D02*
G03*
X-11439Y-24059I-591J0D01*
G01*
Y-25241D02*
G03*
X-10848Y-24650I0J591D01*
G01*
X-12205Y-25241D02*
G03*
X-12795Y-25831I0J-591D01*
G01*
D02*
G03*
X-12205Y-26422I591J0D01*
G01*
X-11151Y-27012D02*
G03*
X-11742Y-26422I-591J0D01*
G01*
Y-27603D02*
G03*
X-11151Y-27012I0J591D01*
G01*
X-12205Y-27603D02*
G03*
X-12795Y-28193I0J-591D01*
G01*
D02*
G03*
X-12205Y-28784I591J0D01*
G01*
X-11151Y-29374D02*
G03*
X-11742Y-28784I-591J0D01*
G01*
Y-29965D02*
G03*
X-11151Y-29374I0J591D01*
G01*
X-10407Y-9156D02*
G03*
X-9817Y-9747I591J0D01*
G01*
X-8287Y-10338D02*
G03*
X-8878Y-9747I-591J0D01*
G01*
Y-10928D02*
G03*
X-8287Y-10338I0J591D01*
G01*
X-9817Y-10928D02*
G03*
X-10407Y-11519I0J-591D01*
G01*
D02*
G03*
X-9817Y-12109I591J0D01*
G01*
X-8716Y-12700D02*
G03*
X-9307Y-12109I-591J0D01*
G01*
Y-13290D02*
G03*
X-8716Y-12700I0J591D01*
G01*
X-9817Y-13290D02*
G03*
X-10407Y-13881I0J-591D01*
G01*
D02*
G03*
X-9817Y-14471I591J0D01*
G01*
X-8716Y-15062D02*
G03*
X-9307Y-14471I-591J0D01*
G01*
Y-15653D02*
G03*
X-8716Y-15062I0J591D01*
G01*
X-9817Y-15653D02*
G03*
X-10407Y-16243I0J-591D01*
G01*
D02*
G03*
X-9817Y-16834I591J0D01*
G01*
X-8716Y-17424D02*
G03*
X-9307Y-16834I-591J0D01*
G01*
Y-18015D02*
G03*
X-8716Y-17424I0J591D01*
G01*
X-9817Y-18015D02*
G03*
X-10407Y-18605I0J-591D01*
G01*
D02*
G03*
X-9817Y-19196I591J0D01*
G01*
X-8716Y-19786D02*
G03*
X-9307Y-19196I-591J0D01*
G01*
Y-20377D02*
G03*
X-8716Y-19786I0J591D01*
G01*
X-9817Y-20377D02*
G03*
X-10407Y-20967I0J-591D01*
G01*
D02*
G03*
X-9817Y-21558I591J0D01*
G01*
X-8716Y-22149D02*
G03*
X-9307Y-21558I-591J0D01*
G01*
Y-22739D02*
G03*
X-8716Y-22149I0J591D01*
G01*
X-9817Y-22739D02*
G03*
X-10407Y-23330I0J-591D01*
G01*
Y-23338D02*
G03*
X-9826Y-23920I582J0D01*
G01*
X-9235Y-24511D02*
G03*
X-9826Y-23920I-591J0D01*
G01*
Y-25101D02*
G03*
X-9235Y-24511I0J591D01*
G01*
X-9826Y-25101D02*
G03*
X-10407Y-25683I0J-582D01*
G01*
X-8467Y-25692D02*
G03*
X-7972Y-25197I0J495D01*
G01*
X-9073Y-25692D02*
G03*
X-9664Y-26282I0J-591D01*
G01*
D02*
G03*
X-9073Y-26873I591J0D01*
G01*
X-7972Y-27463D02*
G03*
X-8563Y-26873I-591J0D01*
G01*
Y-28054D02*
G03*
X-7972Y-27463I0J591D01*
G01*
X-9073Y-28054D02*
G03*
X-9664Y-28645I0J-591D01*
G01*
D02*
G03*
X-9073Y-29235I591J0D01*
G01*
X-6846Y-29826D02*
G03*
X-7436Y-29235I-591J0D01*
G01*
Y-30416D02*
G03*
X-6846Y-29826I0J591D01*
G01*
X-7436Y-30416D02*
G03*
X-7972Y-30952I0J-536D01*
G01*
X-6102Y-28292D02*
G03*
X-6638Y-27756I-536J0D01*
G01*
X-7229Y-27165D02*
G03*
X-6638Y-27756I591J0D01*
G01*
Y-26575D02*
G03*
X-7229Y-27165I0J-591D01*
G01*
X-5566Y-26575D02*
G03*
X-4976Y-25984I0J591D01*
G01*
D02*
G03*
X-5566Y-25394I-591J0D01*
G01*
X-7229Y-24803D02*
G03*
X-6638Y-25394I591J0D01*
G01*
Y-24213D02*
G03*
X-7229Y-24803I0J-591D01*
G01*
X-5566Y-24213D02*
G03*
X-4976Y-23622I0J591D01*
G01*
D02*
G03*
X-5566Y-23031I-591J0D01*
G01*
X-7229Y-22441D02*
G03*
X-6638Y-23031I591J0D01*
G01*
Y-21850D02*
G03*
X-7229Y-22441I0J-591D01*
G01*
X-5398Y-21850D02*
G03*
X-4807Y-21260I0J591D01*
G01*
D02*
G03*
X-5398Y-20669I-591J0D01*
G01*
X-7229Y-20079D02*
G03*
X-6638Y-20669I591J0D01*
G01*
Y-19488D02*
G03*
X-7229Y-20079I0J-591D01*
G01*
X-5398Y-19488D02*
G03*
X-4807Y-18898I0J591D01*
G01*
D02*
G03*
X-5398Y-18307I-591J0D01*
G01*
X-7229Y-17717D02*
G03*
X-6638Y-18307I591J0D01*
G01*
Y-17126D02*
G03*
X-7229Y-17717I0J-591D01*
G01*
X-5398Y-17126D02*
G03*
X-4807Y-16535I0J591D01*
G01*
D02*
G03*
X-5398Y-15945I-591J0D01*
G01*
X-7229Y-15354D02*
G03*
X-6638Y-15945I591J0D01*
G01*
Y-14764D02*
G03*
X-7229Y-15354I0J-591D01*
G01*
X-6638Y-14764D02*
G03*
X-6102Y-14228I0J536D01*
G01*
X-3642Y-22244D02*
G03*
X-4232Y-22835I0J-591D01*
G01*
X-2756Y-22244D02*
G03*
X-2165Y-21654I0J591D01*
G01*
D02*
G03*
X-2756Y-21063I-591J0D01*
G01*
X-4232Y-20472D02*
G03*
X-3642Y-21063I591J0D01*
G01*
Y-19882D02*
G03*
X-4232Y-20472I0J-591D01*
G01*
X-2756Y-19882D02*
G03*
X-2165Y-19291I0J591D01*
G01*
D02*
G03*
X-2756Y-18701I-591J0D01*
G01*
X-4232Y-18110D02*
G03*
X-3642Y-18701I591J0D01*
G01*
Y-17520D02*
G03*
X-4232Y-18110I0J-591D01*
G01*
X-2756Y-17520D02*
G03*
X-2165Y-16929I0J591D01*
G01*
D02*
G03*
X-2756Y-16339I-591J0D01*
G01*
X-4232Y-15748D02*
G03*
X-3642Y-16339I591J0D01*
G01*
Y-15157D02*
G03*
X-4232Y-15748I0J-591D01*
G01*
X-2756Y-15157D02*
G03*
X-2165Y-14567I0J591D01*
G01*
D02*
G03*
X-2756Y-13976I-591J0D01*
G01*
X-4232Y-13386D02*
G03*
X-3642Y-13976I591J0D01*
G01*
X-56Y-8718D02*
G03*
X-56Y-9553I418J-418D01*
G01*
X1416Y-11860D02*
G03*
X1416Y-11025I-418J418D01*
G01*
X581Y-11860D02*
G03*
X1416Y-11860I418J418D01*
G01*
X-1309Y-9971D02*
G03*
X-2029Y-9971I-360J-360D01*
G01*
X-2144Y-10086D02*
G03*
X-2144Y-10806I360J-360D01*
G01*
X-228Y-13557D02*
G03*
X-228Y-12722I-418J418D01*
G01*
X-1063Y-13557D02*
G03*
X-228Y-13557I418J418D01*
G01*
X-2562Y-12059D02*
G03*
X-3397Y-12059I-418J-418D01*
G01*
X5389Y-3539D02*
X6330Y-2598D01*
X5389Y-8938D02*
Y-3539D01*
X492Y-13836D02*
X5389Y-8938D01*
X492Y-21063D02*
Y-13836D01*
Y-21459D02*
Y-21063D01*
X1083Y-22050D02*
X1436D01*
X492Y-23231D02*
X1436D01*
X-197D02*
X492D01*
X-197Y-24412D02*
X492D01*
X1173D01*
X492Y-25593D02*
X1173D01*
X-197D02*
X492D01*
X-197Y-26774D02*
X492D01*
X2756D01*
X492Y-27955D02*
X2756D01*
X145D02*
X492D01*
X145Y-29136D02*
X492D01*
X2756D01*
X492Y-30317D02*
X2756D01*
X-197D02*
X492D01*
X-197Y-31498D02*
X492D01*
X2756D01*
X1083Y-32680D02*
X2756D01*
X492Y-33861D02*
Y-33270D01*
Y-34451D02*
Y-33861D01*
X-984Y-35928D02*
X492Y-34451D01*
X-6890Y5610D02*
X-3937D01*
X-11151Y1349D02*
X-6890Y5610D01*
X-11151Y-3573D02*
Y1349D01*
X-16437Y-8858D02*
X-11151Y-3573D01*
X-16437Y-16142D02*
Y-8858D01*
Y-16219D02*
Y-16142D01*
Y-16810D02*
Y-16219D01*
X-17717Y-17400D02*
X-17028D01*
X-17717Y-18581D02*
X-17028D01*
X-17717Y-19762D02*
X-17028D01*
X-17717Y-20944D02*
X-17028D01*
X-17340Y-22125D02*
X-17028D01*
X-17340Y-23306D02*
X-17028D01*
X-16437Y-24052D02*
Y-23896D01*
Y-26259D02*
Y-26103D01*
X-17717Y-26849D02*
X-17028D01*
X-17717Y-28030D02*
X-17028D01*
X-16437Y-29211D02*
Y-28621D01*
Y-30392D02*
Y-29211D01*
Y-30983D02*
Y-30392D01*
X-19838Y-34384D02*
X-16437Y-30983D01*
X-19838Y-36396D02*
Y-34384D01*
Y-36396D02*
X-18833Y-37402D01*
X-16732D01*
X-14173Y-17323D02*
Y-7677D01*
X-10407Y-3912D01*
X-7697Y3751D02*
X-5801D01*
X-10407Y1041D02*
X-7697Y3751D01*
X-10407Y-3912D02*
Y1041D01*
X-15103Y-17815D02*
X-14665D01*
X-15103Y-18996D02*
X-14173D01*
X-13935D01*
X-14173Y-20177D02*
X-13935D01*
X-15103D02*
X-14173D01*
X-15103Y-21358D02*
X-14173D01*
X-13935D01*
X-14173Y-22539D02*
X-13935D01*
X-15103D02*
X-14173D01*
X-15103Y-23720D02*
X-14173D01*
X-13935D01*
X-14173Y-24902D02*
X-13935D01*
X-15103D02*
X-14173D01*
X-15103Y-26083D02*
X-14173D01*
X-13935D01*
X-14173Y-27264D02*
X-13935D01*
X-15103D02*
X-14173D01*
X-15103Y-28445D02*
X-14173D01*
X-13935D01*
X-14173Y-30807D02*
Y-29864D01*
Y-31398D02*
Y-30807D01*
X-17618Y-34843D02*
X-14173Y-31398D01*
X-18701Y-35925D02*
X-17618Y-34843D01*
X-7783Y2614D02*
X-5330D01*
X-9664Y733D02*
X-7783Y2614D01*
X-9664Y-4411D02*
Y733D01*
X-11756Y-6503D02*
X-9664Y-4411D01*
X-11756Y-13430D02*
Y-6503D01*
Y-14290D02*
Y-13430D01*
Y-15792D02*
X-11435D01*
X-12205D02*
X-11756D01*
X-12205Y-16973D02*
X-11756D01*
X-11435D01*
X-11756Y-18154D02*
X-11435D01*
X-12205D02*
X-11756D01*
X-12205Y-19335D02*
X-11756D01*
X-11435D01*
X-11756Y-20516D02*
X-11435D01*
X-12205D02*
X-11756D01*
X-12205Y-21697D02*
X-11756D01*
X-11435D01*
X-11756Y-22878D02*
X-11435D01*
X-12205D02*
X-11756D01*
X-12205Y-24059D02*
X-11756D01*
X-11439D01*
X-11756Y-25241D02*
X-11439D01*
X-12205D02*
X-11756D01*
X-12205Y-26422D02*
X-11756D01*
X-11742D01*
X-11756Y-27603D02*
X-11742D01*
X-12205D02*
X-11756D01*
X-12205Y-28784D02*
X-11756D01*
X-11742D01*
X-11756Y-29965D02*
X-11742D01*
X-11756Y-31146D02*
Y-29965D01*
Y-31737D02*
Y-31146D01*
X-12795Y-32776D02*
X-11756Y-31737D01*
X-12795Y-37402D02*
Y-32776D01*
Y-37402D02*
Y-36220D01*
X-586Y4809D02*
X240Y5635D01*
X-586Y1097D02*
Y4809D01*
X-1333Y350D02*
X-586Y1097D01*
X-3064Y350D02*
X-1333D01*
X-4526Y-1112D02*
X-3064Y350D01*
X-4526Y-2768D02*
Y-1112D01*
X-5430Y-3673D02*
X-4526Y-2768D01*
X-6600Y-3673D02*
X-5430D01*
X-10407Y-7480D02*
X-6600Y-3673D01*
X-10407Y-8268D02*
Y-7480D01*
Y-33367D02*
Y-26873D01*
Y-8566D02*
Y-8268D01*
Y-9156D02*
Y-8566D01*
X-9817Y-9747D02*
X-8878D01*
X-9817Y-10928D02*
X-8878D01*
X-9817Y-12109D02*
X-9307D01*
X-9817Y-13290D02*
X-9307D01*
X-9817Y-14471D02*
X-9307D01*
X-9817Y-15653D02*
X-9307D01*
X-9817Y-16834D02*
X-9307D01*
X-9817Y-18015D02*
X-9307D01*
X-9817Y-19196D02*
X-9307D01*
X-9817Y-20377D02*
X-9307D01*
X-9817Y-21558D02*
X-9307D01*
X-9817Y-22739D02*
X-9307D01*
X-10407Y-23338D02*
Y-23330D01*
Y-26283D02*
Y-25683D01*
Y-26873D02*
Y-26283D01*
X-11024Y-33983D02*
X-10407Y-33367D01*
X-11024Y-35827D02*
Y-33983D01*
X197Y3563D02*
X2287Y5654D01*
X197Y828D02*
Y3563D01*
X-1025Y-394D02*
X197Y828D01*
X-2756Y-394D02*
X-1025D01*
X-3782Y-1420D02*
X-2756Y-394D01*
X-3782Y-3076D02*
Y-1420D01*
X-6811Y-6106D02*
X-3782Y-3076D01*
X-6811Y-10158D02*
Y-6106D01*
X-7972Y-11319D02*
X-6811Y-10158D01*
X-7972Y-22738D02*
Y-11319D01*
Y-25197D02*
Y-22738D01*
X-9073Y-25692D02*
X-8467D01*
X-9073Y-26873D02*
X-8563D01*
X-9073Y-28054D02*
X-8563D01*
X-9073Y-29235D02*
X-7972D01*
X-7436D01*
X-7972Y-31597D02*
Y-30952D01*
Y-32188D02*
Y-31597D01*
X-9799Y-34014D02*
X-7972Y-32188D01*
X-9799Y-38823D02*
Y-34014D01*
Y-38823D02*
X-9154Y-39469D01*
X-7579D01*
X-6890Y-38780D01*
Y-35928D01*
X941Y2295D02*
X2205Y3559D01*
X941Y-44D02*
Y2295D01*
X-591Y-1575D02*
X941Y-44D01*
X-591Y-7480D02*
Y-1575D01*
X-3888Y-10778D02*
X-591Y-7480D01*
X-6102Y-12992D02*
X-3888Y-10778D01*
X-6102Y-31398D02*
Y-28346D01*
Y-28292D01*
X-6638Y-26575D02*
X-6102D01*
X-5566D01*
X-6102Y-25394D02*
X-5566D01*
X-6638D02*
X-6102D01*
X-6638Y-24213D02*
X-6102D01*
X-5566D01*
X-6102Y-23031D02*
X-5566D01*
X-6638D02*
X-6102D01*
X-6638Y-21850D02*
X-6102D01*
X-5398D01*
X-6102Y-20669D02*
X-5398D01*
X-6638D02*
X-6102D01*
X-6638Y-19488D02*
X-6102D01*
X-5398D01*
X-6102Y-18307D02*
X-5398D01*
X-6638D02*
X-6102D01*
X-6638Y-17126D02*
X-6102D01*
X-5398D01*
X-6102Y-15945D02*
X-5398D01*
X-6638D02*
X-6102D01*
Y-14228D02*
Y-13583D01*
Y-12992D01*
Y-32677D02*
Y-31398D01*
X-8661Y-35236D02*
X-6102Y-32677D01*
X-8661Y-37402D02*
Y-35236D01*
X-4232Y-13386D02*
Y-12894D01*
Y-36909D02*
Y-23327D01*
Y-22835D01*
X-3642Y-22244D02*
X-2756D01*
X-3642Y-21063D02*
X-2756D01*
X-3642Y-19882D02*
X-2756D01*
X-3642Y-18701D02*
X-2756D01*
X-3642Y-17520D02*
X-2756D01*
X-3642Y-16339D02*
X-2756D01*
X-3642Y-15157D02*
X-2756D01*
X-3642Y-13976D02*
X-2756D01*
X-4921Y-37598D02*
X-4232Y-36909D01*
X153Y-2591D02*
X2213Y-532D01*
X153Y-8508D02*
Y-2591D01*
X98Y-8563D02*
X153Y-8508D01*
X-56Y-8718D02*
X98Y-8563D01*
X-56Y-9553D02*
X1416Y-11025D01*
X-1309Y-9971D02*
X581Y-11860D01*
X-2144Y-10086D02*
X-2029Y-9971D01*
X-2144Y-10806D02*
X-228Y-12722D01*
X-2562Y-12059D02*
X-1063Y-13557D01*
X-3815Y-12476D02*
X-3397Y-12059D01*
X-4232Y-12894D02*
X-3815Y-12476D01*
X6102Y-23622D02*
X21576D01*
X22265Y-22933D01*
X22638D01*
X-14863Y-37402D02*
Y-35927D01*
X-20582Y-36704D02*
Y-11951D01*
X-11895Y-3264D01*
X-6804Y6748D02*
X-2901D01*
X-11895Y1657D02*
X-6804Y6748D01*
X-11895Y-3264D02*
Y1657D01*
X-16000Y-38539D02*
X-14863Y-37402D01*
X-18747Y-38539D02*
X-16000D01*
X-20582Y-36704D02*
X-18747Y-38539D01*
X240Y5635D02*
Y5654D01*
X-5330Y2614D02*
X-5330Y2614D01*
X-2800D01*
X-1807Y3606D01*
X-2901Y6748D02*
X-1807Y5654D01*
D42*
X6102Y-23622D02*
D03*
X22638Y-22933D02*
D03*
D43*
X-14863Y-35927D02*
D03*
X-984Y-35928D02*
D03*
X-4921Y-37598D02*
D03*
X-11024Y-35827D02*
D03*
X-8661Y-37402D02*
D03*
X-16732D02*
D03*
X-18701Y-35925D02*
D03*
X-12795Y-37402D02*
D03*
X-6890Y-35928D02*
D03*
X2205Y3559D02*
D03*
X-5801Y3751D02*
D03*
X-1807Y3606D02*
D03*
X-3937Y5610D02*
D03*
X2287Y5654D02*
D03*
X240D02*
D03*
X2213Y-532D02*
D03*
X-1807Y5654D02*
D03*
X6330Y-2598D02*
D03*
M02*
