G04*
G04 #@! TF.GenerationSoftware,Altium Limited,Altium Designer,19.0.11 (319)*
G04*
G04 Layer_Physical_Order=2*
G04 Layer_Color=36540*
%FSLAX25Y25*%
%MOIN*%
G70*
G01*
G75*
%ADD11C,0.00394*%
%ADD12C,0.00787*%
%ADD40C,0.01181*%
%ADD42C,0.01772*%
%ADD43C,0.01181*%
G36*
X52264Y13780D02*
X90551D01*
Y-1398D01*
X90132Y-1546D01*
X90051Y-1561D01*
X89655Y-1297D01*
X89173Y-1201D01*
X88691Y-1297D01*
X88282Y-1570D01*
X88009Y-1978D01*
X87913Y-2461D01*
X88009Y-2943D01*
X88282Y-3352D01*
X88691Y-3625D01*
X89173Y-3721D01*
X89655Y-3625D01*
X90051Y-3360D01*
X90132Y-3376D01*
X90551Y-3523D01*
Y-5019D01*
X96868D01*
X96943Y-5519D01*
X95853Y-5850D01*
X94425Y-6613D01*
X93172Y-7641D01*
X92145Y-8893D01*
X91381Y-10322D01*
X90911Y-11872D01*
X90752Y-13484D01*
X90862Y-14604D01*
X90891Y-14896D01*
X90396Y-14969D01*
X90337Y-14675D01*
X90064Y-14266D01*
X89655Y-13993D01*
X89173Y-13897D01*
X88691Y-13993D01*
X88282Y-14266D01*
X88009Y-14675D01*
X87913Y-15157D01*
X88009Y-15640D01*
X88282Y-16048D01*
X88691Y-16322D01*
X89173Y-16418D01*
X89655Y-16322D01*
X90064Y-16048D01*
X90337Y-15640D01*
X90433Y-15157D01*
X90911Y-15097D01*
X90994Y-15372D01*
X91381Y-16647D01*
X92145Y-18075D01*
X93172Y-19328D01*
X94425Y-20355D01*
X95853Y-21119D01*
X96943Y-21449D01*
X96868Y-21949D01*
X90820D01*
X90403Y-21511D01*
X90433Y-21358D01*
X90337Y-20876D01*
X90064Y-20467D01*
X89655Y-20194D01*
X89173Y-20098D01*
X88691Y-20194D01*
X88282Y-20467D01*
X88009Y-20876D01*
X87913Y-21358D01*
X88009Y-21840D01*
X88282Y-22249D01*
X88691Y-22522D01*
X89173Y-22618D01*
X89655Y-22522D01*
X90051Y-22258D01*
X90132Y-22273D01*
X90551Y-22420D01*
Y-26497D01*
X90132Y-26644D01*
X90051Y-26659D01*
X89655Y-26395D01*
X89173Y-26299D01*
X88691Y-26395D01*
X88282Y-26668D01*
X88009Y-27077D01*
X87913Y-27559D01*
X88009Y-28041D01*
X88282Y-28450D01*
X88691Y-28723D01*
X89173Y-28819D01*
X89655Y-28723D01*
X90051Y-28459D01*
X90132Y-28474D01*
X90551Y-28621D01*
Y-39370D01*
X36811D01*
Y-62598D01*
X-36811D01*
Y-39370D01*
X-90551D01*
Y-20571D01*
X-96868D01*
X-96943Y-20071D01*
X-95853Y-19741D01*
X-94425Y-18977D01*
X-93172Y-17950D01*
X-92145Y-16697D01*
X-91381Y-15269D01*
X-90911Y-13719D01*
X-90752Y-12106D01*
X-90911Y-10494D01*
X-91381Y-8944D01*
X-92145Y-7515D01*
X-93172Y-6263D01*
X-94425Y-5235D01*
X-95853Y-4471D01*
X-96943Y-4141D01*
X-96868Y-3641D01*
X-90551D01*
Y13780D01*
X-51673D01*
Y39370D01*
X52264D01*
Y13780D01*
D02*
G37*
%LPC*%
G36*
X44783Y37185D02*
X44301Y37089D01*
X43892Y36816D01*
X43619Y36407D01*
X43523Y35925D01*
X43619Y35443D01*
X43892Y35034D01*
X44301Y34761D01*
X44783Y34665D01*
X45266Y34761D01*
X45674Y35034D01*
X45948Y35443D01*
X46044Y35925D01*
X45948Y36407D01*
X45674Y36816D01*
X45266Y37089D01*
X44783Y37185D01*
D02*
G37*
G36*
X-44587Y37087D02*
X-45069Y36991D01*
X-45478Y36718D01*
X-45751Y36309D01*
X-45847Y35827D01*
X-45751Y35345D01*
X-45478Y34936D01*
X-45069Y34663D01*
X-44587Y34567D01*
X-44104Y34663D01*
X-43696Y34936D01*
X-43422Y35345D01*
X-43327Y35827D01*
X-43422Y36309D01*
X-43696Y36718D01*
X-44104Y36991D01*
X-44587Y37087D01*
D02*
G37*
G36*
X-20472Y33937D02*
X-20955Y33841D01*
X-21363Y33568D01*
X-21637Y33159D01*
X-21733Y32677D01*
X-21637Y32195D01*
X-21363Y31786D01*
X-20955Y31513D01*
X-20472Y31417D01*
X-19990Y31513D01*
X-19581Y31786D01*
X-19308Y32195D01*
X-19212Y32677D01*
X-19308Y33159D01*
X-19581Y33568D01*
X-19990Y33841D01*
X-20472Y33937D01*
D02*
G37*
G36*
X38287Y29311D02*
X37805Y29215D01*
X37396Y28942D01*
X37123Y28533D01*
X37027Y28051D01*
X37123Y27569D01*
X37396Y27160D01*
X37805Y26887D01*
X38287Y26791D01*
X38770Y26887D01*
X39178Y27160D01*
X39452Y27569D01*
X39547Y28051D01*
X39452Y28533D01*
X39178Y28942D01*
X38770Y29215D01*
X38287Y29311D01*
D02*
G37*
G36*
X-30512D02*
X-30994Y29215D01*
X-31403Y28942D01*
X-31676Y28533D01*
X-31772Y28051D01*
X-31676Y27569D01*
X-31403Y27160D01*
X-30994Y26887D01*
X-30512Y26791D01*
X-30030Y26887D01*
X-29621Y27160D01*
X-29348Y27569D01*
X-29252Y28051D01*
X-29348Y28533D01*
X-29621Y28942D01*
X-30030Y29215D01*
X-30512Y29311D01*
D02*
G37*
G36*
X-20768Y28321D02*
X-21135Y28248D01*
X-21446Y28040D01*
X-21654Y27729D01*
X-21727Y27362D01*
X-21654Y26995D01*
X-21446Y26684D01*
X-21135Y26476D01*
X-20768Y26403D01*
X-20401Y26476D01*
X-20090Y26684D01*
X-19882Y26995D01*
X-19809Y27362D01*
X-19882Y27729D01*
X-20090Y28040D01*
X-20401Y28248D01*
X-20768Y28321D01*
D02*
G37*
G36*
X6890Y26254D02*
X6523Y26181D01*
X6212Y25973D01*
X6004Y25662D01*
X5931Y25295D01*
X6004Y24928D01*
X6212Y24617D01*
X6523Y24409D01*
X6890Y24336D01*
X7257Y24409D01*
X7568Y24617D01*
X7776Y24928D01*
X7849Y25295D01*
X7776Y25662D01*
X7568Y25973D01*
X7257Y26181D01*
X6890Y26254D01*
D02*
G37*
G36*
X-11712Y25861D02*
X-12079Y25788D01*
X-12391Y25580D01*
X-12598Y25269D01*
X-12672Y24902D01*
X-12598Y24535D01*
X-12391Y24224D01*
X-12079Y24016D01*
X-11712Y23943D01*
X-11346Y24016D01*
X-11034Y24224D01*
X-10827Y24535D01*
X-10754Y24902D01*
X-10827Y25269D01*
X-11034Y25580D01*
X-11346Y25788D01*
X-11712Y25861D01*
D02*
G37*
G36*
X-5512Y25762D02*
X-5879Y25689D01*
X-6190Y25481D01*
X-6398Y25170D01*
X-6471Y24803D01*
X-6398Y24436D01*
X-6190Y24125D01*
X-5879Y23917D01*
X-5512Y23844D01*
X-5145Y23917D01*
X-4834Y24125D01*
X-4626Y24436D01*
X-4553Y24803D01*
X-4626Y25170D01*
X-4834Y25481D01*
X-5145Y25689D01*
X-5512Y25762D01*
D02*
G37*
G36*
X-2067Y25467D02*
X-2434Y25394D01*
X-2745Y25186D01*
X-2953Y24875D01*
X-3026Y24508D01*
X-2953Y24141D01*
X-2745Y23830D01*
X-2434Y23622D01*
X-2067Y23549D01*
X-1700Y23622D01*
X-1389Y23830D01*
X-1181Y24141D01*
X-1108Y24508D01*
X-1181Y24875D01*
X-1389Y25186D01*
X-1700Y25394D01*
X-2067Y25467D01*
D02*
G37*
G36*
X-44980Y25768D02*
X-45463Y25672D01*
X-45871Y25399D01*
X-46144Y24990D01*
X-46240Y24508D01*
X-46144Y24026D01*
X-45871Y23617D01*
X-45463Y23344D01*
X-44980Y23248D01*
X-44498Y23344D01*
X-44089Y23617D01*
X-43816Y24026D01*
X-43720Y24508D01*
X-43816Y24990D01*
X-44089Y25399D01*
X-44498Y25672D01*
X-44980Y25768D01*
D02*
G37*
G36*
X44882Y14941D02*
X44400Y14845D01*
X43991Y14572D01*
X43718Y14163D01*
X43622Y13681D01*
X43718Y13199D01*
X43991Y12790D01*
X44400Y12517D01*
X44882Y12421D01*
X45364Y12517D01*
X45773Y12790D01*
X46046Y13199D01*
X46142Y13681D01*
X46046Y14163D01*
X45773Y14572D01*
X45364Y14845D01*
X44882Y14941D01*
D02*
G37*
G36*
X-35728Y13164D02*
X-36095Y13091D01*
X-36406Y12883D01*
X-36614Y12572D01*
X-36687Y12205D01*
X-36614Y11838D01*
X-36406Y11527D01*
X-36095Y11319D01*
X-35728Y11246D01*
X-35361Y11319D01*
X-35050Y11527D01*
X-34842Y11838D01*
X-34769Y12205D01*
X-34842Y12572D01*
X-35050Y12883D01*
X-35361Y13091D01*
X-35728Y13164D01*
D02*
G37*
G36*
X34646Y13065D02*
X34279Y12992D01*
X33968Y12784D01*
X33760Y12473D01*
X33687Y12106D01*
X33760Y11739D01*
X33968Y11428D01*
X34279Y11220D01*
X34646Y11147D01*
X35013Y11220D01*
X35324Y11428D01*
X35532Y11739D01*
X35605Y12106D01*
X35532Y12473D01*
X35324Y12784D01*
X35013Y12992D01*
X34646Y13065D01*
D02*
G37*
G36*
X4528Y25073D02*
X4161Y25000D01*
X3850Y24792D01*
X3642Y24481D01*
X3569Y24114D01*
X3642Y23747D01*
X3805Y23502D01*
X3730Y23229D01*
X3599Y23002D01*
X-15928D01*
X-16218Y22945D01*
X-16464Y22780D01*
X-26324Y12921D01*
X-26488Y12675D01*
X-26546Y12385D01*
Y-1870D01*
X-26488Y-2160D01*
X-26324Y-2406D01*
X-25934Y-2796D01*
X-25965Y-2953D01*
X-25869Y-3435D01*
X-25596Y-3844D01*
X-25187Y-4117D01*
X-24705Y-4213D01*
X-24223Y-4117D01*
X-23814Y-3844D01*
X-23541Y-3435D01*
X-23445Y-2953D01*
X-23541Y-2471D01*
X-23814Y-2062D01*
X-24223Y-1789D01*
X-24705Y-1693D01*
X-25029Y-1280D01*
Y-585D01*
X-24529Y-433D01*
X-24497Y-481D01*
X-24186Y-689D01*
X-23819Y-762D01*
X-23452Y-689D01*
X-23141Y-481D01*
X-22933Y-170D01*
X-22860Y197D01*
X-22933Y564D01*
X-23141Y875D01*
X-23452Y1083D01*
X-23819Y1156D01*
X-24186Y1083D01*
X-24497Y875D01*
X-24529Y827D01*
X-25029Y979D01*
Y2225D01*
X-24529Y2493D01*
X-24481Y2461D01*
X-24114Y2387D01*
X-23747Y2461D01*
X-23436Y2668D01*
X-23228Y2980D01*
X-23155Y3347D01*
X-23228Y3714D01*
X-23436Y4025D01*
X-23747Y4233D01*
X-24114Y4306D01*
X-24481Y4233D01*
X-24529Y4200D01*
X-25029Y4468D01*
Y8426D01*
X-24529Y8693D01*
X-24481Y8661D01*
X-24114Y8588D01*
X-23747Y8661D01*
X-23436Y8869D01*
X-23228Y9180D01*
X-23155Y9547D01*
X-23228Y9914D01*
X-23436Y10225D01*
X-23747Y10433D01*
X-24114Y10506D01*
X-24481Y10433D01*
X-24529Y10401D01*
X-25029Y10668D01*
Y12071D01*
X-20148Y16951D01*
X-19686Y16760D01*
Y13826D01*
X-19773Y13769D01*
X-19981Y13457D01*
X-20053Y13091D01*
X-19981Y12724D01*
X-19773Y12412D01*
X-19686Y12355D01*
Y804D01*
X-19587Y563D01*
X-19660Y197D01*
X-19587Y-170D01*
X-19379Y-481D01*
X-19068Y-689D01*
X-18701Y-762D01*
X-18334Y-689D01*
X-18023Y-481D01*
X-17815Y-170D01*
X-17802Y-105D01*
X-17761Y-84D01*
X-14418D01*
X-13991Y-500D01*
X-13918Y-867D01*
X-13710Y-1178D01*
X-13399Y-1386D01*
X-13032Y-1459D01*
X-12665Y-1386D01*
X-12354Y-1178D01*
X-12214Y-968D01*
X-11714Y-1061D01*
Y-2362D01*
X-11541Y-2781D01*
X-9966Y-4356D01*
X-9547Y-4529D01*
X-5217D01*
X-4798Y-4356D01*
X-3226Y-2784D01*
X-2716Y-2897D01*
X-2671Y-2936D01*
X-2485Y-3213D01*
X-2174Y-3421D01*
X-1807Y-3494D01*
X-1440Y-3421D01*
X-1129Y-3213D01*
X-921Y-2902D01*
X-848Y-2535D01*
X-921Y-2168D01*
X-1129Y-1857D01*
X-1407Y-1672D01*
X-1445Y-1626D01*
X-1558Y-1116D01*
X-1314Y-871D01*
X-1140Y-453D01*
Y823D01*
X-1054Y881D01*
X-846Y1192D01*
X-773Y1559D01*
X-846Y1926D01*
X-1054Y2237D01*
X-1159Y2307D01*
X-1197Y2876D01*
X-1193Y2885D01*
X-1129Y2928D01*
X-921Y3239D01*
X-848Y3606D01*
X-921Y3973D01*
X-1129Y4284D01*
X-1214Y4341D01*
Y4918D01*
X-1129Y4975D01*
X-1072Y5061D01*
X-495D01*
X-438Y4975D01*
X-127Y4768D01*
X240Y4695D01*
X607Y4768D01*
X918Y4975D01*
X1423Y4946D01*
X1562Y4790D01*
X1527Y4237D01*
X1319Y3926D01*
X1246Y3559D01*
X1319Y3192D01*
X1527Y2881D01*
X1608Y2827D01*
Y2248D01*
X1527Y2194D01*
X1319Y1883D01*
X1246Y1516D01*
X1319Y1149D01*
X1527Y838D01*
X1614Y779D01*
X1618Y203D01*
X1534Y147D01*
X1327Y-164D01*
X1254Y-532D01*
X1327Y-898D01*
X1534Y-1210D01*
X1618Y-1266D01*
X1614Y-1842D01*
X1527Y-1901D01*
X1319Y-2212D01*
X1246Y-2579D01*
X1319Y-2946D01*
X1527Y-3257D01*
X1612Y-3314D01*
Y-3891D01*
X1527Y-3948D01*
X1319Y-4259D01*
X1246Y-4626D01*
X1319Y-4993D01*
X1527Y-5304D01*
X1612Y-5361D01*
Y-5938D01*
X1527Y-5995D01*
X1319Y-6306D01*
X1246Y-6673D01*
X1319Y-7040D01*
X1527Y-7351D01*
X1838Y-7559D01*
X2205Y-7632D01*
X2572Y-7559D01*
X2883Y-7351D01*
X2940Y-7266D01*
X3517D01*
X3574Y-7351D01*
X3885Y-7559D01*
X4252Y-7632D01*
X4619Y-7559D01*
X4930Y-7351D01*
X5138Y-7040D01*
X5211Y-6673D01*
X5138Y-6306D01*
X4930Y-5995D01*
X4845Y-5938D01*
Y-5361D01*
X4930Y-5304D01*
X5138Y-4993D01*
X5211Y-4626D01*
X5138Y-4259D01*
X4930Y-3948D01*
X4619Y-3740D01*
X4252Y-3667D01*
X3885Y-3740D01*
X3574Y-3948D01*
X3078Y-3873D01*
X2958Y-3753D01*
X2883Y-3257D01*
X3091Y-2946D01*
X3164Y-2579D01*
X3091Y-2212D01*
X2883Y-1901D01*
X2799Y-1845D01*
X2803Y-1268D01*
X2891Y-1210D01*
X3099Y-898D01*
X3172Y-532D01*
X3099Y-164D01*
X2891Y147D01*
X2964Y644D01*
X3078Y759D01*
X3574Y838D01*
X3885Y630D01*
X4252Y557D01*
X4619Y630D01*
X4930Y838D01*
X5138Y1149D01*
X5211Y1516D01*
X5138Y1883D01*
X4930Y2194D01*
X4619Y2402D01*
X4252Y2475D01*
X3885Y2402D01*
X3574Y2194D01*
X3079Y2274D01*
X2965Y2388D01*
X2883Y2881D01*
X3091Y3192D01*
X3164Y3559D01*
X3091Y3926D01*
X2883Y4237D01*
X2787Y4301D01*
X2767Y4374D01*
X2807Y4869D01*
X2966Y4975D01*
X3173Y5287D01*
X3246Y5654D01*
X3173Y6021D01*
X2966Y6332D01*
X2654Y6539D01*
X2287Y6612D01*
X1920Y6539D01*
X1609Y6332D01*
X1552Y6246D01*
X975D01*
X918Y6332D01*
X607Y6539D01*
X240Y6612D01*
X-127Y6539D01*
X-438Y6332D01*
X-495Y6246D01*
X-1072D01*
X-1129Y6332D01*
X-1440Y6539D01*
X-1807Y6612D01*
X-2174Y6539D01*
X-2485Y6332D01*
X-2609Y6147D01*
X-2625Y6140D01*
X-3068Y6121D01*
X-3164Y6147D01*
X-3259Y6288D01*
X-3570Y6496D01*
X-3937Y6569D01*
X-4304Y6496D01*
X-4615Y6288D01*
X-4823Y5977D01*
X-4896Y5610D01*
X-4823Y5243D01*
X-4615Y4932D01*
X-4752Y4644D01*
X-5123Y4429D01*
X-5434Y4637D01*
X-5801Y4710D01*
X-6168Y4637D01*
X-6480Y4429D01*
X-6687Y4118D01*
X-6760Y3751D01*
X-6687Y3384D01*
X-6480Y3073D01*
X-6200Y2887D01*
X-6184Y2753D01*
X-6238Y2369D01*
X-6273Y2362D01*
X-6584Y2155D01*
X-6792Y1843D01*
X-6865Y1476D01*
X-6792Y1109D01*
X-6584Y798D01*
X-6576Y793D01*
Y192D01*
X-6580Y190D01*
X-6637Y105D01*
X-7214D01*
X-7271Y190D01*
X-7582Y398D01*
X-7949Y471D01*
X-8316Y398D01*
X-8627Y190D01*
X-8835Y-121D01*
X-8908Y-488D01*
X-8835Y-855D01*
X-8627Y-1166D01*
X-8555Y-1214D01*
X-8548Y-1317D01*
X-8519Y-1791D01*
X-8525Y-1803D01*
X-8724Y-2101D01*
X-8749Y-2230D01*
X-8797Y-2468D01*
X-8748Y-2711D01*
X-9046Y-3159D01*
X-9058Y-3172D01*
X-9435Y-3212D01*
X-10530Y-2117D01*
Y3398D01*
X-10444Y3456D01*
X-10236Y3767D01*
X-10163Y4134D01*
X-10236Y4501D01*
X-10444Y4812D01*
X-10755Y5020D01*
X-11122Y5093D01*
X-11424Y5033D01*
X-11580Y5085D01*
X-11924Y5330D01*
Y12023D01*
X-488D01*
X-380Y11870D01*
X-267Y11523D01*
X-475Y11210D01*
X-571Y10728D01*
X-475Y10246D01*
X-202Y9837D01*
X207Y9564D01*
X689Y9468D01*
X1171Y9564D01*
X1580Y9837D01*
X1669Y9970D01*
X7954D01*
X11468Y6456D01*
X11437Y6299D01*
X11533Y5817D01*
X11806Y5408D01*
X12215Y5135D01*
X12697Y5039D01*
X13097Y5119D01*
X13386Y4976D01*
X13598Y4813D01*
X13598Y-21571D01*
X6591Y-21571D01*
X6473Y-21620D01*
X6351Y-21657D01*
X6322Y-21658D01*
X5854Y-21657D01*
X5613Y-21571D01*
X5373Y-21571D01*
X-27362Y-21571D01*
X-27630Y-21682D01*
X-27741Y-21949D01*
X-27741Y-25098D01*
X-27630Y-25366D01*
X-27362Y-25477D01*
X-20151D01*
X-20098Y-25455D01*
X-20041Y-25461D01*
X-19969Y-25402D01*
X-19883Y-25366D01*
X-19861Y-25313D01*
X-19816Y-25277D01*
X-19550Y-24777D01*
X-19537Y-24650D01*
X-19512Y-24524D01*
X-19575Y-24213D01*
X-19508Y-23878D01*
X-19319Y-23595D01*
X-19035Y-23405D01*
X-18701Y-23339D01*
X-18366Y-23405D01*
X-18083Y-23595D01*
X-17894Y-23878D01*
X-17827Y-24213D01*
X-17889Y-24524D01*
X-17864Y-24650D01*
X-17852Y-24777D01*
X-17585Y-25277D01*
X-17541Y-25313D01*
X-17519Y-25366D01*
X-17433Y-25402D01*
X-17361Y-25461D01*
X-17304Y-25455D01*
X-17251Y-25477D01*
X-7859D01*
Y-31201D01*
X-7748Y-31469D01*
X-7480Y-31580D01*
X19488D01*
X19756Y-31469D01*
X19867Y-31201D01*
X19867Y-29088D01*
X19844Y-29032D01*
X19849Y-28972D01*
X19791Y-28903D01*
X19756Y-28820D01*
X19722Y-28806D01*
X19694Y-28790D01*
X19661Y-28751D01*
X19582Y-28710D01*
X19471Y-28282D01*
X19567Y-27800D01*
X19471Y-27318D01*
X19582Y-26889D01*
X19661Y-26848D01*
X19694Y-26809D01*
X19722Y-26793D01*
X19756Y-26779D01*
X19791Y-26696D01*
X19849Y-26627D01*
X19844Y-26567D01*
X19867Y-26511D01*
X19867Y-19291D01*
X19867Y-10447D01*
X19838Y-10377D01*
Y-10302D01*
X19785Y-10249D01*
X19756Y-10179D01*
X19680Y-9950D01*
X19670Y-9612D01*
X19710Y-9572D01*
X19883Y-9154D01*
Y6056D01*
X19969Y6113D01*
X20177Y6424D01*
X20250Y6791D01*
X20177Y7158D01*
X19969Y7469D01*
X19883Y7527D01*
Y12221D01*
X19961Y12299D01*
X20135Y12718D01*
Y18323D01*
X20597Y18515D01*
X25620Y13492D01*
Y10675D01*
X25396Y10545D01*
X25120Y10468D01*
X24876Y10631D01*
X24509Y10704D01*
X24142Y10631D01*
X23831Y10423D01*
X23623Y10112D01*
X23550Y9745D01*
X23623Y9378D01*
X23831Y9066D01*
X24142Y8859D01*
X24509Y8786D01*
X24876Y8859D01*
X25120Y9021D01*
X25396Y8945D01*
X25620Y8814D01*
Y4456D01*
X25618Y4454D01*
X25120Y4234D01*
X24974Y4331D01*
X24608Y4404D01*
X24240Y4331D01*
X23929Y4123D01*
X23721Y3812D01*
X23649Y3445D01*
X23721Y3078D01*
X23929Y2767D01*
X24240Y2559D01*
X24608Y2486D01*
X24974Y2559D01*
X25120Y2656D01*
X25618Y2437D01*
X25620Y2435D01*
Y-1391D01*
X25492Y-1496D01*
X25010Y-1592D01*
X24601Y-1865D01*
X24328Y-2274D01*
X24232Y-2756D01*
X24328Y-3238D01*
X24601Y-3647D01*
X25010Y-3920D01*
X25492Y-4016D01*
X25649Y-3985D01*
X29582Y-7918D01*
X29828Y-8082D01*
X30118Y-8140D01*
X50000D01*
X50290Y-8082D01*
X50536Y-7918D01*
X60375Y1921D01*
X60532Y1890D01*
X61014Y1986D01*
X61422Y2259D01*
X61696Y2667D01*
X61791Y3150D01*
X61696Y3632D01*
X61422Y4041D01*
X61014Y4314D01*
X60532Y4410D01*
X60049Y4314D01*
X59641Y4041D01*
X59367Y3632D01*
X59272Y3150D01*
X59303Y2993D01*
X49686Y-6624D01*
X30432D01*
X26721Y-2912D01*
X26752Y-2756D01*
X26721Y-2599D01*
X26914Y-2406D01*
X27079Y-2160D01*
X27136Y-1870D01*
Y13806D01*
X27079Y14096D01*
X26914Y14342D01*
X18476Y22780D01*
X18230Y22945D01*
X17940Y23002D01*
X5457D01*
X5325Y23229D01*
X5250Y23502D01*
X5413Y23747D01*
X5486Y24114D01*
X5413Y24481D01*
X5206Y24792D01*
X4895Y25000D01*
X4528Y25073D01*
D02*
G37*
G36*
X-86319Y12579D02*
X-86801Y12483D01*
X-87210Y12210D01*
X-87483Y11801D01*
X-87579Y11319D01*
X-87483Y10837D01*
X-87210Y10428D01*
X-86801Y10155D01*
X-86319Y10059D01*
X-85837Y10155D01*
X-85428Y10428D01*
X-85155Y10837D01*
X-85059Y11319D01*
X-85155Y11801D01*
X-85428Y12210D01*
X-85837Y12483D01*
X-86319Y12579D01*
D02*
G37*
G36*
X56102Y7362D02*
X55620Y7266D01*
X55211Y6993D01*
X54938Y6585D01*
X54842Y6102D01*
X54938Y5620D01*
X55211Y5211D01*
X55620Y4938D01*
X56102Y4842D01*
X56585Y4938D01*
X56993Y5211D01*
X57266Y5620D01*
X57362Y6102D01*
X57266Y6585D01*
X56993Y6993D01*
X56585Y7266D01*
X56102Y7362D01*
D02*
G37*
G36*
X84153Y7264D02*
X83671Y7168D01*
X83263Y6895D01*
X82989Y6486D01*
X82894Y6004D01*
X82989Y5522D01*
X83263Y5113D01*
X83671Y4840D01*
X84153Y4744D01*
X84636Y4840D01*
X85044Y5113D01*
X85318Y5522D01*
X85414Y6004D01*
X85318Y6486D01*
X85044Y6895D01*
X84636Y7168D01*
X84153Y7264D01*
D02*
G37*
G36*
X78051Y7165D02*
X77569Y7070D01*
X77160Y6797D01*
X76887Y6388D01*
X76791Y5906D01*
X76887Y5423D01*
X77160Y5015D01*
X77569Y4741D01*
X78051Y4645D01*
X78533Y4741D01*
X78942Y5015D01*
X79215Y5423D01*
X79311Y5906D01*
X79215Y6388D01*
X78942Y6797D01*
X78533Y7070D01*
X78051Y7165D01*
D02*
G37*
G36*
X8390Y6487D02*
X8023Y6414D01*
X7712Y6206D01*
X7504Y5895D01*
X7431Y5528D01*
X7504Y5161D01*
X7712Y4849D01*
X8023Y4642D01*
X8390Y4569D01*
X8757Y4642D01*
X9068Y4849D01*
X9276Y5161D01*
X9349Y5528D01*
X9276Y5895D01*
X9068Y6206D01*
X8757Y6414D01*
X8390Y6487D01*
D02*
G37*
G36*
X-84055Y5683D02*
X-84422Y5610D01*
X-84733Y5403D01*
X-84941Y5091D01*
X-85014Y4724D01*
X-84941Y4357D01*
X-84733Y4046D01*
X-84422Y3838D01*
X-84055Y3765D01*
X-83688Y3838D01*
X-83377Y4046D01*
X-83169Y4357D01*
X-83096Y4724D01*
X-83169Y5091D01*
X-83377Y5403D01*
X-83688Y5610D01*
X-84055Y5683D01*
D02*
G37*
G36*
X6342Y4439D02*
X5976Y4366D01*
X5664Y4158D01*
X5457Y3847D01*
X5384Y3480D01*
X5457Y3113D01*
X5664Y2802D01*
X5976Y2594D01*
X6342Y2521D01*
X6709Y2594D01*
X7021Y2802D01*
X7228Y3113D01*
X7301Y3480D01*
X7228Y3847D01*
X7021Y4158D01*
X6709Y4366D01*
X6342Y4439D01*
D02*
G37*
G36*
X-60335Y5000D02*
X-60817Y4904D01*
X-61226Y4631D01*
X-61499Y4222D01*
X-61595Y3740D01*
X-61499Y3258D01*
X-61226Y2849D01*
X-60817Y2576D01*
X-60335Y2480D01*
X-59852Y2576D01*
X-59444Y2849D01*
X-59171Y3258D01*
X-59075Y3740D01*
X-59171Y4222D01*
X-59444Y4631D01*
X-59852Y4904D01*
X-60335Y5000D01*
D02*
G37*
G36*
X83366Y4213D02*
X82884Y4117D01*
X82475Y3844D01*
X82202Y3435D01*
X82106Y2953D01*
X82202Y2471D01*
X82475Y2062D01*
X82884Y1789D01*
X83366Y1693D01*
X83848Y1789D01*
X84257Y2062D01*
X84530Y2471D01*
X84626Y2953D01*
X84530Y3435D01*
X84257Y3844D01*
X83848Y4117D01*
X83366Y4213D01*
D02*
G37*
G36*
X-83465Y2540D02*
X-83947Y2444D01*
X-84356Y2170D01*
X-84629Y1762D01*
X-84725Y1280D01*
X-84629Y797D01*
X-84356Y389D01*
X-83947Y115D01*
X-83465Y20D01*
X-82982Y115D01*
X-82574Y389D01*
X-82301Y797D01*
X-82205Y1280D01*
X-82301Y1762D01*
X-82574Y2170D01*
X-82982Y2444D01*
X-83465Y2540D01*
D02*
G37*
G36*
X-59842Y1654D02*
X-60325Y1558D01*
X-60733Y1285D01*
X-61007Y876D01*
X-61102Y394D01*
X-61007Y-88D01*
X-60733Y-497D01*
X-60325Y-770D01*
X-59842Y-866D01*
X-59360Y-770D01*
X-58951Y-497D01*
X-58678Y-88D01*
X-58583Y394D01*
X-58678Y876D01*
X-58951Y1285D01*
X-59360Y1558D01*
X-59842Y1654D01*
D02*
G37*
G36*
X10630Y959D02*
X10263Y886D01*
X9952Y678D01*
X9744Y367D01*
X9671Y0D01*
X9744Y-367D01*
X9952Y-678D01*
X10263Y-886D01*
X10630Y-959D01*
X10997Y-886D01*
X11308Y-678D01*
X11516Y-367D01*
X11589Y0D01*
X11516Y367D01*
X11308Y678D01*
X10997Y886D01*
X10630Y959D01*
D02*
G37*
G36*
X6330Y-1639D02*
X5963Y-1712D01*
X5652Y-1920D01*
X5444Y-2231D01*
X5371Y-2598D01*
X5444Y-2965D01*
X5652Y-3277D01*
X5963Y-3484D01*
X6330Y-3557D01*
X6697Y-3484D01*
X7008Y-3277D01*
X7018Y-3262D01*
X7076Y-3245D01*
X7596Y-3297D01*
X7688Y-3434D01*
X7999Y-3642D01*
X8366Y-3715D01*
X8733Y-3642D01*
X9044Y-3434D01*
X9252Y-3123D01*
X9325Y-2756D01*
X9252Y-2389D01*
X9044Y-2078D01*
X8733Y-1870D01*
X8366Y-1797D01*
X7999Y-1870D01*
X7688Y-2078D01*
X7679Y-2092D01*
X7620Y-2110D01*
X7100Y-2058D01*
X7008Y-1920D01*
X6697Y-1712D01*
X6330Y-1639D01*
D02*
G37*
G36*
X39664Y10626D02*
X38052Y10467D01*
X36502Y9997D01*
X35073Y9233D01*
X33821Y8206D01*
X32793Y6953D01*
X32030Y5525D01*
X31559Y3974D01*
X31400Y2362D01*
X31559Y750D01*
X32030Y-800D01*
X32793Y-2229D01*
X33821Y-3481D01*
X35073Y-4509D01*
X36502Y-5272D01*
X38052Y-5743D01*
X39664Y-5902D01*
X41276Y-5743D01*
X42827Y-5272D01*
X44255Y-4509D01*
X45508Y-3481D01*
X46535Y-2229D01*
X47299Y-800D01*
X47769Y750D01*
X47928Y2362D01*
X47769Y3974D01*
X47299Y5525D01*
X46535Y6953D01*
X45508Y8206D01*
X44255Y9233D01*
X42827Y9997D01*
X41276Y10467D01*
X39664Y10626D01*
D02*
G37*
G36*
X-39076D02*
X-40688Y10467D01*
X-42238Y9997D01*
X-43667Y9233D01*
X-44919Y8206D01*
X-45947Y6953D01*
X-46711Y5525D01*
X-47181Y3974D01*
X-47340Y2362D01*
X-47181Y750D01*
X-46711Y-800D01*
X-45947Y-2229D01*
X-44919Y-3481D01*
X-43667Y-4509D01*
X-42238Y-5272D01*
X-40688Y-5743D01*
X-39076Y-5902D01*
X-37464Y-5743D01*
X-35914Y-5272D01*
X-34485Y-4509D01*
X-33233Y-3481D01*
X-32205Y-2229D01*
X-31441Y-800D01*
X-30971Y750D01*
X-30812Y2362D01*
X-30971Y3974D01*
X-31441Y5525D01*
X-32205Y6953D01*
X-33233Y8206D01*
X-34485Y9233D01*
X-35914Y9997D01*
X-37464Y10467D01*
X-39076Y10626D01*
D02*
G37*
G36*
X60138Y-3661D02*
X59656Y-3757D01*
X59247Y-4030D01*
X58974Y-4439D01*
X58878Y-4921D01*
X58974Y-5404D01*
X59247Y-5812D01*
X59656Y-6085D01*
X60138Y-6181D01*
X60620Y-6085D01*
X61029Y-5812D01*
X61302Y-5404D01*
X61398Y-4921D01*
X61302Y-4439D01*
X61029Y-4030D01*
X60620Y-3757D01*
X60138Y-3661D01*
D02*
G37*
G36*
X-5610Y-5636D02*
X-5977Y-5709D01*
X-6289Y-5917D01*
X-6497Y-6228D01*
X-6519Y-6338D01*
X-6528Y-6387D01*
X-7038D01*
X-7047Y-6344D01*
X-7063Y-6263D01*
X-7271Y-5952D01*
X-7582Y-5744D01*
X-7949Y-5671D01*
X-8316Y-5744D01*
X-8627Y-5952D01*
X-8835Y-6263D01*
X-8908Y-6630D01*
X-8835Y-6997D01*
X-8627Y-7308D01*
X-8316Y-7516D01*
X-7949Y-7589D01*
X-7582Y-7516D01*
X-7271Y-7308D01*
X-7063Y-6997D01*
X-7041Y-6886D01*
X-7031Y-6837D01*
X-6521D01*
X-6513Y-6881D01*
X-6497Y-6962D01*
X-6289Y-7273D01*
X-5977Y-7481D01*
X-5610Y-7554D01*
X-5243Y-7481D01*
X-4932Y-7273D01*
X-4532Y-7308D01*
X-4221Y-7516D01*
X-3854Y-7589D01*
X-3487Y-7516D01*
X-3176Y-7308D01*
X-3119Y-7223D01*
X-2542D01*
X-2485Y-7308D01*
X-2174Y-7516D01*
X-1807Y-7589D01*
X-1440Y-7516D01*
X-1129Y-7308D01*
X-921Y-6997D01*
X-848Y-6630D01*
X-921Y-6263D01*
X-1129Y-5952D01*
X-1440Y-5744D01*
X-1807Y-5671D01*
X-2174Y-5744D01*
X-2485Y-5952D01*
X-2542Y-6037D01*
X-3119D01*
X-3176Y-5952D01*
X-3487Y-5744D01*
X-3854Y-5671D01*
X-4221Y-5744D01*
X-4532Y-5952D01*
X-4932Y-5917D01*
X-5243Y-5709D01*
X-5610Y-5636D01*
D02*
G37*
G36*
X25000Y-5045D02*
X24633Y-5118D01*
X24322Y-5326D01*
X24114Y-5637D01*
X24041Y-6004D01*
X24114Y-6371D01*
X24322Y-6682D01*
X24633Y-6890D01*
X25000Y-6963D01*
X25367Y-6890D01*
X25678Y-6682D01*
X25886Y-6371D01*
X25959Y-6004D01*
X25886Y-5637D01*
X25678Y-5326D01*
X25367Y-5118D01*
X25000Y-5045D01*
D02*
G37*
G36*
X-23917Y-5242D02*
X-24284Y-5315D01*
X-24595Y-5523D01*
X-24803Y-5834D01*
X-24876Y-6201D01*
X-24803Y-6568D01*
X-24595Y-6879D01*
X-24284Y-7087D01*
X-23917Y-7160D01*
X-23550Y-7087D01*
X-23239Y-6879D01*
X-23031Y-6568D01*
X-22958Y-6201D01*
X-23031Y-5834D01*
X-23239Y-5523D01*
X-23550Y-5315D01*
X-23917Y-5242D01*
D02*
G37*
G36*
X-75394Y-2086D02*
X-75876Y-2182D01*
X-76285Y-2455D01*
X-76558Y-2864D01*
X-76654Y-3347D01*
X-76558Y-3829D01*
X-76285Y-4237D01*
X-76197Y-4296D01*
X-76303Y-4827D01*
X-76368Y-4840D01*
X-76777Y-5113D01*
X-77050Y-5522D01*
X-77146Y-6004D01*
X-77050Y-6486D01*
X-76777Y-6895D01*
X-76368Y-7168D01*
X-75886Y-7264D01*
X-75404Y-7168D01*
X-74995Y-6895D01*
X-74722Y-6486D01*
X-74626Y-6004D01*
X-74722Y-5522D01*
X-74995Y-5113D01*
X-75082Y-5054D01*
X-74977Y-4524D01*
X-74911Y-4511D01*
X-74503Y-4237D01*
X-74230Y-3829D01*
X-74134Y-3347D01*
X-74230Y-2864D01*
X-74503Y-2455D01*
X-74911Y-2182D01*
X-75394Y-2086D01*
D02*
G37*
G36*
X89882Y-6338D02*
X89400Y-6434D01*
X88991Y-6707D01*
X88718Y-7116D01*
X88622Y-7598D01*
X88718Y-8081D01*
X88991Y-8489D01*
X89400Y-8762D01*
X89882Y-8858D01*
X90364Y-8762D01*
X90773Y-8489D01*
X91046Y-8081D01*
X91142Y-7598D01*
X91046Y-7116D01*
X90773Y-6707D01*
X90364Y-6434D01*
X89882Y-6338D01*
D02*
G37*
G36*
X24608Y-7997D02*
X24240Y-8070D01*
X23929Y-8278D01*
X23721Y-8589D01*
X23649Y-8956D01*
X23721Y-9323D01*
X23929Y-9634D01*
X24240Y-9842D01*
X24608Y-9915D01*
X24974Y-9842D01*
X25286Y-9634D01*
X25493Y-9323D01*
X25567Y-8956D01*
X25493Y-8589D01*
X25286Y-8278D01*
X24974Y-8070D01*
X24608Y-7997D01*
D02*
G37*
G36*
X-49311Y-7500D02*
X-49793Y-7596D01*
X-50202Y-7869D01*
X-50475Y-8278D01*
X-50571Y-8760D01*
X-50475Y-9242D01*
X-50202Y-9651D01*
X-49793Y-9924D01*
X-49311Y-10020D01*
X-48829Y-9924D01*
X-48420Y-9651D01*
X-48147Y-9242D01*
X-48051Y-8760D01*
X-48147Y-8278D01*
X-48420Y-7869D01*
X-48829Y-7596D01*
X-49311Y-7500D01*
D02*
G37*
G36*
X-73130D02*
X-73612Y-7596D01*
X-74021Y-7869D01*
X-74294Y-8278D01*
X-74390Y-8760D01*
X-74294Y-9242D01*
X-74021Y-9651D01*
X-73612Y-9924D01*
X-73130Y-10020D01*
X-72648Y-9924D01*
X-72239Y-9651D01*
X-71966Y-9242D01*
X-71870Y-8760D01*
X-71966Y-8278D01*
X-72239Y-7869D01*
X-72648Y-7596D01*
X-73130Y-7500D01*
D02*
G37*
G36*
X-12894Y-8195D02*
X-13261Y-8268D01*
X-13572Y-8475D01*
X-13780Y-8787D01*
X-13853Y-9154D01*
X-13780Y-9521D01*
X-13572Y-9832D01*
X-13261Y-10040D01*
X-12894Y-10113D01*
X-12527Y-10040D01*
X-12216Y-9832D01*
X-12008Y-9521D01*
X-11935Y-9154D01*
X-12008Y-8787D01*
X-12216Y-8475D01*
X-12527Y-8268D01*
X-12894Y-8195D01*
D02*
G37*
G36*
X-23623Y-8195D02*
X-23990Y-8268D01*
X-24301Y-8476D01*
X-24509Y-8787D01*
X-24582Y-9154D01*
X-24509Y-9521D01*
X-24301Y-9832D01*
X-23990Y-10040D01*
X-23623Y-10113D01*
X-23256Y-10040D01*
X-22945Y-9832D01*
X-22737Y-9521D01*
X-22664Y-9154D01*
X-22737Y-8787D01*
X-22945Y-8476D01*
X-23256Y-8268D01*
X-23623Y-8195D01*
D02*
G37*
G36*
X-76673Y-8976D02*
X-77155Y-9072D01*
X-77564Y-9345D01*
X-77837Y-9754D01*
X-77933Y-10236D01*
X-77837Y-10718D01*
X-77564Y-11127D01*
X-77155Y-11400D01*
X-76673Y-11496D01*
X-76191Y-11400D01*
X-75782Y-11127D01*
X-75509Y-10718D01*
X-75413Y-10236D01*
X-75509Y-9754D01*
X-75782Y-9345D01*
X-76191Y-9072D01*
X-76673Y-8976D01*
D02*
G37*
G36*
X65256Y-11535D02*
X64774Y-11631D01*
X64365Y-11904D01*
X64092Y-12313D01*
X63996Y-12795D01*
X64092Y-13277D01*
X64365Y-13686D01*
X64774Y-13959D01*
X65256Y-14055D01*
X65738Y-13959D01*
X66147Y-13686D01*
X66420Y-13277D01*
X66516Y-12795D01*
X66420Y-12313D01*
X66147Y-11904D01*
X65738Y-11631D01*
X65256Y-11535D01*
D02*
G37*
G36*
X-72736Y-13701D02*
X-73218Y-13796D01*
X-73627Y-14070D01*
X-73900Y-14478D01*
X-73996Y-14961D01*
X-73900Y-15443D01*
X-73627Y-15852D01*
X-73218Y-16125D01*
X-72736Y-16221D01*
X-72254Y-16125D01*
X-71845Y-15852D01*
X-71572Y-15443D01*
X-71476Y-14961D01*
X-71572Y-14478D01*
X-71845Y-14070D01*
X-72254Y-13796D01*
X-72736Y-13701D01*
D02*
G37*
G36*
X76575Y-13897D02*
X76093Y-13993D01*
X75684Y-14266D01*
X75411Y-14675D01*
X75315Y-15157D01*
X75411Y-15640D01*
X75684Y-16048D01*
X76093Y-16322D01*
X76575Y-16418D01*
X77057Y-16322D01*
X77466Y-16048D01*
X77739Y-15640D01*
X77835Y-15157D01*
X77739Y-14675D01*
X77466Y-14266D01*
X77057Y-13993D01*
X76575Y-13897D01*
D02*
G37*
G36*
X-56890Y-14685D02*
X-57372Y-14781D01*
X-57781Y-15054D01*
X-58054Y-15463D01*
X-58150Y-15945D01*
X-58054Y-16427D01*
X-57781Y-16836D01*
X-57372Y-17109D01*
X-56890Y-17205D01*
X-56408Y-17109D01*
X-55999Y-16836D01*
X-55726Y-16427D01*
X-55630Y-15945D01*
X-55726Y-15463D01*
X-55999Y-15054D01*
X-56408Y-14781D01*
X-56890Y-14685D01*
D02*
G37*
G36*
X-75492Y-16161D02*
X-75974Y-16257D01*
X-76383Y-16530D01*
X-76656Y-16939D01*
X-76752Y-17421D01*
X-76656Y-17903D01*
X-76383Y-18312D01*
X-75974Y-18585D01*
X-75492Y-18681D01*
X-75010Y-18585D01*
X-74601Y-18312D01*
X-74328Y-17903D01*
X-74232Y-17421D01*
X-74328Y-16939D01*
X-74601Y-16530D01*
X-75010Y-16257D01*
X-75492Y-16161D01*
D02*
G37*
G36*
X69095Y-16338D02*
X68612Y-16434D01*
X68204Y-16707D01*
X67930Y-17116D01*
X67835Y-17598D01*
X67930Y-18081D01*
X68204Y-18489D01*
X68612Y-18763D01*
X69095Y-18858D01*
X69577Y-18763D01*
X69986Y-18489D01*
X70259Y-18081D01*
X70354Y-17598D01*
X70259Y-17116D01*
X69986Y-16707D01*
X69577Y-16434D01*
X69095Y-16338D01*
D02*
G37*
G36*
X-72638Y-17736D02*
X-73120Y-17832D01*
X-73529Y-18105D01*
X-73802Y-18514D01*
X-73898Y-18996D01*
X-73802Y-19478D01*
X-73529Y-19887D01*
X-73120Y-20160D01*
X-72638Y-20256D01*
X-72156Y-20160D01*
X-71747Y-19887D01*
X-71474Y-19478D01*
X-71378Y-18996D01*
X-71474Y-18514D01*
X-71747Y-18105D01*
X-72156Y-17832D01*
X-72638Y-17736D01*
D02*
G37*
G36*
X72736Y-21338D02*
X72254Y-21434D01*
X71845Y-21707D01*
X71572Y-22116D01*
X71476Y-22598D01*
X71572Y-23081D01*
X71845Y-23489D01*
X72254Y-23763D01*
X72736Y-23858D01*
X73218Y-23763D01*
X73627Y-23489D01*
X73900Y-23081D01*
X73996Y-22598D01*
X73900Y-22116D01*
X73627Y-21707D01*
X73218Y-21434D01*
X72736Y-21338D01*
D02*
G37*
G36*
X22638Y-21673D02*
X22156Y-21769D01*
X21747Y-22042D01*
X21474Y-22451D01*
X21378Y-22933D01*
X21474Y-23415D01*
X21747Y-23824D01*
X22156Y-24097D01*
X22638Y-24193D01*
X23120Y-24097D01*
X23529Y-23824D01*
X23802Y-23415D01*
X23898Y-22933D01*
X23802Y-22451D01*
X23529Y-22042D01*
X23120Y-21769D01*
X22638Y-21673D01*
D02*
G37*
G36*
X-76083Y-22008D02*
X-76565Y-22104D01*
X-76974Y-22377D01*
X-77247Y-22785D01*
X-77343Y-23268D01*
X-77247Y-23750D01*
X-76974Y-24159D01*
X-76565Y-24432D01*
X-76083Y-24528D01*
X-75600Y-24432D01*
X-75192Y-24159D01*
X-74919Y-23750D01*
X-74823Y-23268D01*
X-74919Y-22785D01*
X-75192Y-22377D01*
X-75600Y-22104D01*
X-76083Y-22008D01*
D02*
G37*
G36*
X-72736Y-26102D02*
X-73218Y-26198D01*
X-73627Y-26471D01*
X-73900Y-26880D01*
X-73996Y-27362D01*
X-73900Y-27844D01*
X-73627Y-28253D01*
X-73218Y-28526D01*
X-72736Y-28622D01*
X-72254Y-28526D01*
X-71845Y-28253D01*
X-71572Y-27844D01*
X-71476Y-27362D01*
X-71572Y-26880D01*
X-71845Y-26471D01*
X-72254Y-26198D01*
X-72736Y-26102D01*
D02*
G37*
G36*
X29331Y-26693D02*
X28848Y-26789D01*
X28440Y-27062D01*
X28167Y-27471D01*
X28071Y-27953D01*
X28167Y-28435D01*
X28440Y-28844D01*
X28848Y-29117D01*
X29331Y-29213D01*
X29813Y-29117D01*
X30222Y-28844D01*
X30495Y-28435D01*
X30591Y-27953D01*
X30495Y-27471D01*
X30222Y-27062D01*
X29813Y-26789D01*
X29331Y-26693D01*
D02*
G37*
G36*
X-89075Y-4350D02*
X-89557Y-4446D01*
X-89966Y-4719D01*
X-90239Y-5128D01*
X-90335Y-5610D01*
X-90239Y-6092D01*
X-89966Y-6501D01*
X-89557Y-6774D01*
X-89195Y-6846D01*
X-84670Y-11372D01*
Y-24656D01*
X-84597Y-25023D01*
X-84389Y-25334D01*
X-74497Y-35225D01*
X-74186Y-35433D01*
X-73819Y-35506D01*
X-25592D01*
X-25285Y-35711D01*
X-24803Y-35807D01*
X-24321Y-35711D01*
X-23912Y-35438D01*
X-23639Y-35029D01*
X-23543Y-34547D01*
X-23639Y-34065D01*
X-23912Y-33656D01*
X-24321Y-33383D01*
X-24803Y-33287D01*
X-25285Y-33383D01*
X-25592Y-33588D01*
X-73422D01*
X-82752Y-24258D01*
Y-10974D01*
X-82825Y-10607D01*
X-83033Y-10296D01*
X-87839Y-5490D01*
X-87911Y-5128D01*
X-88184Y-4719D01*
X-88593Y-4446D01*
X-89075Y-4350D01*
D02*
G37*
G36*
X-11024Y-34868D02*
X-11391Y-34941D01*
X-11702Y-35149D01*
X-11910Y-35460D01*
X-11983Y-35827D01*
X-11929Y-36097D01*
X-11910Y-36194D01*
X-11906Y-36242D01*
X-11908Y-36266D01*
X-12385Y-36544D01*
X-12428Y-36516D01*
X-12795Y-36443D01*
X-13162Y-36516D01*
X-13473Y-36724D01*
X-13681Y-37035D01*
X-13754Y-37402D01*
X-13681Y-37769D01*
X-13473Y-38080D01*
X-13162Y-38287D01*
X-12795Y-38361D01*
X-12428Y-38287D01*
X-12117Y-38080D01*
X-11909Y-37769D01*
X-11836Y-37402D01*
X-11890Y-37131D01*
X-11909Y-37035D01*
X-11913Y-36986D01*
X-11911Y-36963D01*
X-11434Y-36684D01*
X-11391Y-36713D01*
X-11024Y-36786D01*
X-10657Y-36713D01*
X-10345Y-36505D01*
X-10138Y-36194D01*
X-10065Y-35827D01*
X-10138Y-35460D01*
X-10345Y-35149D01*
X-10657Y-34941D01*
X-11024Y-34868D01*
D02*
G37*
G36*
X-6890Y-34969D02*
X-7257Y-35041D01*
X-7568Y-35249D01*
X-7776Y-35561D01*
X-7849Y-35928D01*
X-7784Y-36256D01*
X-7869Y-36364D01*
X-8177Y-36594D01*
X-8294Y-36516D01*
X-8661Y-36443D01*
X-9028Y-36516D01*
X-9340Y-36724D01*
X-9547Y-37035D01*
X-9620Y-37402D01*
X-9547Y-37769D01*
X-9340Y-38080D01*
X-9028Y-38287D01*
X-8661Y-38361D01*
X-8294Y-38287D01*
X-7983Y-38080D01*
X-7775Y-37769D01*
X-7702Y-37402D01*
X-7768Y-37073D01*
X-7682Y-36965D01*
X-7374Y-36735D01*
X-7257Y-36814D01*
X-6890Y-36887D01*
X-6523Y-36814D01*
X-6212Y-36606D01*
X-6004Y-36294D01*
X-5931Y-35928D01*
X-6004Y-35561D01*
X-6212Y-35249D01*
X-6523Y-35041D01*
X-6890Y-34969D01*
D02*
G37*
G36*
X-14863Y-34968D02*
X-15230Y-35041D01*
X-15541Y-35249D01*
X-15749Y-35560D01*
X-15822Y-35927D01*
X-15771Y-36185D01*
X-15749Y-36294D01*
X-15750Y-36347D01*
X-16200Y-36621D01*
X-16245Y-36596D01*
X-16365Y-36516D01*
X-16732Y-36443D01*
X-17099Y-36516D01*
X-17410Y-36724D01*
X-17618Y-37035D01*
X-17691Y-37402D01*
X-17618Y-37769D01*
X-17410Y-38080D01*
X-17099Y-38287D01*
X-16732Y-38361D01*
X-16365Y-38287D01*
X-16054Y-38080D01*
X-15846Y-37769D01*
X-15773Y-37402D01*
X-15825Y-37144D01*
X-15846Y-37035D01*
X-15845Y-36981D01*
X-15395Y-36707D01*
X-15350Y-36732D01*
X-15230Y-36813D01*
X-14863Y-36886D01*
X-14496Y-36813D01*
X-14185Y-36605D01*
X-13977Y-36294D01*
X-13904Y-35927D01*
X-13977Y-35560D01*
X-14185Y-35249D01*
X-14496Y-35041D01*
X-14863Y-34968D01*
D02*
G37*
G36*
X20669Y-36043D02*
X20187Y-36139D01*
X19778Y-36412D01*
X19687Y-36549D01*
X19068Y-36713D01*
X18701Y-36639D01*
X18334Y-36713D01*
X18023Y-36920D01*
X17815Y-37231D01*
X17742Y-37598D01*
X17815Y-37965D01*
X18023Y-38276D01*
X18334Y-38484D01*
X18701Y-38557D01*
X19068Y-38484D01*
X19277Y-38344D01*
X19778Y-38194D01*
X19924Y-38292D01*
X20187Y-38467D01*
X20669Y-38563D01*
X21151Y-38467D01*
X21560Y-38194D01*
X21833Y-37785D01*
X21929Y-37303D01*
X21833Y-36821D01*
X21560Y-36412D01*
X21151Y-36139D01*
X20669Y-36043D01*
D02*
G37*
G36*
X-18701Y-34966D02*
X-19068Y-35039D01*
X-19379Y-35247D01*
X-19587Y-35558D01*
X-19660Y-35925D01*
X-19587Y-36292D01*
X-19379Y-36603D01*
X-19068Y-36811D01*
X-18701Y-36884D01*
X-18334Y-36811D01*
X-18023Y-36603D01*
X-17815Y-36292D01*
X-17742Y-35925D01*
X-17815Y-35558D01*
X-18023Y-35247D01*
X-18334Y-35039D01*
X-18701Y-34966D01*
D02*
G37*
G36*
X2953Y-34969D02*
X2586Y-35041D01*
X2275Y-35249D01*
X2067Y-35561D01*
X1994Y-35928D01*
X2067Y-36294D01*
X2275Y-36606D01*
X2586Y-36814D01*
X2953Y-36887D01*
X3320Y-36814D01*
X3631Y-36606D01*
X3839Y-36294D01*
X3912Y-35928D01*
X3839Y-35561D01*
X3631Y-35249D01*
X3320Y-35041D01*
X2953Y-34969D01*
D02*
G37*
G36*
X-984D02*
X-1351Y-35041D01*
X-1662Y-35249D01*
X-1870Y-35561D01*
X-1943Y-35928D01*
X-1870Y-36294D01*
X-1662Y-36606D01*
X-1351Y-36814D01*
X-984Y-36887D01*
X-617Y-36814D01*
X-306Y-36606D01*
X-98Y-36294D01*
X-25Y-35928D01*
X-98Y-35561D01*
X-306Y-35249D01*
X-617Y-35041D01*
X-984Y-34969D01*
D02*
G37*
G36*
X8858Y-34665D02*
X8376Y-34761D01*
X7967Y-35034D01*
X7694Y-35443D01*
X7598Y-35925D01*
X7694Y-36407D01*
X7967Y-36816D01*
X8376Y-37089D01*
X8858Y-37185D01*
X9341Y-37089D01*
X9749Y-36816D01*
X10022Y-36407D01*
X10118Y-35925D01*
X10022Y-35443D01*
X9749Y-35034D01*
X9341Y-34761D01*
X8858Y-34665D01*
D02*
G37*
G36*
X984Y-36639D02*
X617Y-36713D01*
X306Y-36920D01*
X98Y-37231D01*
X25Y-37598D01*
X98Y-37965D01*
X306Y-38276D01*
X617Y-38484D01*
X984Y-38557D01*
X1351Y-38484D01*
X1662Y-38276D01*
X1870Y-37965D01*
X1943Y-37598D01*
X1870Y-37231D01*
X1662Y-36920D01*
X1351Y-36713D01*
X984Y-36639D01*
D02*
G37*
G36*
X-4921D02*
X-5288Y-36713D01*
X-5599Y-36920D01*
X-5807Y-37231D01*
X-5880Y-37598D01*
X-5807Y-37965D01*
X-5599Y-38276D01*
X-5288Y-38484D01*
X-4921Y-38557D01*
X-4554Y-38484D01*
X-4243Y-38276D01*
X-4035Y-37965D01*
X-3962Y-37598D01*
X-4035Y-37231D01*
X-4243Y-36920D01*
X-4554Y-36713D01*
X-4921Y-36639D01*
D02*
G37*
G36*
X27657Y-37913D02*
X27175Y-38009D01*
X26766Y-38282D01*
X26493Y-38691D01*
X26397Y-39173D01*
X26493Y-39655D01*
X26766Y-40064D01*
X27175Y-40337D01*
X27657Y-40433D01*
X28140Y-40337D01*
X28548Y-40064D01*
X28822Y-39655D01*
X28918Y-39173D01*
X28822Y-38691D01*
X28548Y-38282D01*
X28140Y-38009D01*
X27657Y-37913D01*
D02*
G37*
G36*
X6890Y-43726D02*
X6523Y-43799D01*
X6212Y-44007D01*
X6206Y-44015D01*
X5605D01*
X5599Y-44007D01*
X5288Y-43799D01*
X4921Y-43726D01*
X4554Y-43799D01*
X4243Y-44007D01*
X4035Y-44318D01*
X3962Y-44685D01*
X4035Y-45052D01*
X4243Y-45363D01*
X4554Y-45571D01*
X4921Y-45644D01*
X5288Y-45571D01*
X5599Y-45363D01*
X5605Y-45355D01*
X6206D01*
X6212Y-45363D01*
X6523Y-45571D01*
X6890Y-45644D01*
X7257Y-45571D01*
X7568Y-45363D01*
X7776Y-45052D01*
X7849Y-44685D01*
X7776Y-44318D01*
X7568Y-44007D01*
X7257Y-43799D01*
X6890Y-43726D01*
D02*
G37*
G36*
X10827D02*
X10460Y-43799D01*
X10149Y-44007D01*
X9941Y-44318D01*
X9868Y-44685D01*
X9941Y-45052D01*
X10149Y-45363D01*
X10460Y-45571D01*
X10827Y-45644D01*
X11194Y-45571D01*
X11505Y-45363D01*
X11713Y-45052D01*
X11786Y-44685D01*
X11713Y-44318D01*
X11505Y-44007D01*
X11194Y-43799D01*
X10827Y-43726D01*
D02*
G37*
G36*
X-2953D02*
X-3320Y-43799D01*
X-3631Y-44007D01*
X-3839Y-44318D01*
X-3912Y-44685D01*
X-3839Y-45052D01*
X-3631Y-45363D01*
X-3320Y-45571D01*
X-2953Y-45644D01*
X-2586Y-45571D01*
X-2275Y-45363D01*
X-2067Y-45052D01*
X-1994Y-44685D01*
X-2067Y-44318D01*
X-2275Y-44007D01*
X-2586Y-43799D01*
X-2953Y-43726D01*
D02*
G37*
G36*
X34547Y-44803D02*
X34065Y-44899D01*
X33656Y-45172D01*
X33383Y-45581D01*
X33287Y-46063D01*
X33383Y-46545D01*
X33656Y-46954D01*
X34065Y-47227D01*
X34547Y-47323D01*
X35029Y-47227D01*
X35438Y-46954D01*
X35711Y-46545D01*
X35807Y-46063D01*
X35711Y-45581D01*
X35438Y-45172D01*
X35029Y-44899D01*
X34547Y-44803D01*
D02*
G37*
G36*
X20768Y-44803D02*
X20286Y-44899D01*
X19877Y-45172D01*
X19604Y-45581D01*
X19508Y-46063D01*
X19604Y-46545D01*
X19877Y-46954D01*
X20286Y-47227D01*
X20768Y-47323D01*
X21250Y-47227D01*
X21659Y-46954D01*
X21932Y-46545D01*
X22028Y-46063D01*
X21932Y-45581D01*
X21659Y-45172D01*
X21250Y-44899D01*
X20768Y-44803D01*
D02*
G37*
G36*
X-34547D02*
X-35029Y-44899D01*
X-35438Y-45172D01*
X-35711Y-45581D01*
X-35807Y-46063D01*
X-35711Y-46545D01*
X-35438Y-46954D01*
X-35029Y-47227D01*
X-34547Y-47323D01*
X-34065Y-47227D01*
X-33656Y-46954D01*
X-33383Y-46545D01*
X-33287Y-46063D01*
X-33383Y-45581D01*
X-33656Y-45172D01*
X-34065Y-44899D01*
X-34547Y-44803D01*
D02*
G37*
G36*
X-27657Y-51201D02*
X-28140Y-51297D01*
X-28548Y-51570D01*
X-28822Y-51978D01*
X-28918Y-52461D01*
X-28822Y-52943D01*
X-28548Y-53352D01*
X-28140Y-53625D01*
X-27657Y-53721D01*
X-27175Y-53625D01*
X-26766Y-53352D01*
X-26493Y-52943D01*
X-26397Y-52461D01*
X-26493Y-51978D01*
X-26766Y-51570D01*
X-27175Y-51297D01*
X-27657Y-51201D01*
D02*
G37*
G36*
X27657Y-51693D02*
X27175Y-51789D01*
X26766Y-52062D01*
X26493Y-52471D01*
X26397Y-52953D01*
X26493Y-53435D01*
X26766Y-53844D01*
X27175Y-54117D01*
X27657Y-54213D01*
X28140Y-54117D01*
X28548Y-53844D01*
X28822Y-53435D01*
X28918Y-52953D01*
X28822Y-52471D01*
X28548Y-52062D01*
X28140Y-51789D01*
X27657Y-51693D01*
D02*
G37*
%LPD*%
G36*
X-3512Y20177D02*
X-3268Y19677D01*
X-3347Y19560D01*
X-3420Y19193D01*
X-3347Y18826D01*
X-3139Y18515D01*
X-2828Y18307D01*
X-2461Y18234D01*
X-2094Y18307D01*
X-1782Y18515D01*
X-1575Y18826D01*
X-1502Y19193D01*
X-1522Y19295D01*
X-639Y20177D01*
X8451Y20177D01*
X8719Y19677D01*
X8598Y19496D01*
X8479Y18899D01*
X8598Y18301D01*
X8936Y17795D01*
X9442Y17456D01*
X10040Y17337D01*
X10637Y17456D01*
X11144Y17795D01*
X11482Y18301D01*
X11601Y18899D01*
X11482Y19496D01*
X11361Y19677D01*
X11628Y20177D01*
X15473D01*
X15872Y19685D01*
X15945Y19318D01*
X16153Y19007D01*
X16464Y18799D01*
X16831Y18726D01*
X17198Y18799D01*
X17509Y19007D01*
X17717Y19318D01*
X17762Y19547D01*
X18149Y19729D01*
X18272Y19744D01*
X18951Y19065D01*
Y12963D01*
X18873Y12885D01*
X18699Y12466D01*
Y7527D01*
X18613Y7469D01*
X18405Y7158D01*
X18332Y6791D01*
X18405Y6424D01*
X18613Y6113D01*
X18699Y6056D01*
Y-8908D01*
X16987Y-10621D01*
X16634Y-10551D01*
X16152Y-10647D01*
X15743Y-10920D01*
X15470Y-11329D01*
X15374Y-11811D01*
X15470Y-12293D01*
X15743Y-12702D01*
X16152Y-12975D01*
X16634Y-13071D01*
X17116Y-12975D01*
X17525Y-12702D01*
X17798Y-12293D01*
X17894Y-11811D01*
X17824Y-11458D01*
X19026Y-10256D01*
X19488Y-10447D01*
X19488Y-19291D01*
X19488Y-26511D01*
X18988Y-26769D01*
X18789Y-26636D01*
X18307Y-26540D01*
X17825Y-26636D01*
X17416Y-26909D01*
X17143Y-27318D01*
X17047Y-27800D01*
X17143Y-28282D01*
X17416Y-28691D01*
X17825Y-28964D01*
X18307Y-29060D01*
X18789Y-28964D01*
X18988Y-28831D01*
X19488Y-29088D01*
X19488Y-31201D01*
X-7480D01*
Y-25098D01*
X-17251D01*
X-17517Y-24598D01*
X-17441Y-24213D01*
X-17537Y-23730D01*
X-17810Y-23322D01*
X-18219Y-23049D01*
X-18701Y-22953D01*
X-19183Y-23049D01*
X-19592Y-23322D01*
X-19865Y-23730D01*
X-19961Y-24213D01*
X-19884Y-24598D01*
X-20151Y-25098D01*
X-27362D01*
X-27362Y-21949D01*
X5613Y-21949D01*
X5663Y-22449D01*
X5620Y-22458D01*
X5211Y-22731D01*
X4938Y-23140D01*
X4878Y-23444D01*
X4842Y-23622D01*
X4352Y-23718D01*
X4308Y-23495D01*
X4013Y-23054D01*
X3572Y-22759D01*
X3051Y-22655D01*
X2531Y-22759D01*
X2089Y-23054D01*
X1794Y-23495D01*
X1691Y-24016D01*
X1794Y-24536D01*
X2089Y-24978D01*
X2531Y-25273D01*
X3051Y-25376D01*
X3572Y-25273D01*
X4013Y-24978D01*
X4308Y-24536D01*
X4376Y-24194D01*
X4412Y-24016D01*
X4902Y-23920D01*
X4938Y-24104D01*
X5211Y-24513D01*
X5620Y-24786D01*
X6102Y-24882D01*
X6585Y-24786D01*
X6993Y-24513D01*
X7266Y-24104D01*
X7362Y-23622D01*
X7266Y-23140D01*
X6993Y-22731D01*
X6585Y-22458D01*
X6542Y-22449D01*
X6591Y-21949D01*
X13976Y-21949D01*
X13976Y8326D01*
X14262Y8383D01*
X14671Y8656D01*
X14944Y9065D01*
X15040Y9547D01*
X14944Y10029D01*
X14671Y10438D01*
X14262Y10711D01*
X13976Y10768D01*
Y12402D01*
X-12303Y12402D01*
Y746D01*
X-12412Y637D01*
X-12803Y414D01*
X-13032Y459D01*
X-13399Y386D01*
X-13535Y295D01*
X-17761D01*
X-17815Y564D01*
X-18023Y875D01*
X-18334Y1083D01*
X-18503Y1116D01*
Y12355D01*
X-18416Y12412D01*
X-18209Y12724D01*
X-18135Y13091D01*
X-18209Y13457D01*
X-18416Y13769D01*
X-18503Y13826D01*
Y17502D01*
X-15828Y20177D01*
X-3512D01*
D02*
G37*
D11*
X-526Y21128D02*
X17726D01*
X19543Y19311D01*
Y12718D02*
Y19311D01*
X-1732Y-453D02*
Y1559D01*
X-5217Y-3937D02*
X-1732Y-453D01*
X-9547Y-3937D02*
X-5217D01*
X-11122Y-2362D02*
X-9547Y-3937D01*
X-11122Y-2362D02*
Y4134D01*
X-18701Y197D02*
Y410D01*
X-19094Y804D02*
X-18701Y410D01*
X-19094Y804D02*
Y13091D01*
Y17747D02*
X-15714Y21128D01*
X-19094Y13091D02*
Y17747D01*
X-15714Y21128D02*
X-526D01*
X-2461Y19193D02*
X-526Y21128D01*
X19291Y12466D02*
X19543Y12718D01*
X19291Y6791D02*
Y12466D01*
Y-9154D02*
Y6791D01*
X16634Y-11811D02*
X19291Y-9154D01*
D12*
X-25787Y12385D02*
X-15928Y22244D01*
X-25787Y-1870D02*
Y12385D01*
Y-1870D02*
X-24705Y-2953D01*
X17940Y22244D02*
X26378Y13806D01*
Y-1870D02*
Y13806D01*
X25492Y-2756D02*
X26378Y-1870D01*
X-15928Y22244D02*
X17940D01*
X689Y10728D02*
X8268D01*
X12697Y6299D01*
X25492Y-2756D02*
X30118Y-7382D01*
X50000D02*
X60532Y3150D01*
X30118Y-7382D02*
X50000D01*
D40*
X-73819Y-34547D02*
X-24803D01*
X-83711Y-24656D02*
X-73819Y-34547D01*
X-89075Y-5610D02*
X-83711Y-10974D01*
Y-24656D02*
Y-10974D01*
D42*
X-25297Y-23722D02*
D03*
X-1673Y-27659D02*
D03*
X-24803Y-34547D02*
D03*
X-89075Y-5610D02*
D03*
X12697Y6299D02*
D03*
X689Y10728D02*
D03*
X12205Y-30217D02*
D03*
X-18701Y-24213D02*
D03*
X16634Y-11811D02*
D03*
X13189Y31890D02*
D03*
X689D02*
D03*
X-24705Y-2953D02*
D03*
X25492Y-2756D02*
D03*
X60532Y3150D02*
D03*
X60335Y-27756D02*
D03*
X81201Y5709D02*
D03*
X89173Y12303D02*
D03*
X-88976Y-22835D02*
D03*
X-88976Y-10433D02*
D03*
X-88976Y-16634D02*
D03*
X-60236Y11811D02*
D03*
X-71752Y-2461D02*
D03*
X-47933Y13878D02*
D03*
X48327Y13780D02*
D03*
X-51575Y-3268D02*
D03*
X-60374Y-21260D02*
D03*
X-60039Y-27362D02*
D03*
X76772Y-27559D02*
D03*
X76378Y-20374D02*
D03*
D43*
X-11122Y4134D02*
D03*
X-1732Y1559D02*
D03*
X-18701Y197D02*
D03*
X-19094Y13091D02*
D03*
X-2461Y19193D02*
D03*
X19291Y6791D02*
D03*
X-1673Y14272D02*
D03*
X14666Y-5709D02*
D03*
X14665Y-18307D02*
D03*
X-12992Y6299D02*
D03*
X-16043Y16339D02*
D03*
X18406Y13189D02*
D03*
X16634Y6397D02*
D03*
M02*
