G04*
G04 #@! TF.GenerationSoftware,Altium Limited,Altium Designer,19.0.11 (319)*
G04*
G04 Layer_Color=255*
%FSLAX25Y25*%
%MOIN*%
G70*
G01*
G75*
%ADD16R,0.03543X0.03937*%
%ADD17R,0.03937X0.03543*%
%ADD18R,0.03347X0.03740*%
%ADD19R,0.03740X0.03347*%
%ADD20R,0.02165X0.05158*%
%ADD21R,0.02756X0.01181*%
%ADD22R,0.03937X0.04724*%
%ADD23R,0.03150X0.03543*%
%ADD24R,0.01181X0.05512*%
%ADD25R,0.10433X0.09055*%
%ADD41C,0.15748*%
D16*
X-15650Y-2953D02*
D03*
X-20965D02*
D03*
Y-9154D02*
D03*
X-15650D02*
D03*
X21949Y-8957D02*
D03*
X16634D02*
D03*
Y-2756D02*
D03*
X21949D02*
D03*
Y3445D02*
D03*
X16634D02*
D03*
X63583Y9350D02*
D03*
X68898D02*
D03*
X85335Y-2461D02*
D03*
X80020D02*
D03*
Y-27559D02*
D03*
X85335D02*
D03*
Y-21358D02*
D03*
X80020D02*
D03*
Y-15157D02*
D03*
X85335D02*
D03*
X80020Y-8957D02*
D03*
X85335D02*
D03*
X-58071Y-8760D02*
D03*
X-52756D02*
D03*
X-68898Y-27362D02*
D03*
X-63583D02*
D03*
Y-21161D02*
D03*
X-68898D02*
D03*
X-63583Y-14961D02*
D03*
X-68898D02*
D03*
X-63583Y-2461D02*
D03*
X-68898D02*
D03*
X-80709Y9941D02*
D03*
X-75394D02*
D03*
D17*
X-12500Y-21063D02*
D03*
Y-15748D02*
D03*
X-18701D02*
D03*
Y-21063D02*
D03*
X689Y16437D02*
D03*
Y21752D02*
D03*
X6890D02*
D03*
Y16437D02*
D03*
X13189D02*
D03*
Y21752D02*
D03*
X87008Y4134D02*
D03*
Y9449D02*
D03*
X-98Y-15748D02*
D03*
Y-21063D02*
D03*
X-6299Y-15748D02*
D03*
Y-21063D02*
D03*
X-24311Y27362D02*
D03*
Y32677D02*
D03*
X12303Y-15748D02*
D03*
Y-21063D02*
D03*
X-87008Y6890D02*
D03*
Y1575D02*
D03*
D18*
X16732Y9744D02*
D03*
X21850D02*
D03*
X47539Y20768D02*
D03*
X42421D02*
D03*
X12205Y-27657D02*
D03*
X7087D02*
D03*
X-3839D02*
D03*
X1280D02*
D03*
X64173Y3150D02*
D03*
X69291D02*
D03*
X64173Y-3051D02*
D03*
X69291D02*
D03*
X69193Y-9252D02*
D03*
X64075D02*
D03*
X63976Y-21654D02*
D03*
X69095D02*
D03*
X63976Y-27756D02*
D03*
X69095D02*
D03*
X-64173Y-8760D02*
D03*
X-69291D02*
D03*
X-84941Y-10433D02*
D03*
X-79823D02*
D03*
X-84941Y-16634D02*
D03*
X-79823D02*
D03*
X-84941Y-22835D02*
D03*
X-79823D02*
D03*
X-46949Y20866D02*
D03*
X-41831D02*
D03*
X-64173Y3740D02*
D03*
X-69291D02*
D03*
X-64173Y9941D02*
D03*
X-69291D02*
D03*
D19*
X34646Y20768D02*
D03*
Y15650D02*
D03*
X6102Y-20965D02*
D03*
Y-15846D02*
D03*
X-24902Y-15846D02*
D03*
Y-20965D02*
D03*
X48327Y35925D02*
D03*
Y30807D02*
D03*
X-35728Y20866D02*
D03*
Y15748D02*
D03*
X-47933Y35925D02*
D03*
Y30807D02*
D03*
D20*
X78051Y9547D02*
D03*
X-77953Y1280D02*
D03*
D21*
X74902Y7579D02*
D03*
Y9547D02*
D03*
Y11516D02*
D03*
X81201D02*
D03*
Y9547D02*
D03*
Y7579D02*
D03*
X-81102Y3248D02*
D03*
Y1280D02*
D03*
Y-689D02*
D03*
X-74803D02*
D03*
Y1280D02*
D03*
Y3248D02*
D03*
D22*
X29331Y-16240D02*
D03*
Y-22933D02*
D03*
X19094Y-16240D02*
D03*
Y-22933D02*
D03*
D23*
X38386Y35925D02*
D03*
X42126Y28051D02*
D03*
X34646D02*
D03*
X-38091Y35925D02*
D03*
X-34350Y28051D02*
D03*
X-41831D02*
D03*
D24*
X20669Y-41142D02*
D03*
X18701D02*
D03*
X-20669D02*
D03*
X-18701D02*
D03*
X-16732D02*
D03*
X-14764D02*
D03*
X-12795D02*
D03*
X-10827D02*
D03*
X-8858D02*
D03*
X-6890D02*
D03*
X-4921D02*
D03*
X-2953D02*
D03*
X-984D02*
D03*
X984D02*
D03*
X2953D02*
D03*
X4921D02*
D03*
X6890D02*
D03*
X8858D02*
D03*
X10827D02*
D03*
X12795D02*
D03*
X14764D02*
D03*
X16732D02*
D03*
D25*
X-27657Y-46063D02*
D03*
X27657D02*
D03*
D41*
X39664Y2362D02*
D03*
X-39076D02*
D03*
X-99016Y-12106D02*
D03*
X99016Y-13484D02*
D03*
M02*
