G04*
G04 #@! TF.GenerationSoftware,Altium Limited,Altium Designer,19.0.11 (319)*
G04*
G04 Layer_Physical_Order=4*
G04 Layer_Color=16737945*
%FSLAX25Y25*%
%MOIN*%
G70*
G01*
G75*
%ADD11C,0.00394*%
%ADD42C,0.01772*%
%ADD43C,0.01181*%
D11*
X-12259Y-12894D02*
G03*
X-11669Y-12303I0J591D01*
G01*
X-13091Y-12894D02*
G03*
X-13681Y-13484I0J-591D01*
G01*
D02*
G03*
X-13091Y-14075I591J0D01*
G01*
X-11669Y-14665D02*
G03*
X-12259Y-14075I-591J0D01*
G01*
Y-15256D02*
G03*
X-11669Y-14665I0J591D01*
G01*
X-13091Y-15256D02*
G03*
X-13681Y-15846I0J-591D01*
G01*
D02*
G03*
X-13091Y-16437I591J0D01*
G01*
X-11669Y-17028D02*
G03*
X-12259Y-16437I-591J0D01*
G01*
X-10925Y-12303D02*
G03*
X-10335Y-12894I591J0D01*
G01*
X-9055Y-13484D02*
G03*
X-9646Y-12894I-591J0D01*
G01*
Y-14075D02*
G03*
X-9055Y-13484I0J591D01*
G01*
X-10335Y-14075D02*
G03*
X-10925Y-14665I0J-591D01*
G01*
D02*
G03*
X-10335Y-15256I591J0D01*
G01*
X-9055Y-15846D02*
G03*
X-9646Y-15256I-591J0D01*
G01*
Y-16437D02*
G03*
X-9055Y-15846I0J591D01*
G01*
X-10335Y-16437D02*
G03*
X-10925Y-17028I0J-591D01*
G01*
D02*
G03*
X-10335Y-17618I591J0D01*
G01*
X-9055Y-18209D02*
G03*
X-9646Y-17618I-591J0D01*
G01*
Y-18799D02*
G03*
X-9055Y-18209I0J591D01*
G01*
X-10335Y-18799D02*
G03*
X-10925Y-19390I0J-591D01*
G01*
D02*
G03*
X-10335Y-19980I591J0D01*
G01*
X-9055Y-20571D02*
G03*
X-9646Y-19980I-591J0D01*
G01*
Y-21161D02*
G03*
X-9055Y-20571I0J591D01*
G01*
X-10335Y-21161D02*
G03*
X-10925Y-21752I0J-591D01*
G01*
D02*
G03*
X-10335Y-22343I591J0D01*
G01*
X-9055Y-22933D02*
G03*
X-9646Y-22343I-591J0D01*
G01*
Y-23524D02*
G03*
X-9055Y-22933I0J591D01*
G01*
X-10335Y-23524D02*
G03*
X-10925Y-24114I0J-591D01*
G01*
D02*
G03*
X-10335Y-24705I591J0D01*
G01*
X-9055Y-25295D02*
G03*
X-9646Y-24705I-591J0D01*
G01*
Y-25886D02*
G03*
X-9055Y-25295I0J591D01*
G01*
X-10335Y-25886D02*
G03*
X-10925Y-26476I0J-591D01*
G01*
X-7507Y2614D02*
X-5434D01*
X-11669Y-1548D02*
X-7507Y2614D01*
X-11669Y-10630D02*
Y-1548D01*
Y-11713D02*
Y-10630D01*
Y-12303D02*
Y-11713D01*
X-13091Y-12894D02*
X-12259D01*
X-13091Y-14075D02*
X-12259D01*
X-13091Y-15256D02*
X-12259D01*
X-13091Y-16437D02*
X-12259D01*
X-11669Y-17618D02*
Y-17028D01*
Y-18799D02*
Y-17618D01*
Y-19390D02*
Y-18799D01*
Y-27966D02*
Y-19390D01*
Y-27966D02*
X-899Y-38736D01*
X1455D01*
X2953Y-37238D01*
Y-35928D01*
X8858Y-35925D02*
Y-16831D01*
X197Y-8169D02*
X8858Y-16831D01*
X197Y-8169D02*
Y-4539D01*
X-1807Y-2535D02*
X197Y-4539D01*
X70610Y-20472D02*
X72736Y-22598D01*
X31102Y-20472D02*
X70610D01*
X6890Y-44685D02*
X31102Y-20472D01*
X67008Y-19685D02*
X69095Y-17598D01*
X29921Y-19685D02*
X67008D01*
X4921Y-44685D02*
X29921Y-19685D01*
X-75492Y-19291D02*
Y-17421D01*
X3150Y-46457D02*
X4921Y-44685D01*
X-24736Y-46457D02*
X3150D01*
X-75492Y-19291D02*
X-61024Y-33760D01*
X-37433D02*
X-24736Y-46457D01*
X-61024Y-33760D02*
X-37433D01*
X-76083Y-23268D02*
X-72567D01*
X-37741Y-34503D02*
X-25044Y-47200D01*
X4374D02*
X6890Y-44685D01*
X-25044Y-47200D02*
X4374D01*
X-61332Y-34503D02*
X-37741D01*
X-72567Y-23268D02*
X-61332Y-34503D01*
X-10925Y-12303D02*
Y-11811D01*
X-10335Y-12894D02*
X-9646D01*
X-10335Y-14075D02*
X-9646D01*
X-10335Y-15256D02*
X-9646D01*
X-10335Y-16437D02*
X-9646D01*
X-10335Y-17618D02*
X-9646D01*
X-10335Y-18799D02*
X-9646D01*
X-10335Y-19980D02*
X-9646D01*
X-10335Y-21161D02*
X-9646D01*
X-10335Y-22343D02*
X-9646D01*
X-10335Y-23524D02*
X-9646D01*
X-10335Y-24705D02*
X-9646D01*
X-10335Y-25886D02*
X-9646D01*
X-10925Y-27067D02*
Y-26476D01*
Y-27657D02*
Y-27067D01*
Y-11811D02*
Y-1856D01*
X-7593Y1476D02*
X-5906D01*
X-10925Y-1856D02*
X-7593Y1476D01*
X-10925Y-27657D02*
X-984Y-37598D01*
X984D01*
X-5434Y2614D02*
X-5434Y2614D01*
X-4976D01*
X-3839Y1476D01*
D42*
X8858Y-35925D02*
D03*
X-75492Y-17421D02*
D03*
X-76083Y-23268D02*
D03*
X72736Y-22598D02*
D03*
X69095Y-17598D02*
D03*
D43*
X4921Y-44685D02*
D03*
X6890D02*
D03*
X2953Y-35928D02*
D03*
X984Y-37598D02*
D03*
X-3839Y1476D02*
D03*
X-5906D02*
D03*
X-1807Y-2535D02*
D03*
M02*
