G04*
G04 #@! TF.GenerationSoftware,Altium Limited,Altium Designer,19.0.11 (319)*
G04*
G04 Layer_Physical_Order=5*
G04 Layer_Color=16440176*
%FSLAX25Y25*%
%MOIN*%
G70*
G01*
G75*
%ADD41C,0.15748*%
%ADD42C,0.01772*%
%ADD43C,0.01181*%
%ADD44C,0.01968*%
G36*
X52264Y13780D02*
X88258D01*
X88410Y13280D01*
X88282Y13194D01*
X88009Y12785D01*
X87913Y12303D01*
X88009Y11821D01*
X88282Y11412D01*
X88691Y11139D01*
X89173Y11043D01*
X89655Y11139D01*
X90051Y11404D01*
X90132Y11388D01*
X90551Y11241D01*
Y-5019D01*
X99849D01*
X101485Y-5344D01*
X103025Y-5982D01*
X104412Y-6909D01*
X105591Y-8088D01*
X106518Y-9475D01*
X107156Y-11015D01*
X107481Y-12651D01*
Y-14318D01*
X107156Y-15954D01*
X106518Y-17494D01*
X105591Y-18880D01*
X104412Y-20060D01*
X103025Y-20986D01*
X101485Y-21624D01*
X99849Y-21949D01*
X90551D01*
Y-39370D01*
X36811D01*
Y-62598D01*
X-36811D01*
Y-39370D01*
X-90551D01*
Y-23602D01*
X-90051Y-23450D01*
X-89867Y-23726D01*
X-89459Y-23999D01*
X-88976Y-24095D01*
X-88494Y-23999D01*
X-88085Y-23726D01*
X-87812Y-23317D01*
X-87716Y-22835D01*
X-87812Y-22352D01*
X-88085Y-21944D01*
X-88494Y-21670D01*
X-88976Y-21575D01*
X-89459Y-21670D01*
X-89867Y-21944D01*
X-90051Y-22219D01*
X-90551Y-22067D01*
Y-20571D01*
X-99849D01*
X-101485Y-20246D01*
X-103025Y-19608D01*
X-104412Y-18682D01*
X-105591Y-17503D01*
X-106518Y-16116D01*
X-107156Y-14575D01*
X-107481Y-12940D01*
Y-11273D01*
X-107156Y-9637D01*
X-106518Y-8097D01*
X-105591Y-6710D01*
X-104412Y-5531D01*
X-103025Y-4605D01*
X-101485Y-3966D01*
X-99849Y-3641D01*
X-90551D01*
Y13780D01*
X-51673D01*
Y39370D01*
X52264D01*
Y13780D01*
D02*
G37*
%LPC*%
G36*
X44783Y37185D02*
X44301Y37089D01*
X43892Y36816D01*
X43619Y36407D01*
X43523Y35925D01*
X43619Y35443D01*
X43892Y35034D01*
X44301Y34761D01*
X44783Y34665D01*
X45266Y34761D01*
X45674Y35034D01*
X45948Y35443D01*
X46044Y35925D01*
X45948Y36407D01*
X45674Y36816D01*
X45266Y37089D01*
X44783Y37185D01*
D02*
G37*
G36*
X-44587Y37087D02*
X-45069Y36991D01*
X-45478Y36718D01*
X-45751Y36309D01*
X-45847Y35827D01*
X-45751Y35345D01*
X-45478Y34936D01*
X-45069Y34663D01*
X-44587Y34567D01*
X-44104Y34663D01*
X-43696Y34936D01*
X-43422Y35345D01*
X-43327Y35827D01*
X-43422Y36309D01*
X-43696Y36718D01*
X-44104Y36991D01*
X-44587Y37087D01*
D02*
G37*
G36*
X13189Y33150D02*
X12707Y33054D01*
X12298Y32781D01*
X12025Y32372D01*
X11929Y31890D01*
X12025Y31408D01*
X12298Y30999D01*
X12595Y30800D01*
X12478Y30300D01*
X1400D01*
X1283Y30800D01*
X1580Y30999D01*
X1853Y31408D01*
X1949Y31890D01*
X1853Y32372D01*
X1580Y32781D01*
X1171Y33054D01*
X689Y33150D01*
X207Y33054D01*
X-202Y32781D01*
X-475Y32372D01*
X-571Y31890D01*
X-475Y31408D01*
X-202Y30999D01*
X95Y30800D01*
X-22Y30300D01*
X-27264D01*
X-27532Y30189D01*
X-27643Y29921D01*
Y-25098D01*
X-27532Y-25366D01*
X-27264Y-25477D01*
X-26360D01*
X-26282Y-25445D01*
X-26198Y-25441D01*
X-26154Y-25392D01*
X-26092Y-25366D01*
X-26060Y-25288D01*
X-26004Y-25225D01*
X-25896Y-24925D01*
X-25779Y-24886D01*
X-25297Y-24982D01*
X-24814Y-24886D01*
X-24697Y-24925D01*
X-24589Y-25225D01*
X-24533Y-25288D01*
X-24500Y-25366D01*
X-24440Y-25392D01*
X-24395Y-25441D01*
X-24311Y-25445D01*
X-24233Y-25477D01*
X-20151D01*
X-20098Y-25455D01*
X-20041Y-25461D01*
X-19972Y-25405D01*
X-19968Y-25402D01*
X-19883Y-25366D01*
X-19614Y-25292D01*
X-19272Y-25317D01*
X-19183Y-25377D01*
X-18701Y-25473D01*
X-18219Y-25377D01*
X-18130Y-25317D01*
X-17997Y-25308D01*
X-17519Y-25366D01*
X-17361Y-25461D01*
X-17304Y-25455D01*
X-17251Y-25477D01*
X-17065Y-25477D01*
X-17065Y-25477D01*
X-17031Y-25477D01*
X5187D01*
X5274Y-25442D01*
X5366Y-25433D01*
X5403Y-25388D01*
X5455Y-25366D01*
X5491Y-25280D01*
X5550Y-25208D01*
X5675Y-24797D01*
X6102Y-24882D01*
X6530Y-24797D01*
X6655Y-25208D01*
X6714Y-25280D01*
X6749Y-25366D01*
X6802Y-25388D01*
X6839Y-25433D01*
X6931Y-25442D01*
X7017Y-25477D01*
X27854D01*
X28122Y-25366D01*
X28233Y-25098D01*
Y29921D01*
X28122Y30189D01*
X27854Y30300D01*
X13900D01*
X13783Y30800D01*
X14080Y30999D01*
X14353Y31408D01*
X14449Y31890D01*
X14353Y32372D01*
X14080Y32781D01*
X13671Y33054D01*
X13189Y33150D01*
D02*
G37*
G36*
X-47933Y15138D02*
X-48415Y15042D01*
X-48824Y14769D01*
X-49097Y14360D01*
X-49193Y13878D01*
X-49097Y13396D01*
X-48824Y12987D01*
X-48415Y12714D01*
X-47933Y12618D01*
X-47451Y12714D01*
X-47042Y12987D01*
X-46769Y13396D01*
X-46673Y13878D01*
X-46769Y14360D01*
X-47042Y14769D01*
X-47451Y15042D01*
X-47933Y15138D01*
D02*
G37*
G36*
X48327Y15040D02*
X47845Y14944D01*
X47436Y14671D01*
X47163Y14262D01*
X47067Y13780D01*
X47163Y13297D01*
X47436Y12889D01*
X47845Y12615D01*
X48327Y12519D01*
X48809Y12615D01*
X49218Y12889D01*
X49491Y13297D01*
X49587Y13780D01*
X49491Y14262D01*
X49218Y14671D01*
X48809Y14944D01*
X48327Y15040D01*
D02*
G37*
G36*
X-35728Y13164D02*
X-36095Y13091D01*
X-36406Y12883D01*
X-36614Y12572D01*
X-36687Y12205D01*
X-36614Y11838D01*
X-36406Y11527D01*
X-36095Y11319D01*
X-35728Y11246D01*
X-35361Y11319D01*
X-35050Y11527D01*
X-34842Y11838D01*
X-34769Y12205D01*
X-34842Y12572D01*
X-35050Y12883D01*
X-35361Y13091D01*
X-35728Y13164D01*
D02*
G37*
G36*
X34646Y13065D02*
X34279Y12992D01*
X33968Y12784D01*
X33760Y12473D01*
X33687Y12106D01*
X33760Y11739D01*
X33968Y11428D01*
X34279Y11220D01*
X34646Y11147D01*
X35013Y11220D01*
X35324Y11428D01*
X35532Y11739D01*
X35605Y12106D01*
X35532Y12473D01*
X35324Y12784D01*
X35013Y12992D01*
X34646Y13065D01*
D02*
G37*
G36*
X-60236Y13071D02*
X-60718Y12975D01*
X-61127Y12702D01*
X-61400Y12293D01*
X-61496Y11811D01*
X-61400Y11329D01*
X-61127Y10920D01*
X-60718Y10647D01*
X-60236Y10551D01*
X-59754Y10647D01*
X-59345Y10920D01*
X-59072Y11329D01*
X-58976Y11811D01*
X-59072Y12293D01*
X-59345Y12702D01*
X-59754Y12975D01*
X-60236Y13071D01*
D02*
G37*
G36*
X81201Y6969D02*
X80719Y6873D01*
X80310Y6600D01*
X80037Y6191D01*
X79941Y5709D01*
X80037Y5226D01*
X80310Y4818D01*
X80719Y4544D01*
X81201Y4449D01*
X81683Y4544D01*
X82092Y4818D01*
X82365Y5226D01*
X82461Y5709D01*
X82365Y6191D01*
X82092Y6600D01*
X81683Y6873D01*
X81201Y6969D01*
D02*
G37*
G36*
X-84055Y5683D02*
X-84422Y5610D01*
X-84733Y5403D01*
X-84941Y5091D01*
X-85014Y4724D01*
X-84941Y4357D01*
X-84733Y4046D01*
X-84422Y3838D01*
X-84055Y3765D01*
X-83688Y3838D01*
X-83377Y4046D01*
X-83169Y4357D01*
X-83096Y4724D01*
X-83169Y5091D01*
X-83377Y5403D01*
X-83688Y5610D01*
X-84055Y5683D01*
D02*
G37*
G36*
X60532Y4410D02*
X60049Y4314D01*
X59641Y4041D01*
X59367Y3632D01*
X59272Y3150D01*
X59367Y2667D01*
X59641Y2259D01*
X60049Y1986D01*
X60532Y1890D01*
X61014Y1986D01*
X61422Y2259D01*
X61696Y2667D01*
X61791Y3150D01*
X61696Y3632D01*
X61422Y4041D01*
X61014Y4314D01*
X60532Y4410D01*
D02*
G37*
G36*
X-71752Y-1201D02*
X-72234Y-1297D01*
X-72643Y-1570D01*
X-72916Y-1978D01*
X-73012Y-2461D01*
X-72916Y-2943D01*
X-72643Y-3352D01*
X-72234Y-3625D01*
X-71752Y-3721D01*
X-71270Y-3625D01*
X-70861Y-3352D01*
X-70588Y-2943D01*
X-70492Y-2461D01*
X-70588Y-1978D01*
X-70861Y-1570D01*
X-71270Y-1297D01*
X-71752Y-1201D01*
D02*
G37*
G36*
X-51575Y-2008D02*
X-52057Y-2104D01*
X-52466Y-2377D01*
X-52739Y-2785D01*
X-52835Y-3268D01*
X-52739Y-3750D01*
X-52466Y-4159D01*
X-52057Y-4432D01*
X-51575Y-4528D01*
X-51093Y-4432D01*
X-50684Y-4159D01*
X-50411Y-3750D01*
X-50315Y-3268D01*
X-50411Y-2785D01*
X-50684Y-2377D01*
X-51093Y-2104D01*
X-51575Y-2008D01*
D02*
G37*
G36*
X-89075Y-4350D02*
X-89557Y-4446D01*
X-89966Y-4719D01*
X-90239Y-5128D01*
X-90335Y-5610D01*
X-90239Y-6092D01*
X-89966Y-6501D01*
X-89557Y-6774D01*
X-89075Y-6870D01*
X-88593Y-6774D01*
X-88184Y-6501D01*
X-87911Y-6092D01*
X-87815Y-5610D01*
X-87911Y-5128D01*
X-88184Y-4719D01*
X-88593Y-4446D01*
X-89075Y-4350D01*
D02*
G37*
G36*
X89882Y-6338D02*
X89400Y-6434D01*
X88991Y-6707D01*
X88718Y-7116D01*
X88622Y-7598D01*
X88718Y-8081D01*
X88991Y-8489D01*
X89400Y-8762D01*
X89882Y-8858D01*
X90364Y-8762D01*
X90773Y-8489D01*
X91046Y-8081D01*
X91142Y-7598D01*
X91046Y-7116D01*
X90773Y-6707D01*
X90364Y-6434D01*
X89882Y-6338D01*
D02*
G37*
G36*
X-49311Y-7500D02*
X-49793Y-7596D01*
X-50202Y-7869D01*
X-50475Y-8278D01*
X-50571Y-8760D01*
X-50475Y-9242D01*
X-50202Y-9651D01*
X-49793Y-9924D01*
X-49311Y-10020D01*
X-48829Y-9924D01*
X-48420Y-9651D01*
X-48147Y-9242D01*
X-48051Y-8760D01*
X-48147Y-8278D01*
X-48420Y-7869D01*
X-48829Y-7596D01*
X-49311Y-7500D01*
D02*
G37*
G36*
X-76673Y-8976D02*
X-77155Y-9072D01*
X-77564Y-9345D01*
X-77837Y-9754D01*
X-77933Y-10236D01*
X-77837Y-10718D01*
X-77564Y-11127D01*
X-77155Y-11400D01*
X-76673Y-11496D01*
X-76191Y-11400D01*
X-75782Y-11127D01*
X-75509Y-10718D01*
X-75413Y-10236D01*
X-75509Y-9754D01*
X-75782Y-9345D01*
X-76191Y-9072D01*
X-76673Y-8976D01*
D02*
G37*
G36*
X-88976Y-9173D02*
X-89459Y-9269D01*
X-89867Y-9542D01*
X-90140Y-9951D01*
X-90236Y-10433D01*
X-90140Y-10915D01*
X-89867Y-11324D01*
X-89459Y-11597D01*
X-88976Y-11693D01*
X-88494Y-11597D01*
X-88085Y-11324D01*
X-87812Y-10915D01*
X-87716Y-10433D01*
X-87812Y-9951D01*
X-88085Y-9542D01*
X-88494Y-9269D01*
X-88976Y-9173D01*
D02*
G37*
G36*
X76575Y-13897D02*
X76093Y-13993D01*
X75684Y-14266D01*
X75411Y-14675D01*
X75315Y-15157D01*
X75411Y-15640D01*
X75684Y-16048D01*
X76093Y-16322D01*
X76575Y-16418D01*
X77057Y-16322D01*
X77466Y-16048D01*
X77739Y-15640D01*
X77835Y-15157D01*
X77739Y-14675D01*
X77466Y-14266D01*
X77057Y-13993D01*
X76575Y-13897D01*
D02*
G37*
G36*
X-56890Y-14685D02*
X-57372Y-14781D01*
X-57781Y-15054D01*
X-58054Y-15463D01*
X-58150Y-15945D01*
X-58054Y-16427D01*
X-57781Y-16836D01*
X-57372Y-17109D01*
X-56890Y-17205D01*
X-56408Y-17109D01*
X-55999Y-16836D01*
X-55726Y-16427D01*
X-55630Y-15945D01*
X-55726Y-15463D01*
X-55999Y-15054D01*
X-56408Y-14781D01*
X-56890Y-14685D01*
D02*
G37*
G36*
X-88976Y-15374D02*
X-89459Y-15470D01*
X-89867Y-15743D01*
X-90140Y-16152D01*
X-90236Y-16634D01*
X-90140Y-17116D01*
X-89867Y-17525D01*
X-89459Y-17798D01*
X-88976Y-17894D01*
X-88494Y-17798D01*
X-88085Y-17525D01*
X-87812Y-17116D01*
X-87716Y-16634D01*
X-87812Y-16152D01*
X-88085Y-15743D01*
X-88494Y-15470D01*
X-88976Y-15374D01*
D02*
G37*
G36*
X-75492Y-16161D02*
X-75974Y-16257D01*
X-76383Y-16530D01*
X-76656Y-16939D01*
X-76752Y-17421D01*
X-76656Y-17903D01*
X-76383Y-18312D01*
X-75974Y-18585D01*
X-75492Y-18681D01*
X-75010Y-18585D01*
X-74601Y-18312D01*
X-74328Y-17903D01*
X-74232Y-17421D01*
X-74328Y-16939D01*
X-74601Y-16530D01*
X-75010Y-16257D01*
X-75492Y-16161D01*
D02*
G37*
G36*
X69095Y-16338D02*
X68612Y-16434D01*
X68204Y-16707D01*
X67930Y-17116D01*
X67835Y-17598D01*
X67930Y-18081D01*
X68204Y-18489D01*
X68612Y-18763D01*
X69095Y-18858D01*
X69577Y-18763D01*
X69986Y-18489D01*
X70259Y-18081D01*
X70354Y-17598D01*
X70259Y-17116D01*
X69986Y-16707D01*
X69577Y-16434D01*
X69095Y-16338D01*
D02*
G37*
G36*
X76378Y-19114D02*
X75896Y-19210D01*
X75487Y-19483D01*
X75214Y-19892D01*
X75118Y-20374D01*
X75214Y-20856D01*
X75487Y-21265D01*
X75896Y-21538D01*
X76378Y-21634D01*
X76860Y-21538D01*
X77269Y-21265D01*
X77542Y-20856D01*
X77638Y-20374D01*
X77542Y-19892D01*
X77269Y-19483D01*
X76860Y-19210D01*
X76378Y-19114D01*
D02*
G37*
G36*
X-60374Y-20000D02*
X-60856Y-20096D01*
X-61265Y-20369D01*
X-61538Y-20778D01*
X-61634Y-21260D01*
X-61538Y-21742D01*
X-61265Y-22151D01*
X-60856Y-22424D01*
X-60374Y-22520D01*
X-59892Y-22424D01*
X-59483Y-22151D01*
X-59210Y-21742D01*
X-59114Y-21260D01*
X-59210Y-20778D01*
X-59483Y-20369D01*
X-59892Y-20096D01*
X-60374Y-20000D01*
D02*
G37*
G36*
X72736Y-21338D02*
X72254Y-21434D01*
X71845Y-21707D01*
X71572Y-22116D01*
X71476Y-22598D01*
X71572Y-23081D01*
X71845Y-23489D01*
X72254Y-23763D01*
X72736Y-23858D01*
X73218Y-23763D01*
X73627Y-23489D01*
X73900Y-23081D01*
X73996Y-22598D01*
X73900Y-22116D01*
X73627Y-21707D01*
X73218Y-21434D01*
X72736Y-21338D01*
D02*
G37*
G36*
X-76083Y-22008D02*
X-76565Y-22104D01*
X-76974Y-22377D01*
X-77247Y-22785D01*
X-77343Y-23268D01*
X-77247Y-23750D01*
X-76974Y-24159D01*
X-76565Y-24432D01*
X-76083Y-24528D01*
X-75600Y-24432D01*
X-75192Y-24159D01*
X-74919Y-23750D01*
X-74823Y-23268D01*
X-74919Y-22785D01*
X-75192Y-22377D01*
X-75600Y-22104D01*
X-76083Y-22008D01*
D02*
G37*
G36*
X-60039Y-26102D02*
X-60522Y-26198D01*
X-60930Y-26471D01*
X-61203Y-26880D01*
X-61299Y-27362D01*
X-61203Y-27844D01*
X-60930Y-28253D01*
X-60522Y-28526D01*
X-60039Y-28622D01*
X-59557Y-28526D01*
X-59148Y-28253D01*
X-58875Y-27844D01*
X-58779Y-27362D01*
X-58875Y-26880D01*
X-59148Y-26471D01*
X-59557Y-26198D01*
X-60039Y-26102D01*
D02*
G37*
G36*
X76772Y-26299D02*
X76289Y-26395D01*
X75881Y-26668D01*
X75608Y-27077D01*
X75512Y-27559D01*
X75608Y-28041D01*
X75881Y-28450D01*
X76289Y-28723D01*
X76772Y-28819D01*
X77254Y-28723D01*
X77663Y-28450D01*
X77936Y-28041D01*
X78032Y-27559D01*
X77936Y-27077D01*
X77663Y-26668D01*
X77254Y-26395D01*
X76772Y-26299D01*
D02*
G37*
G36*
X-1673Y-26399D02*
X-2156Y-26495D01*
X-2564Y-26768D01*
X-2837Y-27177D01*
X-2933Y-27659D01*
X-2837Y-28141D01*
X-2564Y-28550D01*
X-2156Y-28823D01*
X-1673Y-28919D01*
X-1191Y-28823D01*
X-782Y-28550D01*
X-509Y-28141D01*
X-413Y-27659D01*
X-509Y-27177D01*
X-782Y-26768D01*
X-1191Y-26495D01*
X-1673Y-26399D01*
D02*
G37*
G36*
X60335Y-26496D02*
X59852Y-26592D01*
X59444Y-26865D01*
X59171Y-27274D01*
X59075Y-27756D01*
X59171Y-28238D01*
X59444Y-28647D01*
X59852Y-28920D01*
X60335Y-29016D01*
X60817Y-28920D01*
X61226Y-28647D01*
X61499Y-28238D01*
X61595Y-27756D01*
X61499Y-27274D01*
X61226Y-26865D01*
X60817Y-26592D01*
X60335Y-26496D01*
D02*
G37*
G36*
X12205Y-28956D02*
X11722Y-29052D01*
X11314Y-29326D01*
X11041Y-29734D01*
X10945Y-30217D01*
X11041Y-30699D01*
X11314Y-31108D01*
X11722Y-31381D01*
X12205Y-31477D01*
X12687Y-31381D01*
X13096Y-31108D01*
X13369Y-30699D01*
X13465Y-30217D01*
X13369Y-29734D01*
X13096Y-29326D01*
X12687Y-29052D01*
X12205Y-28956D01*
D02*
G37*
G36*
X-24803Y-33287D02*
X-25285Y-33383D01*
X-25694Y-33656D01*
X-25967Y-34065D01*
X-26063Y-34547D01*
X-25967Y-35029D01*
X-25694Y-35438D01*
X-25285Y-35711D01*
X-24803Y-35807D01*
X-24321Y-35711D01*
X-23912Y-35438D01*
X-23639Y-35029D01*
X-23543Y-34547D01*
X-23639Y-34065D01*
X-23912Y-33656D01*
X-24321Y-33383D01*
X-24803Y-33287D01*
D02*
G37*
G36*
X-11024Y-34868D02*
X-11391Y-34941D01*
X-11702Y-35149D01*
X-11910Y-35460D01*
X-11983Y-35827D01*
X-11929Y-36097D01*
X-11910Y-36194D01*
X-11906Y-36242D01*
X-11908Y-36266D01*
X-12385Y-36544D01*
X-12428Y-36516D01*
X-12795Y-36443D01*
X-13162Y-36516D01*
X-13473Y-36724D01*
X-13681Y-37035D01*
X-13754Y-37402D01*
X-13681Y-37769D01*
X-13473Y-38080D01*
X-13162Y-38287D01*
X-12795Y-38361D01*
X-12428Y-38287D01*
X-12117Y-38080D01*
X-11909Y-37769D01*
X-11836Y-37402D01*
X-11890Y-37131D01*
X-11909Y-37035D01*
X-11913Y-36986D01*
X-11911Y-36963D01*
X-11434Y-36684D01*
X-11391Y-36713D01*
X-11024Y-36786D01*
X-10657Y-36713D01*
X-10345Y-36505D01*
X-10138Y-36194D01*
X-10065Y-35827D01*
X-10138Y-35460D01*
X-10345Y-35149D01*
X-10657Y-34941D01*
X-11024Y-34868D01*
D02*
G37*
G36*
X-6890Y-34969D02*
X-7257Y-35041D01*
X-7568Y-35249D01*
X-7776Y-35561D01*
X-7849Y-35928D01*
X-7784Y-36256D01*
X-7869Y-36364D01*
X-8177Y-36594D01*
X-8294Y-36516D01*
X-8661Y-36443D01*
X-9028Y-36516D01*
X-9340Y-36724D01*
X-9547Y-37035D01*
X-9620Y-37402D01*
X-9547Y-37769D01*
X-9340Y-38080D01*
X-9028Y-38287D01*
X-8661Y-38361D01*
X-8294Y-38287D01*
X-7983Y-38080D01*
X-7775Y-37769D01*
X-7702Y-37402D01*
X-7768Y-37073D01*
X-7682Y-36965D01*
X-7374Y-36735D01*
X-7257Y-36814D01*
X-6890Y-36887D01*
X-6523Y-36814D01*
X-6212Y-36606D01*
X-6004Y-36294D01*
X-5931Y-35928D01*
X-6004Y-35561D01*
X-6212Y-35249D01*
X-6523Y-35041D01*
X-6890Y-34969D01*
D02*
G37*
G36*
X-14863Y-34968D02*
X-15230Y-35041D01*
X-15541Y-35249D01*
X-15749Y-35560D01*
X-15822Y-35927D01*
X-15771Y-36185D01*
X-15749Y-36294D01*
X-15750Y-36347D01*
X-16200Y-36621D01*
X-16245Y-36596D01*
X-16365Y-36516D01*
X-16732Y-36443D01*
X-17099Y-36516D01*
X-17410Y-36724D01*
X-17618Y-37035D01*
X-17691Y-37402D01*
X-17618Y-37769D01*
X-17410Y-38080D01*
X-17099Y-38287D01*
X-16732Y-38361D01*
X-16365Y-38287D01*
X-16054Y-38080D01*
X-15846Y-37769D01*
X-15773Y-37402D01*
X-15825Y-37144D01*
X-15846Y-37035D01*
X-15845Y-36981D01*
X-15395Y-36707D01*
X-15350Y-36732D01*
X-15230Y-36813D01*
X-14863Y-36886D01*
X-14496Y-36813D01*
X-14185Y-36605D01*
X-13977Y-36294D01*
X-13904Y-35927D01*
X-13977Y-35560D01*
X-14185Y-35249D01*
X-14496Y-35041D01*
X-14863Y-34968D01*
D02*
G37*
G36*
X-18701Y-34966D02*
X-19068Y-35039D01*
X-19379Y-35247D01*
X-19587Y-35558D01*
X-19660Y-35925D01*
X-19587Y-36292D01*
X-19379Y-36603D01*
X-19068Y-36811D01*
X-18701Y-36884D01*
X-18334Y-36811D01*
X-18023Y-36603D01*
X-17815Y-36292D01*
X-17742Y-35925D01*
X-17815Y-35558D01*
X-18023Y-35247D01*
X-18334Y-35039D01*
X-18701Y-34966D01*
D02*
G37*
G36*
X2953Y-34969D02*
X2586Y-35041D01*
X2275Y-35249D01*
X2067Y-35561D01*
X1994Y-35928D01*
X2067Y-36294D01*
X2275Y-36606D01*
X2586Y-36814D01*
X2953Y-36887D01*
X3320Y-36814D01*
X3631Y-36606D01*
X3839Y-36294D01*
X3912Y-35928D01*
X3839Y-35561D01*
X3631Y-35249D01*
X3320Y-35041D01*
X2953Y-34969D01*
D02*
G37*
G36*
X-984D02*
X-1351Y-35041D01*
X-1662Y-35249D01*
X-1870Y-35561D01*
X-1943Y-35928D01*
X-1870Y-36294D01*
X-1662Y-36606D01*
X-1351Y-36814D01*
X-984Y-36887D01*
X-617Y-36814D01*
X-306Y-36606D01*
X-98Y-36294D01*
X-25Y-35928D01*
X-98Y-35561D01*
X-306Y-35249D01*
X-617Y-35041D01*
X-984Y-34969D01*
D02*
G37*
G36*
X8858Y-34665D02*
X8376Y-34761D01*
X7967Y-35034D01*
X7694Y-35443D01*
X7598Y-35925D01*
X7694Y-36407D01*
X7967Y-36816D01*
X8376Y-37089D01*
X8858Y-37185D01*
X9341Y-37089D01*
X9749Y-36816D01*
X10022Y-36407D01*
X10118Y-35925D01*
X10022Y-35443D01*
X9749Y-35034D01*
X9341Y-34761D01*
X8858Y-34665D01*
D02*
G37*
G36*
X18701Y-36639D02*
X18334Y-36713D01*
X18023Y-36920D01*
X17815Y-37231D01*
X17742Y-37598D01*
X17815Y-37965D01*
X18023Y-38276D01*
X18334Y-38484D01*
X18701Y-38557D01*
X19068Y-38484D01*
X19379Y-38276D01*
X19587Y-37965D01*
X19660Y-37598D01*
X19587Y-37231D01*
X19379Y-36920D01*
X19068Y-36713D01*
X18701Y-36639D01*
D02*
G37*
G36*
X984D02*
X617Y-36713D01*
X306Y-36920D01*
X98Y-37231D01*
X25Y-37598D01*
X98Y-37965D01*
X306Y-38276D01*
X617Y-38484D01*
X984Y-38557D01*
X1351Y-38484D01*
X1662Y-38276D01*
X1870Y-37965D01*
X1943Y-37598D01*
X1870Y-37231D01*
X1662Y-36920D01*
X1351Y-36713D01*
X984Y-36639D01*
D02*
G37*
G36*
X-4921D02*
X-5288Y-36713D01*
X-5599Y-36920D01*
X-5807Y-37231D01*
X-5880Y-37598D01*
X-5807Y-37965D01*
X-5599Y-38276D01*
X-5288Y-38484D01*
X-4921Y-38557D01*
X-4554Y-38484D01*
X-4243Y-38276D01*
X-4035Y-37965D01*
X-3962Y-37598D01*
X-4035Y-37231D01*
X-4243Y-36920D01*
X-4554Y-36713D01*
X-4921Y-36639D01*
D02*
G37*
G36*
X6890Y-43726D02*
X6523Y-43799D01*
X6212Y-44007D01*
X6206Y-44015D01*
X5605D01*
X5599Y-44007D01*
X5288Y-43799D01*
X4921Y-43726D01*
X4554Y-43799D01*
X4243Y-44007D01*
X4035Y-44318D01*
X3962Y-44685D01*
X4035Y-45052D01*
X4243Y-45363D01*
X4554Y-45571D01*
X4921Y-45644D01*
X5288Y-45571D01*
X5599Y-45363D01*
X5605Y-45355D01*
X6206D01*
X6212Y-45363D01*
X6523Y-45571D01*
X6890Y-45644D01*
X7257Y-45571D01*
X7568Y-45363D01*
X7776Y-45052D01*
X7849Y-44685D01*
X7776Y-44318D01*
X7568Y-44007D01*
X7257Y-43799D01*
X6890Y-43726D01*
D02*
G37*
G36*
X10827D02*
X10460Y-43799D01*
X10149Y-44007D01*
X9941Y-44318D01*
X9868Y-44685D01*
X9941Y-45052D01*
X10149Y-45363D01*
X10460Y-45571D01*
X10827Y-45644D01*
X11194Y-45571D01*
X11505Y-45363D01*
X11713Y-45052D01*
X11786Y-44685D01*
X11713Y-44318D01*
X11505Y-44007D01*
X11194Y-43799D01*
X10827Y-43726D01*
D02*
G37*
%LPD*%
G36*
X27854Y-25098D02*
X7017D01*
X6865Y-24598D01*
X6993Y-24513D01*
X7266Y-24104D01*
X7362Y-23622D01*
X7266Y-23140D01*
X6993Y-22731D01*
X6585Y-22458D01*
X6102Y-22362D01*
X5620Y-22458D01*
X5211Y-22731D01*
X4938Y-23140D01*
X4842Y-23622D01*
X4938Y-24104D01*
X5211Y-24513D01*
X5339Y-24598D01*
X5187Y-25098D01*
X-17251D01*
X-17517Y-24598D01*
X-17441Y-24213D01*
X-17537Y-23730D01*
X-17810Y-23322D01*
X-18219Y-23049D01*
X-18701Y-22953D01*
X-19183Y-23049D01*
X-19592Y-23322D01*
X-19865Y-23730D01*
X-19961Y-24213D01*
X-19884Y-24598D01*
X-20151Y-25098D01*
X-24233D01*
X-24379Y-24686D01*
X-24396Y-24598D01*
X-24132Y-24204D01*
X-24036Y-23722D01*
X-24132Y-23239D01*
X-24406Y-22831D01*
X-24814Y-22558D01*
X-25297Y-22462D01*
X-25779Y-22558D01*
X-26188Y-22831D01*
X-26461Y-23239D01*
X-26557Y-23722D01*
X-26461Y-24204D01*
X-26197Y-24598D01*
X-26214Y-24686D01*
X-26360Y-25098D01*
X-27264D01*
Y29921D01*
X27854D01*
Y-25098D01*
D02*
G37*
%LPC*%
G36*
X-2461Y20152D02*
X-2828Y20079D01*
X-3139Y19871D01*
X-3347Y19560D01*
X-3420Y19193D01*
X-3347Y18826D01*
X-3139Y18515D01*
X-2828Y18307D01*
X-2461Y18234D01*
X-2094Y18307D01*
X-1782Y18515D01*
X-1575Y18826D01*
X-1502Y19193D01*
X-1575Y19560D01*
X-1782Y19871D01*
X-2094Y20079D01*
X-2461Y20152D01*
D02*
G37*
G36*
X10040Y20460D02*
X9442Y20341D01*
X8936Y20002D01*
X8598Y19496D01*
X8479Y18899D01*
X8598Y18301D01*
X8936Y17795D01*
X9442Y17456D01*
X10040Y17337D01*
X10637Y17456D01*
X11144Y17795D01*
X11482Y18301D01*
X11601Y18899D01*
X11482Y19496D01*
X11144Y20002D01*
X10637Y20341D01*
X10040Y20460D01*
D02*
G37*
G36*
X-16043Y17298D02*
X-16410Y17225D01*
X-16721Y17017D01*
X-16929Y16706D01*
X-17002Y16339D01*
X-16929Y15972D01*
X-16721Y15661D01*
X-16410Y15453D01*
X-16043Y15380D01*
X-15676Y15453D01*
X-15365Y15661D01*
X-15157Y15972D01*
X-15084Y16339D01*
X-15157Y16706D01*
X-15365Y17017D01*
X-15676Y17225D01*
X-16043Y17298D01*
D02*
G37*
G36*
X-1673Y15231D02*
X-2040Y15158D01*
X-2351Y14950D01*
X-2559Y14639D01*
X-2632Y14272D01*
X-2559Y13905D01*
X-2351Y13593D01*
X-2040Y13386D01*
X-1673Y13313D01*
X-1306Y13386D01*
X-995Y13593D01*
X-787Y13905D01*
X-714Y14272D01*
X-787Y14639D01*
X-995Y14950D01*
X-1306Y15158D01*
X-1673Y15231D01*
D02*
G37*
G36*
X18406Y14148D02*
X18038Y14075D01*
X17727Y13867D01*
X17519Y13556D01*
X17447Y13189D01*
X17519Y12822D01*
X17727Y12511D01*
X18038Y12303D01*
X18406Y12230D01*
X18772Y12303D01*
X19084Y12511D01*
X19291Y12822D01*
X19365Y13189D01*
X19291Y13556D01*
X19084Y13867D01*
X18772Y14075D01*
X18406Y14148D01*
D02*
G37*
G36*
X-19094Y14050D02*
X-19462Y13976D01*
X-19773Y13769D01*
X-19981Y13457D01*
X-20053Y13091D01*
X-19981Y12724D01*
X-19773Y12412D01*
X-19462Y12205D01*
X-19094Y12132D01*
X-18728Y12205D01*
X-18416Y12412D01*
X-18209Y12724D01*
X-18135Y13091D01*
X-18209Y13457D01*
X-18416Y13769D01*
X-18728Y13976D01*
X-19094Y14050D01*
D02*
G37*
G36*
X689Y11988D02*
X207Y11892D01*
X-202Y11619D01*
X-475Y11210D01*
X-571Y10728D01*
X-475Y10246D01*
X-202Y9837D01*
X207Y9564D01*
X689Y9468D01*
X1171Y9564D01*
X1580Y9837D01*
X1853Y10246D01*
X1949Y10728D01*
X1853Y11210D01*
X1580Y11619D01*
X1171Y11892D01*
X689Y11988D01*
D02*
G37*
G36*
X13780Y10807D02*
X13297Y10711D01*
X12889Y10438D01*
X12615Y10029D01*
X12519Y9547D01*
X12615Y9065D01*
X12889Y8656D01*
X13297Y8383D01*
X13780Y8287D01*
X14262Y8383D01*
X14671Y8656D01*
X14944Y9065D01*
X15040Y9547D01*
X14944Y10029D01*
X14671Y10438D01*
X14262Y10711D01*
X13780Y10807D01*
D02*
G37*
G36*
X2287Y6612D02*
X1920Y6539D01*
X1609Y6332D01*
X1552Y6246D01*
X975D01*
X918Y6332D01*
X607Y6539D01*
X240Y6612D01*
X-127Y6539D01*
X-438Y6332D01*
X-495Y6246D01*
X-1072D01*
X-1129Y6332D01*
X-1440Y6539D01*
X-1807Y6612D01*
X-2174Y6539D01*
X-2485Y6332D01*
X-2609Y6147D01*
X-2625Y6140D01*
X-3068Y6121D01*
X-3164Y6147D01*
X-3259Y6288D01*
X-3570Y6496D01*
X-3937Y6569D01*
X-4304Y6496D01*
X-4615Y6288D01*
X-4823Y5977D01*
X-4896Y5610D01*
X-4823Y5243D01*
X-4615Y4932D01*
X-4304Y4724D01*
X-3937Y4651D01*
X-3570Y4724D01*
X-3259Y4932D01*
X-3238Y4964D01*
X-2683Y5022D01*
X-2445Y4803D01*
X-2468Y4296D01*
X-2485Y4284D01*
X-2693Y3973D01*
X-2766Y3606D01*
X-2693Y3239D01*
X-2485Y2928D01*
X-2381Y2858D01*
X-2343Y2290D01*
X-2346Y2280D01*
X-2410Y2237D01*
X-2526Y2065D01*
X-2998Y2026D01*
X-3091Y2050D01*
X-3161Y2155D01*
X-3472Y2362D01*
X-3839Y2435D01*
X-4206Y2362D01*
X-4517Y2155D01*
X-4589Y2046D01*
X-5155D01*
X-5227Y2155D01*
X-5507Y2341D01*
X-5523Y2475D01*
X-5469Y2858D01*
X-5434Y2865D01*
X-5123Y3073D01*
X-4915Y3384D01*
X-4842Y3751D01*
X-4915Y4118D01*
X-5123Y4429D01*
X-5434Y4637D01*
X-5801Y4710D01*
X-6168Y4637D01*
X-6480Y4429D01*
X-6687Y4118D01*
X-6760Y3751D01*
X-6687Y3384D01*
X-6480Y3073D01*
X-6200Y2887D01*
X-6184Y2753D01*
X-6238Y2369D01*
X-6273Y2362D01*
X-6584Y2155D01*
X-6792Y1843D01*
X-6865Y1476D01*
X-6792Y1109D01*
X-6584Y798D01*
X-6273Y590D01*
X-5906Y517D01*
X-5539Y590D01*
X-5227Y798D01*
X-5155Y906D01*
X-4589D01*
X-4517Y798D01*
X-4206Y590D01*
X-3839Y517D01*
X-3472Y590D01*
X-3161Y798D01*
X-3045Y971D01*
X-2573Y1010D01*
X-2480Y985D01*
X-2410Y881D01*
X-2099Y673D01*
X-1732Y600D01*
X-1365Y673D01*
X-1054Y881D01*
X-846Y1192D01*
X-773Y1559D01*
X-846Y1926D01*
X-1054Y2237D01*
X-1159Y2307D01*
X-1197Y2876D01*
X-1193Y2885D01*
X-1129Y2928D01*
X-921Y3239D01*
X-848Y3606D01*
X-921Y3973D01*
X-1129Y4284D01*
X-1214Y4341D01*
Y4918D01*
X-1129Y4975D01*
X-1072Y5061D01*
X-495D01*
X-438Y4975D01*
X-127Y4768D01*
X240Y4695D01*
X607Y4768D01*
X918Y4975D01*
X1423Y4946D01*
X1562Y4790D01*
X1527Y4237D01*
X1319Y3926D01*
X1246Y3559D01*
X1319Y3192D01*
X1527Y2881D01*
X1838Y2673D01*
X2205Y2600D01*
X2572Y2673D01*
X2883Y2881D01*
X3091Y3192D01*
X3164Y3559D01*
X3091Y3926D01*
X2883Y4237D01*
X2787Y4301D01*
X2767Y4374D01*
X2807Y4869D01*
X2966Y4975D01*
X3173Y5287D01*
X3246Y5654D01*
X3173Y6021D01*
X2966Y6332D01*
X2654Y6539D01*
X2287Y6612D01*
D02*
G37*
G36*
X19291Y7750D02*
X18924Y7677D01*
X18613Y7469D01*
X18405Y7158D01*
X18332Y6791D01*
X18405Y6424D01*
X18613Y6113D01*
X18924Y5905D01*
X19291Y5832D01*
X19658Y5905D01*
X19969Y6113D01*
X20177Y6424D01*
X20250Y6791D01*
X20177Y7158D01*
X19969Y7469D01*
X19658Y7677D01*
X19291Y7750D01*
D02*
G37*
G36*
X16634Y7356D02*
X16267Y7283D01*
X15956Y7075D01*
X15748Y6764D01*
X15675Y6397D01*
X15748Y6030D01*
X15956Y5719D01*
X16267Y5511D01*
X16634Y5438D01*
X17001Y5511D01*
X17312Y5719D01*
X17520Y6030D01*
X17593Y6397D01*
X17520Y6764D01*
X17312Y7075D01*
X17001Y7283D01*
X16634Y7356D01*
D02*
G37*
G36*
X-12992Y7258D02*
X-13359Y7185D01*
X-13670Y6977D01*
X-13878Y6666D01*
X-13951Y6299D01*
X-13878Y5932D01*
X-13670Y5621D01*
X-13359Y5413D01*
X-12992Y5340D01*
X-12625Y5413D01*
X-12314Y5621D01*
X-12106Y5932D01*
X-12033Y6299D01*
X-12106Y6666D01*
X-12314Y6977D01*
X-12625Y7185D01*
X-12992Y7258D01*
D02*
G37*
G36*
X12697Y7559D02*
X12215Y7463D01*
X11806Y7190D01*
X11533Y6781D01*
X11437Y6299D01*
X11533Y5817D01*
X11806Y5408D01*
X12215Y5135D01*
X12697Y5039D01*
X13179Y5135D01*
X13588Y5408D01*
X13861Y5817D01*
X13957Y6299D01*
X13861Y6781D01*
X13588Y7190D01*
X13179Y7463D01*
X12697Y7559D01*
D02*
G37*
G36*
X-11122Y5093D02*
X-11489Y5020D01*
X-11800Y4812D01*
X-12008Y4501D01*
X-12081Y4134D01*
X-12008Y3767D01*
X-11800Y3456D01*
X-11489Y3248D01*
X-11122Y3175D01*
X-10755Y3248D01*
X-10444Y3456D01*
X-10236Y3767D01*
X-10163Y4134D01*
X-10236Y4501D01*
X-10444Y4812D01*
X-10755Y5020D01*
X-11122Y5093D01*
D02*
G37*
G36*
X-18701Y1156D02*
X-19068Y1083D01*
X-19379Y875D01*
X-19587Y564D01*
X-19660Y197D01*
X-19587Y-170D01*
X-19379Y-481D01*
X-19068Y-689D01*
X-18701Y-762D01*
X-18334Y-689D01*
X-18023Y-481D01*
X-17815Y-170D01*
X-17742Y197D01*
X-17815Y564D01*
X-18023Y875D01*
X-18334Y1083D01*
X-18701Y1156D01*
D02*
G37*
G36*
X10630Y959D02*
X10263Y886D01*
X9952Y678D01*
X9744Y367D01*
X9671Y0D01*
X9744Y-367D01*
X9952Y-678D01*
X10263Y-886D01*
X10630Y-959D01*
X10997Y-886D01*
X11308Y-678D01*
X11516Y-367D01*
X11589Y0D01*
X11516Y367D01*
X11308Y678D01*
X10997Y886D01*
X10630Y959D01*
D02*
G37*
G36*
X-13032Y459D02*
X-13399Y386D01*
X-13710Y178D01*
X-13918Y-133D01*
X-13991Y-500D01*
X-13918Y-867D01*
X-13710Y-1178D01*
X-13399Y-1386D01*
X-13032Y-1459D01*
X-12665Y-1386D01*
X-12354Y-1178D01*
X-12146Y-867D01*
X-12073Y-500D01*
X-12146Y-133D01*
X-12354Y178D01*
X-12665Y386D01*
X-13032Y459D01*
D02*
G37*
G36*
X2213Y428D02*
X1846Y354D01*
X1534Y147D01*
X1327Y-164D01*
X1254Y-532D01*
X1327Y-898D01*
X1534Y-1210D01*
X1846Y-1417D01*
X2213Y-1491D01*
X2580Y-1417D01*
X2891Y-1210D01*
X3099Y-898D01*
X3172Y-532D01*
X3099Y-164D01*
X2891Y147D01*
X2580Y354D01*
X2213Y428D01*
D02*
G37*
G36*
X-7949Y471D02*
X-8316Y398D01*
X-8627Y190D01*
X-8835Y-121D01*
X-8908Y-488D01*
X-8835Y-855D01*
X-8627Y-1166D01*
X-8555Y-1214D01*
X-8548Y-1317D01*
X-8519Y-1791D01*
X-8525Y-1803D01*
X-8724Y-2101D01*
X-8749Y-2230D01*
X-8797Y-2468D01*
X-8724Y-2835D01*
X-8516Y-3146D01*
X-8205Y-3353D01*
X-7838Y-3427D01*
X-7471Y-3353D01*
X-7159Y-3146D01*
X-6952Y-2835D01*
X-6879Y-2468D01*
X-6952Y-2101D01*
X-7159Y-1790D01*
X-7231Y-1741D01*
X-7238Y-1638D01*
X-7267Y-1165D01*
X-7261Y-1152D01*
X-7063Y-855D01*
X-7037Y-726D01*
X-6990Y-488D01*
X-7063Y-121D01*
X-7271Y190D01*
X-7582Y398D01*
X-7949Y471D01*
D02*
G37*
G36*
X-1807Y-1576D02*
X-2174Y-1649D01*
X-2485Y-1857D01*
X-2693Y-2168D01*
X-2766Y-2535D01*
X-2693Y-2902D01*
X-2485Y-3213D01*
X-2174Y-3421D01*
X-1807Y-3494D01*
X-1440Y-3421D01*
X-1129Y-3213D01*
X-921Y-2902D01*
X-848Y-2535D01*
X-921Y-2168D01*
X-1129Y-1857D01*
X-1440Y-1649D01*
X-1807Y-1576D01*
D02*
G37*
G36*
X6330Y-1639D02*
X5963Y-1712D01*
X5652Y-1920D01*
X5444Y-2231D01*
X5371Y-2598D01*
X5444Y-2965D01*
X5652Y-3277D01*
X5963Y-3484D01*
X6330Y-3557D01*
X6697Y-3484D01*
X7008Y-3277D01*
X7018Y-3262D01*
X7076Y-3245D01*
X7596Y-3297D01*
X7688Y-3434D01*
X7999Y-3642D01*
X8366Y-3715D01*
X8733Y-3642D01*
X9044Y-3434D01*
X9252Y-3123D01*
X9325Y-2756D01*
X9252Y-2389D01*
X9044Y-2078D01*
X8733Y-1870D01*
X8366Y-1797D01*
X7999Y-1870D01*
X7688Y-2078D01*
X7679Y-2092D01*
X7620Y-2110D01*
X7100Y-2058D01*
X7008Y-1920D01*
X6697Y-1712D01*
X6330Y-1639D01*
D02*
G37*
G36*
X25492Y-1496D02*
X25010Y-1592D01*
X24601Y-1865D01*
X24328Y-2274D01*
X24232Y-2756D01*
X24328Y-3238D01*
X24601Y-3647D01*
X25010Y-3920D01*
X25492Y-4016D01*
X25974Y-3920D01*
X26383Y-3647D01*
X26656Y-3238D01*
X26752Y-2756D01*
X26656Y-2274D01*
X26383Y-1865D01*
X25974Y-1592D01*
X25492Y-1496D01*
D02*
G37*
G36*
X-24705Y-1693D02*
X-25187Y-1789D01*
X-25596Y-2062D01*
X-25869Y-2471D01*
X-25965Y-2953D01*
X-25869Y-3435D01*
X-25596Y-3844D01*
X-25187Y-4117D01*
X-24705Y-4213D01*
X-24223Y-4117D01*
X-23814Y-3844D01*
X-23541Y-3435D01*
X-23445Y-2953D01*
X-23541Y-2471D01*
X-23814Y-2062D01*
X-24223Y-1789D01*
X-24705Y-1693D01*
D02*
G37*
G36*
X14666Y-4750D02*
X14299Y-4823D01*
X13988Y-5031D01*
X13780Y-5342D01*
X13707Y-5709D01*
X13780Y-6076D01*
X13988Y-6387D01*
X14299Y-6595D01*
X14666Y-6668D01*
X15033Y-6595D01*
X15344Y-6387D01*
X15552Y-6076D01*
X15625Y-5709D01*
X15552Y-5342D01*
X15344Y-5031D01*
X15033Y-4823D01*
X14666Y-4750D01*
D02*
G37*
G36*
X-3854Y-5671D02*
X-4221Y-5744D01*
X-4532Y-5952D01*
X-4740Y-6263D01*
X-4813Y-6630D01*
X-4740Y-6997D01*
X-4532Y-7308D01*
X-4221Y-7516D01*
X-3854Y-7589D01*
X-3487Y-7516D01*
X-3176Y-7308D01*
X-2968Y-6997D01*
X-2895Y-6630D01*
X-2968Y-6263D01*
X-3176Y-5952D01*
X-3487Y-5744D01*
X-3854Y-5671D01*
D02*
G37*
G36*
X4252Y-5714D02*
X3885Y-5787D01*
X3574Y-5995D01*
X3366Y-6306D01*
X3293Y-6673D01*
X3366Y-7040D01*
X3574Y-7351D01*
X3885Y-7559D01*
X4252Y-7632D01*
X4619Y-7559D01*
X4930Y-7351D01*
X5138Y-7040D01*
X5211Y-6673D01*
X5138Y-6306D01*
X4930Y-5995D01*
X4619Y-5787D01*
X4252Y-5714D01*
D02*
G37*
G36*
X-12894Y-8195D02*
X-13261Y-8268D01*
X-13572Y-8475D01*
X-13780Y-8787D01*
X-13853Y-9154D01*
X-13780Y-9521D01*
X-13572Y-9832D01*
X-13261Y-10040D01*
X-12894Y-10113D01*
X-12527Y-10040D01*
X-12216Y-9832D01*
X-12008Y-9521D01*
X-11935Y-9154D01*
X-12008Y-8787D01*
X-12216Y-8475D01*
X-12527Y-8268D01*
X-12894Y-8195D01*
D02*
G37*
G36*
X16634Y-10551D02*
X16152Y-10647D01*
X15743Y-10920D01*
X15470Y-11329D01*
X15374Y-11811D01*
X15470Y-12293D01*
X15743Y-12702D01*
X16152Y-12975D01*
X16634Y-13071D01*
X17116Y-12975D01*
X17525Y-12702D01*
X17798Y-12293D01*
X17894Y-11811D01*
X17798Y-11329D01*
X17525Y-10920D01*
X17116Y-10647D01*
X16634Y-10551D01*
D02*
G37*
G36*
X14665Y-17348D02*
X14298Y-17421D01*
X13987Y-17629D01*
X13779Y-17940D01*
X13706Y-18307D01*
X13779Y-18674D01*
X13987Y-18985D01*
X14298Y-19193D01*
X14665Y-19266D01*
X15032Y-19193D01*
X15344Y-18985D01*
X15551Y-18674D01*
X15624Y-18307D01*
X15551Y-17940D01*
X15344Y-17629D01*
X15032Y-17421D01*
X14665Y-17348D01*
D02*
G37*
G36*
X22638Y-21673D02*
X22156Y-21769D01*
X21747Y-22042D01*
X21474Y-22451D01*
X21378Y-22933D01*
X21474Y-23415D01*
X21747Y-23824D01*
X22156Y-24097D01*
X22638Y-24193D01*
X23120Y-24097D01*
X23529Y-23824D01*
X23802Y-23415D01*
X23898Y-22933D01*
X23802Y-22451D01*
X23529Y-22042D01*
X23120Y-21769D01*
X22638Y-21673D01*
D02*
G37*
%LPD*%
D41*
X39664Y2362D02*
D03*
X-39076D02*
D03*
X-99016Y-12106D02*
D03*
X99016Y-13484D02*
D03*
D42*
X18307Y-27800D02*
D03*
X-34547Y-46063D02*
D03*
X34547Y-46063D02*
D03*
X27657Y-52953D02*
D03*
X20768Y-46063D02*
D03*
X44882Y13681D02*
D03*
X38287Y28051D02*
D03*
X-20472Y32677D02*
D03*
X-30512Y28051D02*
D03*
X-44980Y24508D02*
D03*
X-75886Y-6004D02*
D03*
X-86319Y11319D02*
D03*
X-75394Y-3347D02*
D03*
X-83465Y1280D02*
D03*
X-59842Y394D02*
D03*
X-60335Y3740D02*
D03*
X-73130Y-8760D02*
D03*
X-72638Y-18996D02*
D03*
X-72736Y-14961D02*
D03*
Y-27362D02*
D03*
X-27657Y-52461D02*
D03*
X27657Y-39173D02*
D03*
X20669Y-37303D02*
D03*
X29331Y-27953D02*
D03*
X56102Y6102D02*
D03*
X60138Y-4921D02*
D03*
X65256Y-12795D02*
D03*
X89173Y-27559D02*
D03*
Y-21358D02*
D03*
Y-15157D02*
D03*
Y-2461D02*
D03*
X83366Y2953D02*
D03*
X78051Y5906D02*
D03*
X84153Y6004D02*
D03*
D43*
X2205Y-4626D02*
D03*
X-23917Y-6201D02*
D03*
X-23819Y197D02*
D03*
X-24114Y3347D02*
D03*
Y9547D02*
D03*
X-11712Y24902D02*
D03*
X-5512Y24803D02*
D03*
X-2067Y24508D02*
D03*
X4528Y24114D02*
D03*
X16831Y19685D02*
D03*
X-23623Y-9154D02*
D03*
X25000Y-6004D02*
D03*
X24608Y-8956D02*
D03*
Y3445D02*
D03*
X24509Y9745D02*
D03*
X6890Y25295D02*
D03*
X-20768Y27362D02*
D03*
X-2953Y-44685D02*
D03*
X-7949Y-6630D02*
D03*
X-5610Y-6595D02*
D03*
X-5902Y-488D02*
D03*
X-3754Y3751D02*
D03*
X6342Y3480D02*
D03*
X8390Y5528D02*
D03*
X4252Y1516D02*
D03*
X2205D02*
D03*
Y-2579D02*
D03*
X4252Y-4626D02*
D03*
X2205Y-6673D02*
D03*
X-1807Y-6630D02*
D03*
X-5902Y-2535D02*
D03*
D44*
X3051Y-24016D02*
D03*
M02*
