G04*
G04 #@! TF.GenerationSoftware,Altium Limited,Altium Designer,19.0.11 (319)*
G04*
G04 Layer_Physical_Order=6*
G04 Layer_Color=16711680*
%FSLAX25Y25*%
%MOIN*%
G70*
G01*
G75*
%ADD11C,0.00394*%
%ADD12C,0.00787*%
%ADD16R,0.03543X0.03937*%
%ADD17R,0.03937X0.03543*%
%ADD18R,0.03347X0.03740*%
%ADD38C,0.03937*%
%ADD40C,0.01181*%
%ADD41C,0.15748*%
%ADD42C,0.01772*%
%ADD43C,0.01181*%
%ADD44C,0.01968*%
%ADD45C,0.02362*%
%ADD46C,0.00890*%
%ADD47R,0.10236X0.03150*%
%ADD48R,0.10236X0.02756*%
%ADD49R,0.14173X0.03150*%
%ADD50R,0.03150X0.03150*%
D11*
X-1785Y-2557D02*
X-803Y-1575D01*
X-75590Y4724D02*
X-68898Y-1969D01*
X-84055Y4724D02*
X-75590D01*
X21949Y3445D02*
X21949Y3445D01*
X24608D01*
X21949Y-8956D02*
X24608D01*
X21949Y-8957D02*
X21949Y-8956D01*
X-23917Y-6201D02*
X-20965Y-9154D01*
X-23819Y197D02*
Y197D01*
Y197D02*
X-20866Y-2756D01*
Y-2953D02*
Y-2756D01*
X-24114Y3347D02*
X-21063D01*
X-24114Y9547D02*
X-21063D01*
X-11713Y21850D02*
Y24902D01*
X-5512Y24803D02*
X-5512Y24803D01*
X-5512Y21752D02*
Y24803D01*
X-2067Y24508D02*
X689Y21752D01*
X4528Y24114D02*
X6890Y21752D01*
X6693D02*
X6890D01*
X21949Y-2953D02*
X25000Y-6004D01*
X21949Y-2953D02*
Y-2756D01*
X17913Y28839D02*
X34646Y12106D01*
X-21457Y28839D02*
X17913D01*
X-35728Y14567D02*
X-21457Y28839D01*
X-35728Y12205D02*
Y14567D01*
X-29937Y-37319D02*
X-19279Y-47977D01*
X-37303Y-31004D02*
X-19587Y-48720D01*
X-19279Y-47977D02*
X5862D01*
X-19587Y-48720D02*
X6791D01*
X-65748Y-31004D02*
X-37303D01*
X-29937Y-37319D02*
Y6413D01*
X5862Y-47977D02*
X16240Y-37598D01*
X6791Y-48720D02*
X10827Y-44685D01*
X-35728Y12205D02*
X-29937Y6413D01*
X16240Y-37598D02*
X18701D01*
X-68898Y-27854D02*
Y-1969D01*
Y-27854D02*
X-65748Y-31004D01*
X-12905Y-37292D02*
X-12795Y-37402D01*
X-13098Y-500D02*
X-13032D01*
X-15256Y-2658D02*
X-13098Y-500D01*
X-15650Y-9154D02*
X-12894D01*
X1252Y472D02*
X2234Y-510D01*
X1244Y4563D02*
X2226Y3581D01*
X2309Y5632D02*
X3291Y6614D01*
X5339Y2520D02*
X6321Y3502D01*
X7386Y4567D02*
X8368Y5549D01*
X3291Y2520D02*
X4274Y1537D01*
X1244Y2520D02*
X2226Y1537D01*
X1244Y-1575D02*
X2226Y-2557D01*
X3291Y-3622D02*
X4274Y-4604D01*
X1244Y-3622D02*
X2226Y-4604D01*
X1244Y-5669D02*
X2226Y-6652D01*
X-1785D02*
X-803Y-5669D01*
X-5880Y-6652D02*
X-4898Y-5669D01*
X-7927Y-6652D02*
X-6945Y-5669D01*
X-5880Y-2557D02*
X-4898Y-1575D01*
X-5880Y-510D02*
X-4898Y472D01*
X-3906Y3512D02*
X-2850Y4567D01*
X262Y5632D02*
X1244Y6614D01*
X-1785Y3585D02*
X-803Y4567D01*
X-5801Y3751D02*
X-5757D01*
X-4942Y4567D01*
X-4898D01*
X-1785Y5632D02*
X-803Y6614D01*
X-5953Y5559D02*
Y10973D01*
X-6945Y4567D02*
X-5953Y5559D01*
X-7927Y-510D02*
X-6945Y472D01*
X-1711Y1537D02*
X-728Y2520D01*
X-7838Y-2468D02*
X-6945Y-1575D01*
X-4898Y6614D02*
X-3915Y5632D01*
X-14961Y4134D02*
X-11122D01*
X-15748Y3347D02*
X-14961Y4134D01*
X-6945Y401D02*
Y472D01*
X7386Y-3622D02*
X8309Y-2699D01*
X3291Y-5669D02*
X4274Y-6652D01*
X-3833D02*
X-2850Y-5669D01*
X-3839Y1476D02*
X-2850Y2520D01*
X-5880Y1537D02*
X-4898Y2520D01*
X-803D02*
X-728D01*
X-803Y2432D02*
Y2520D01*
X-15256Y-2657D02*
X-15256Y-2658D01*
X-15551Y-2953D02*
X-15256Y-2657D01*
X5339Y-3622D02*
Y-3590D01*
X6330Y-2598D01*
X1244Y472D02*
X1252D01*
X-2850Y6614D02*
Y13972D01*
X1244Y4563D02*
Y4567D01*
X1201Y6614D02*
X1244D01*
X-15650Y-9154D02*
Y-8957D01*
X-18701Y197D02*
X-15551Y-2953D01*
X-19094Y13091D02*
X-19094D01*
X-15748Y9744D01*
Y9547D02*
Y9744D01*
X-2559Y19193D02*
X-2461D01*
X-5315Y16437D02*
X-2559Y19193D01*
X-5512Y16437D02*
X-5315D01*
X19291Y6299D02*
Y6791D01*
X16634Y3642D02*
X19291Y6299D01*
X16634Y3445D02*
Y3642D01*
X13244Y929D02*
X28370D01*
X12981Y-197D02*
X28445D01*
X-5315Y16437D02*
X-2850Y13972D01*
X-15748Y9547D02*
X-9878D01*
X-6945Y6614D01*
X16634Y-3741D02*
Y-2756D01*
X14666Y-5709D02*
X16634Y-3741D01*
X-11713Y16535D02*
X-11516D01*
X-5953Y10973D01*
X689Y16437D02*
X886D01*
X492D02*
X689D01*
X886D02*
X4283Y13040D01*
Y5559D02*
Y13040D01*
X3291Y4567D02*
X4283Y5559D01*
X6330D02*
Y15878D01*
X5339Y4567D02*
X6330Y5559D01*
Y15878D02*
X6890Y16437D01*
X12040Y-1137D02*
X12981Y-197D01*
X28445D02*
X50846Y-22598D01*
X8311Y3445D02*
X16634D01*
X7386Y2520D02*
X8311Y3445D01*
X12709Y1464D02*
X13244Y929D01*
X6330Y1464D02*
X12709D01*
X50846Y-22598D02*
X58366D01*
X46898Y-17598D02*
X58366D01*
X28370Y929D02*
X46898Y-17598D01*
X10159Y-1137D02*
X12040D01*
X9605Y-583D02*
X10159Y-1137D01*
X4347Y-583D02*
X9605D01*
X3291Y472D02*
X4347Y-583D01*
X5339Y472D02*
X6330Y1464D01*
X9305Y-1575D02*
X10486Y-2756D01*
X7386Y-1575D02*
X9305D01*
X10486Y-2756D02*
X16634D01*
X10158Y472D02*
X10630Y0D01*
X7386Y472D02*
X10158D01*
X13780Y9547D02*
X13976Y9744D01*
X16732D01*
X7386Y10634D02*
X13189Y16437D01*
X7386Y6614D02*
Y10634D01*
X16634Y-11811D02*
Y-8957D01*
X16634Y-8957D02*
X16634Y-8957D01*
X3270Y-5691D02*
X3291Y-5669D01*
X7386D02*
X10673Y-8957D01*
X16634D01*
D12*
X-75906Y-6004D02*
X-75886D01*
X-78642Y-3268D02*
X-75906Y-6004D01*
X-82382Y-3268D02*
X-78642D01*
X14764Y21752D02*
X16831Y19685D01*
X13189Y21752D02*
X14764D01*
X-76378Y-18307D02*
X-75492Y-17421D01*
X-82342Y-18307D02*
X-76378D01*
X-82382Y-18268D02*
X-82342Y-18307D01*
X-82382Y-23268D02*
X-76083D01*
X-1673Y14272D02*
X492Y16437D01*
X-15748Y3543D02*
X-12992Y6299D01*
X-15748Y3347D02*
Y3543D01*
X-16043Y16339D02*
X-11909D01*
X-11713Y16535D01*
X18406Y13189D02*
X21850Y9744D01*
X58366Y-22598D02*
X72736D01*
X-76673Y-10236D02*
X-76673D01*
X-78642Y-8268D02*
X-76673Y-10236D01*
X-82382Y-8268D02*
X-78642D01*
X-47933Y13878D02*
Y16634D01*
X48327Y13780D02*
Y16634D01*
X-58366Y-3268D02*
X-51575D01*
X-49803Y-8268D02*
X-49311Y-8760D01*
X-58366Y-8268D02*
X-49803D01*
X-57874Y-16929D02*
X-56890Y-15945D01*
X-57874Y-18268D02*
Y-16929D01*
X-58366Y-18268D02*
X-57874D01*
X-60374Y-21260D02*
X-58366Y-23268D01*
X58366Y-17598D02*
X69095D01*
X82382Y-7598D02*
X89882D01*
X79016Y-17598D02*
X82382D01*
X76575Y-15157D02*
X79016Y-17598D01*
X81732Y-22598D02*
X82382D01*
X76772Y-27559D02*
X81732Y-22598D01*
D16*
X-20866Y-2953D02*
D03*
X-15551D02*
D03*
X-21063Y3347D02*
D03*
X-15748D02*
D03*
X-21063Y9547D02*
D03*
X-15748D02*
D03*
X21949Y-8957D02*
D03*
X16634D02*
D03*
X21949Y-2756D02*
D03*
X16634D02*
D03*
X21949Y3445D02*
D03*
X16634D02*
D03*
X-15650Y-9154D02*
D03*
X-20965D02*
D03*
D17*
X-11713Y16535D02*
D03*
Y21850D02*
D03*
X-5512Y21752D02*
D03*
Y16437D02*
D03*
X13189Y21752D02*
D03*
Y16437D02*
D03*
X689Y16437D02*
D03*
Y21752D02*
D03*
X6890Y16437D02*
D03*
Y21752D02*
D03*
D18*
X21850Y9744D02*
D03*
X16732D02*
D03*
D38*
X42028Y-31890D02*
G03*
X42028Y-31890I-0J0D01*
G01*
X-42027Y-20866D02*
G03*
X-42027Y-20866I-0J0D01*
G01*
D40*
X9350Y18898D02*
X10728D01*
X6890Y16437D02*
X9350Y18898D01*
X10728D02*
X13189Y16437D01*
X-47933Y22539D02*
Y29429D01*
X-45079Y35335D02*
X-44587Y35827D01*
X-47933Y35335D02*
X-45079D01*
X45374D02*
X48327D01*
X44783Y35925D02*
X45374Y35335D01*
X48327Y22539D02*
Y29429D01*
D41*
X39664Y2362D02*
D03*
X-39076D02*
D03*
X-99016Y-12106D02*
D03*
X99016Y-13484D02*
D03*
D42*
X8858Y-35925D02*
D03*
X18307Y-27800D02*
D03*
X6102Y-23622D02*
D03*
X22638Y-22933D02*
D03*
X-34547Y-46063D02*
D03*
X34547Y-46063D02*
D03*
X27657Y-52953D02*
D03*
X20768Y-46063D02*
D03*
X44882Y13681D02*
D03*
X38287Y28051D02*
D03*
X-20472Y32677D02*
D03*
X-30512Y28051D02*
D03*
X-44980Y24508D02*
D03*
X-75886Y-6004D02*
D03*
X-86319Y11319D02*
D03*
X-75394Y-3347D02*
D03*
X-83465Y1280D02*
D03*
X-59842Y394D02*
D03*
X-60335Y3740D02*
D03*
X-73130Y-8760D02*
D03*
X-72638Y-18996D02*
D03*
X-72736Y-14961D02*
D03*
Y-27362D02*
D03*
X-27657Y-52461D02*
D03*
X27657Y-39173D02*
D03*
X20669Y-37303D02*
D03*
X29331Y-27953D02*
D03*
X56102Y6102D02*
D03*
X60138Y-4921D02*
D03*
X65256Y-12795D02*
D03*
X89173Y-27559D02*
D03*
Y-21358D02*
D03*
Y-15157D02*
D03*
Y-2461D02*
D03*
X83366Y2953D02*
D03*
X-75492Y-17421D02*
D03*
X-76083Y-23268D02*
D03*
X-25297Y-23722D02*
D03*
X-1673Y-27659D02*
D03*
X-24803Y-34547D02*
D03*
X-89075Y-5610D02*
D03*
X12697Y6299D02*
D03*
X689Y10728D02*
D03*
X12205Y-30217D02*
D03*
X-18701Y-24213D02*
D03*
X13780Y9547D02*
D03*
X16634Y-11811D02*
D03*
X13189Y31890D02*
D03*
X689D02*
D03*
X-24705Y-2953D02*
D03*
X25492Y-2756D02*
D03*
X60532Y3150D02*
D03*
X60335Y-27756D02*
D03*
X78051Y5906D02*
D03*
X84153Y6004D02*
D03*
X81201Y5709D02*
D03*
X89173Y12303D02*
D03*
X-88976Y-22835D02*
D03*
X-88976Y-10433D02*
D03*
X-88976Y-16634D02*
D03*
X-76673Y-10236D02*
D03*
X-60236Y11811D02*
D03*
X-71752Y-2461D02*
D03*
X-47933Y13878D02*
D03*
X-44587Y35827D02*
D03*
X48327Y13780D02*
D03*
X44783Y35925D02*
D03*
X-51575Y-3268D02*
D03*
X-49311Y-8760D02*
D03*
X-56890Y-15945D02*
D03*
X-60374Y-21260D02*
D03*
X-60039Y-27362D02*
D03*
X72736Y-22598D02*
D03*
X69095Y-17598D02*
D03*
X89882Y-7598D02*
D03*
X76575Y-15157D02*
D03*
X76772Y-27559D02*
D03*
X76378Y-20374D02*
D03*
D43*
X4252Y-6673D02*
D03*
X2205Y-4626D02*
D03*
X-84055Y4724D02*
D03*
X-23917Y-6201D02*
D03*
X-23819Y197D02*
D03*
X-24114Y3347D02*
D03*
Y9547D02*
D03*
X-11712Y24902D02*
D03*
X-5512Y24803D02*
D03*
X-2067Y24508D02*
D03*
X4528Y24114D02*
D03*
X16831Y19685D02*
D03*
X-23623Y-9154D02*
D03*
X25000Y-6004D02*
D03*
X24608Y-8956D02*
D03*
Y3445D02*
D03*
X24509Y9745D02*
D03*
X6890Y25295D02*
D03*
X-20768Y27362D02*
D03*
X-14863Y-35927D02*
D03*
X4921Y-44685D02*
D03*
X6890D02*
D03*
X34646Y12106D02*
D03*
X-35728Y12205D02*
D03*
X18701Y-37598D02*
D03*
X10827Y-44685D02*
D03*
X-2953D02*
D03*
X-984Y-35928D02*
D03*
X-4921Y-37598D02*
D03*
X-11024Y-35827D02*
D03*
X-7949Y-6630D02*
D03*
X-13032Y-500D02*
D03*
X-12894Y-9154D02*
D03*
X-8661Y-37402D02*
D03*
X-16732D02*
D03*
X-18701Y-35925D02*
D03*
X-12795Y-37402D02*
D03*
X2953Y-35928D02*
D03*
X984Y-37598D02*
D03*
X-6890Y-35928D02*
D03*
X-5610Y-6595D02*
D03*
X-3854Y-6630D02*
D03*
X-5902Y-488D02*
D03*
X2205Y3559D02*
D03*
X-3754Y3751D02*
D03*
X6342Y3480D02*
D03*
X8390Y5528D02*
D03*
X4252Y1516D02*
D03*
X2205D02*
D03*
Y-2579D02*
D03*
X4252Y-4626D02*
D03*
X2205Y-6673D02*
D03*
X-1807Y-6630D02*
D03*
X-5902Y-2535D02*
D03*
X-5801Y3751D02*
D03*
X-3839Y1476D02*
D03*
X-5906D02*
D03*
X-1807Y3606D02*
D03*
X-7949Y-488D02*
D03*
X-7838Y-2468D02*
D03*
X-3937Y5610D02*
D03*
X-11122Y4134D02*
D03*
X8366Y-2756D02*
D03*
X2287Y5654D02*
D03*
X240D02*
D03*
X2213Y-532D02*
D03*
X-1807Y-2535D02*
D03*
X-1732Y1559D02*
D03*
X-1807Y5654D02*
D03*
X6330Y-2598D02*
D03*
X-18701Y197D02*
D03*
X-19094Y13091D02*
D03*
X-2461Y19193D02*
D03*
X19291Y6791D02*
D03*
X-1673Y14272D02*
D03*
X14666Y-5709D02*
D03*
X14665Y-18307D02*
D03*
X-12992Y6299D02*
D03*
X-16043Y16339D02*
D03*
X18406Y13189D02*
D03*
X16634Y6397D02*
D03*
X10630Y0D02*
D03*
D44*
X3051Y-24016D02*
D03*
D45*
X10040Y18899D02*
D03*
D46*
X-6945Y-5669D02*
D03*
X-4898D02*
D03*
X-2850D02*
D03*
X-803D02*
D03*
X1244D02*
D03*
X3291D02*
D03*
X5339D02*
D03*
X7386D02*
D03*
X-6945Y-3622D02*
D03*
X-4898D02*
D03*
X-2850D02*
D03*
X-803D02*
D03*
X1244D02*
D03*
X3291D02*
D03*
X5339D02*
D03*
X7386D02*
D03*
X-6945Y-1575D02*
D03*
X-4898D02*
D03*
X-2850D02*
D03*
X-803D02*
D03*
X1244D02*
D03*
X3291D02*
D03*
X5339D02*
D03*
X7386D02*
D03*
X-6945Y472D02*
D03*
X-4898D02*
D03*
X-2850D02*
D03*
X-803D02*
D03*
X1244D02*
D03*
X3291D02*
D03*
X5339D02*
D03*
X7386D02*
D03*
X-4898Y2520D02*
D03*
X-2850D02*
D03*
X-803D02*
D03*
X1244D02*
D03*
X3291D02*
D03*
X5339D02*
D03*
X7386D02*
D03*
X-6945Y4567D02*
D03*
X-4898D02*
D03*
X-2850D02*
D03*
X-803D02*
D03*
X1244D02*
D03*
X3291D02*
D03*
X5339D02*
D03*
X7386D02*
D03*
X-6945Y6614D02*
D03*
X-4898D02*
D03*
X-2850D02*
D03*
X-803D02*
D03*
X1244D02*
D03*
X3291D02*
D03*
X5339D02*
D03*
X7386D02*
D03*
D47*
X-58366Y-34921D02*
D03*
Y8386D02*
D03*
X-82382D02*
D03*
X82382Y-34252D02*
D03*
Y9055D02*
D03*
X58366D02*
D03*
D48*
X-58366Y-23268D02*
D03*
Y-18268D02*
D03*
Y-13268D02*
D03*
Y-8268D02*
D03*
Y-3268D02*
D03*
X-82382D02*
D03*
Y-8268D02*
D03*
Y-13268D02*
D03*
Y-18268D02*
D03*
Y-23268D02*
D03*
X82382Y-22598D02*
D03*
Y-17598D02*
D03*
Y-12598D02*
D03*
Y-7598D02*
D03*
Y-2598D02*
D03*
X58366D02*
D03*
Y-7598D02*
D03*
Y-12598D02*
D03*
Y-17598D02*
D03*
Y-22598D02*
D03*
D49*
X-80413Y-34921D02*
D03*
X60335Y-34252D02*
D03*
D50*
X48327Y22539D02*
D03*
Y16634D02*
D03*
X-47933Y22539D02*
D03*
Y16634D02*
D03*
X48327Y35335D02*
D03*
Y29429D02*
D03*
X-47933Y35335D02*
D03*
Y29429D02*
D03*
M02*
