G04*
G04 #@! TF.GenerationSoftware,Altium Limited,Altium Designer,19.0.11 (319)*
G04*
G04 Layer_Color=128*
%FSLAX25Y25*%
%MOIN*%
G70*
G01*
G75*
%ADD16R,0.03543X0.03937*%
%ADD17R,0.03937X0.03543*%
%ADD18R,0.03347X0.03740*%
%ADD46C,0.00890*%
%ADD47R,0.10236X0.03150*%
%ADD48R,0.10236X0.02756*%
%ADD49R,0.14173X0.03150*%
%ADD50R,0.03150X0.03150*%
D16*
X-20866Y-2953D02*
D03*
X-15551D02*
D03*
X-21063Y3347D02*
D03*
X-15748D02*
D03*
X-21063Y9547D02*
D03*
X-15748D02*
D03*
X21949Y-8957D02*
D03*
X16634D02*
D03*
X21949Y-2756D02*
D03*
X16634D02*
D03*
X21949Y3445D02*
D03*
X16634D02*
D03*
X-15650Y-9154D02*
D03*
X-20965D02*
D03*
D17*
X-11713Y16535D02*
D03*
Y21850D02*
D03*
X-5512Y21752D02*
D03*
Y16437D02*
D03*
X13189Y21752D02*
D03*
Y16437D02*
D03*
X689Y16437D02*
D03*
Y21752D02*
D03*
X6890Y16437D02*
D03*
Y21752D02*
D03*
D18*
X21850Y9744D02*
D03*
X16732D02*
D03*
D46*
X-6945Y-5669D02*
D03*
X-4898D02*
D03*
X-2850D02*
D03*
X-803D02*
D03*
X1244D02*
D03*
X3291D02*
D03*
X5339D02*
D03*
X7386D02*
D03*
X-6945Y-3622D02*
D03*
X-4898D02*
D03*
X-2850D02*
D03*
X-803D02*
D03*
X1244D02*
D03*
X3291D02*
D03*
X5339D02*
D03*
X7386D02*
D03*
X-6945Y-1575D02*
D03*
X-4898D02*
D03*
X-2850D02*
D03*
X-803D02*
D03*
X1244D02*
D03*
X3291D02*
D03*
X5339D02*
D03*
X7386D02*
D03*
X-6945Y472D02*
D03*
X-4898D02*
D03*
X-2850D02*
D03*
X-803D02*
D03*
X1244D02*
D03*
X3291D02*
D03*
X5339D02*
D03*
X7386D02*
D03*
X-4898Y2520D02*
D03*
X-2850D02*
D03*
X-803D02*
D03*
X1244D02*
D03*
X3291D02*
D03*
X5339D02*
D03*
X7386D02*
D03*
X-6945Y4567D02*
D03*
X-4898D02*
D03*
X-2850D02*
D03*
X-803D02*
D03*
X1244D02*
D03*
X3291D02*
D03*
X5339D02*
D03*
X7386D02*
D03*
X-6945Y6614D02*
D03*
X-4898D02*
D03*
X-2850D02*
D03*
X-803D02*
D03*
X1244D02*
D03*
X3291D02*
D03*
X5339D02*
D03*
X7386D02*
D03*
D47*
X-58366Y-34921D02*
D03*
Y8386D02*
D03*
X-82382D02*
D03*
X82382Y-34252D02*
D03*
Y9055D02*
D03*
X58366D02*
D03*
D48*
X-58366Y-23268D02*
D03*
Y-18268D02*
D03*
Y-13268D02*
D03*
Y-8268D02*
D03*
Y-3268D02*
D03*
X-82382D02*
D03*
Y-8268D02*
D03*
Y-13268D02*
D03*
Y-18268D02*
D03*
Y-23268D02*
D03*
X82382Y-22598D02*
D03*
Y-17598D02*
D03*
Y-12598D02*
D03*
Y-7598D02*
D03*
Y-2598D02*
D03*
X58366D02*
D03*
Y-7598D02*
D03*
Y-12598D02*
D03*
Y-17598D02*
D03*
Y-22598D02*
D03*
D49*
X-80413Y-34921D02*
D03*
X60335Y-34252D02*
D03*
D50*
X48327Y22539D02*
D03*
Y16634D02*
D03*
X-47933Y22539D02*
D03*
Y16634D02*
D03*
X48327Y35335D02*
D03*
Y29429D02*
D03*
X-47933Y35335D02*
D03*
Y29429D02*
D03*
M02*
