M48
;Layer_Color=9474304
;FILE_FORMAT=4:4
METRIC,LZ
;TYPE=PLATED
T1F00S00C0.2000
T2F00S00C0.2000
T3F00S00C0.2500
T4F00S00C0.3000
T5F00S00C0.3000
T6F00S00C2.5000
%
T01
X-00019908Y-00006268
T02
X-0008775Y-00117
X-0007025Y-0013325
X-000075Y-001135
X000125
X000175
X000275
X0005275Y-00117
X0007025Y-001345
X0008775Y-00117
X0007025Y-000995
X000525Y-0009475
X000475Y-000955
X000465Y-00070612
X00031Y-0007675
X000155Y-0006
X-0000425Y-00070253
X-000025Y-00091256
X000025Y-000955
X000075Y-00091256
X-000125Y-000955
X-000175Y-00091256
X-00022Y-00095
X-00028Y-00091
X-000325Y-00095
X-00037752Y-00091255
X-000425Y-00095
X-000475Y-0009125
X-00063Y-0008775
X-00064253Y-00060253
X-000475Y-000615
X-00060003Y-00023251
X-0006075Y-0001575
X-0006275Y-000075
X-000605Y000005
X-0006125Y000085
Y0002425
X-000485Y0003325
X-0004075Y000415
X-0002975Y0006325
X-00014Y00063
X-0000525Y0006225
X-0000625Y0004875
X-0000425Y0003625
X0000175Y0002725
X0000061Y0001436
X-0000459
Y0000916
X-00009535Y00009528
X-0001Y0001425
X-00014735Y00009528
X-00015Y0000375
X-0001499Y-0000124
Y-0000644
X-0002019Y-0000124
X-00033102Y-00001269
X-000475Y000005
X-0002825Y000105
X-00033Y00016
X-0000975Y0000375
X-000044Y0000396
X000056Y0000385
Y0000904
X0000581Y0001436
X000108Y0000385
X0001611Y0000884
X0002131Y0001404
X0003225Y00016
X0004225Y00016249
X00049Y0001725
X0004675Y000335
X0004275Y0005
X00035Y0002425
X00062253Y00024751
X00062503Y00008751
X0006475Y-00007
X000635Y-0001525
X00062503Y-00022749
X0004225Y-0003
X00037252Y-00014501
X0002125Y-00007
X00016079Y-000066
X000108Y-0001175
Y-0001695
X000056
Y-0001175
Y-0000655
X0000562Y-0000135
X-0000459Y-0000644
Y-0001684
X-0000979
X-00014251Y-00016751
X-0002019Y-0001684
X-0003275Y-0002325
X00027Y0
X0003725Y-000465
X000575Y-0005825
X000745Y-00071
X00088Y0003075
X00114Y0003475
X0012275Y00035
X001425Y000155
X0009725Y0007125
X0011375Y0009125
X000335Y00081
X0000175
X000115Y0006125
X000175Y0006425
X-0005275Y000695
X-00052Y00083
X-000775Y0007125
X-0011425Y0006225
X-0011325Y00091
X-0012175Y0003525
X-0009075Y00031
X-00153Y0003
X-0015325Y000095
X-00152Y00001
X-00131Y-000083
X-0012525Y-0002225
X-001445Y-000405
X-0015335Y-00054
X-001525Y-000695
X-0018475
X-0019325Y-000591
X-0019175Y-0004425
X-001845Y-0004825
X-0018475Y-00038
X-0018575Y-0002225
X-0019475Y-00026
X-0019275Y-0001525
X-001915Y-000085
X-0018225Y-0000625
X-00212Y0000325
X-002135Y00012
X-0021925Y0002875
X-0022625Y-0001425
X-00226Y-000265
X-00226Y-0004225
Y-00058
X0015325Y-000705
X00195Y-0007
X00194Y-0005175
X001945Y-000385
X001755Y-000447
X0016575Y-000325
X0015275Y-000125
X0015375Y00008
X0019825Y00015
X0020625Y000145
X0021375Y0001525
X0021175Y000075
X002265Y-0000625
X002283Y-000193
X002265Y-000385
Y-0005425
Y-0007
X0018475Y-000574
X002265Y0003125
T03
X000225Y-0009125
T04
X00025501Y00048002
T05
X0000775Y-00061
T06
X-002515Y-0003075
X-00099253Y00006
X00100747
X002515Y-0003425
M30
